Dakkhinee.ufo
<glyph name="uni0000" format="2">
  <advance width="1000"/>
  <unicode hex="0000"/>
  <outline>
    <contour>
      <point x="369" y="655" type="curve" smooth="yes"/>
      <point x="619" y="655" type="line" smooth="yes"/>
      <point x="625" y="655"/>
      <point x="632" y="653"/>
      <point x="637" y="648" type="curve" smooth="yes"/>
      <point x="642" y="643"/>
      <point x="644" y="636"/>
      <point x="644" y="630" type="curve" smooth="yes"/>
      <point x="644" y="112" type="line" smooth="yes"/>
      <point x="644" y="106"/>
      <point x="642" y="99"/>
      <point x="637" y="94" type="curve" smooth="yes"/>
      <point x="632" y="89"/>
      <point x="625" y="87"/>
      <point x="619" y="87" type="curve" smooth="yes"/>
      <point x="369" y="87" type="line" smooth="yes"/>
      <point x="363" y="87"/>
      <point x="356" y="89"/>
      <point x="351" y="94" type="curve" smooth="yes"/>
      <point x="346" y="99"/>
      <point x="344" y="106"/>
      <point x="344" y="112" type="curve" smooth="yes"/>
      <point x="344" y="630" type="line" smooth="yes"/>
      <point x="344" y="636"/>
      <point x="346" y="643"/>
      <point x="351" y="648" type="curve" smooth="yes"/>
      <point x="356" y="653"/>
      <point x="363" y="655"/>
    </contour>
    <contour>
      <point x="594" y="605" type="line"/>
      <point x="394" y="605" type="line"/>
      <point x="394" y="137" type="line"/>
      <point x="594" y="137" type="line"/>
    </contour>
  </outline>
</glyph>
<glyph name="exclam" format="2">
  <advance width="482"/>
  <unicode hex="0021"/>
  <outline>
    <contour>
      <point x="205" y="200" type="line"/>
      <point x="201" y="198" type="line" smooth="yes"/>
      <point x="201" y="184" type="line" smooth="yes"/>
      <point x="201" y="162"/>
      <point x="204" y="164"/>
      <point x="225" y="160" type="curve" smooth="yes"/>
      <point x="246" y="156"/>
      <point x="263" y="170"/>
      <point x="281" y="178" type="curve" smooth="yes"/>
      <point x="354" y="204"/>
      <point x="319" y="310"/>
      <point x="327" y="382" type="curve" smooth="yes"/>
      <point x="324" y="395"/>
      <point x="319" y="415"/>
      <point x="319" y="432" type="curve" smooth="yes"/>
      <point x="319" y="439"/>
      <point x="315" y="444"/>
      <point x="315" y="452" type="curve" smooth="yes"/>
      <point x="315" y="459"/>
      <point x="308" y="471"/>
      <point x="307" y="480" type="curve" smooth="yes"/>
      <point x="303" y="508"/>
      <point x="291" y="534"/>
      <point x="281" y="560" type="curve" smooth="yes"/>
      <point x="271" y="586"/>
      <point x="256" y="615"/>
      <point x="227" y="622" type="curve" smooth="yes"/>
      <point x="215" y="627"/>
      <point x="182" y="642"/>
      <point x="189" y="616" type="curve" smooth="yes"/>
      <point x="189" y="600"/>
      <point x="192" y="590"/>
      <point x="197" y="574" type="curve" smooth="yes"/>
      <point x="219" y="501"/>
      <point x="269" y="429"/>
      <point x="265" y="342" type="curve" smooth="yes"/>
      <point x="269" y="314"/>
      <point x="259" y="289"/>
      <point x="253" y="266" type="curve" smooth="yes"/>
      <point x="246" y="238"/>
      <point x="229" y="234"/>
      <point x="212" y="210" type="curve" smooth="yes"/>
    </contour>
    <contour>
      <point x="237" y="125" type="curve" smooth="yes"/>
      <point x="283" y="132" type="line" smooth="yes"/>
      <point x="287" y="122"/>
      <point x="291" y="120"/>
      <point x="291" y="108" type="curve" smooth="yes"/>
      <point x="291" y="84"/>
      <point x="269" y="37"/>
      <point x="251" y="37" type="curve" smooth="yes"/>
      <point x="231" y="37"/>
      <point x="215" y="89"/>
      <point x="215" y="116" type="curve" smooth="yes"/>
      <point x="215" y="134"/>
      <point x="215" y="125"/>
      <point x="237" y="125" type="curve" smooth="yes"/>
      <point x="237" y="125"/>
      <point x="238" y="125"/>
    </contour>
  </outline>
</glyph>
<glyph name="quotedbl" format="2">
  <advance width="1000"/>
  <unicode hex="0022"/>
  <outline>
    <contour>
      <point x="743" y="658" type="line"/>
      <point x="743" y="654" type="line" smooth="yes"/>
      <point x="743" y="653"/>
      <point x="731" y="640"/>
      <point x="727" y="640" type="curve" smooth="yes"/>
      <point x="724" y="640"/>
      <point x="718" y="655"/>
      <point x="717" y="658" type="curve" smooth="yes"/>
      <point x="713" y="672"/>
      <point x="708" y="686"/>
      <point x="717" y="700" type="curve" smooth="yes"/>
      <point x="732" y="722"/>
      <point x="751" y="715"/>
      <point x="767" y="700" type="curve" smooth="yes"/>
      <point x="775" y="693"/>
      <point x="783" y="677"/>
      <point x="783" y="666" type="curve" smooth="yes"/>
      <point x="785" y="648"/>
      <point x="791" y="632"/>
      <point x="789" y="612" type="curve" smooth="yes"/>
      <point x="788" y="601"/>
      <point x="791" y="576"/>
      <point x="777" y="576" type="curve" smooth="yes"/>
      <point x="766" y="576"/>
      <point x="765" y="574"/>
      <point x="755" y="574" type="curve" smooth="yes"/>
      <point x="759" y="574" type="line" smooth="yes"/>
      <point x="781" y="573"/>
      <point x="775" y="599"/>
      <point x="773" y="616" type="curve" smooth="yes"/>
      <point x="769" y="649"/>
      <point x="757" y="652"/>
      <point x="749" y="660" type="curve" smooth="yes"/>
    </contour>
    <contour>
      <point x="647" y="658" type="line"/>
      <point x="647" y="654" type="line" smooth="yes"/>
      <point x="647" y="653"/>
      <point x="635" y="640"/>
      <point x="631" y="640" type="curve" smooth="yes"/>
      <point x="628" y="640"/>
      <point x="622" y="655"/>
      <point x="621" y="658" type="curve" smooth="yes"/>
      <point x="617" y="672"/>
      <point x="612" y="686"/>
      <point x="621" y="700" type="curve" smooth="yes"/>
      <point x="636" y="722"/>
      <point x="655" y="715"/>
      <point x="671" y="700" type="curve" smooth="yes"/>
      <point x="679" y="693"/>
      <point x="687" y="677"/>
      <point x="687" y="666" type="curve" smooth="yes"/>
      <point x="689" y="648"/>
      <point x="695" y="632"/>
      <point x="693" y="612" type="curve" smooth="yes"/>
      <point x="692" y="601"/>
      <point x="695" y="576"/>
      <point x="681" y="576" type="curve" smooth="yes"/>
      <point x="670" y="576"/>
      <point x="669" y="574"/>
      <point x="659" y="574" type="curve" smooth="yes"/>
      <point x="663" y="574" type="line" smooth="yes"/>
      <point x="685" y="573"/>
      <point x="679" y="599"/>
      <point x="677" y="616" type="curve" smooth="yes"/>
      <point x="673" y="649"/>
      <point x="661" y="652"/>
      <point x="653" y="660" type="curve" smooth="yes"/>
    </contour>
  </outline>
</glyph>
<glyph name="numbersign" format="2">
  <advance width="1000"/>
  <unicode hex="0023"/>
  <outline>
    <contour>
      <point x="198" y="121" type="line"/>
      <point x="226" y="152"/>
      <point x="259" y="171"/>
      <point x="300" y="181" type="curve" smooth="yes"/>
      <point x="311" y="184"/>
      <point x="321" y="189"/>
      <point x="334" y="189" type="curve" smooth="yes"/>
      <point x="360" y="193"/>
      <point x="388" y="196"/>
      <point x="416" y="195" type="curve" smooth="yes"/>
      <point x="470" y="196"/>
      <point x="537" y="207"/>
      <point x="578" y="177" type="curve" smooth="yes"/>
      <point x="580" y="176"/>
      <point x="612" y="155"/>
      <point x="612" y="155" type="curve" smooth="yes"/>
      <point x="614" y="155"/>
      <point x="616" y="170"/>
      <point x="616" y="173" type="curve" smooth="yes"/>
      <point x="616" y="191"/>
      <point x="591" y="212"/>
      <point x="572" y="212" type="curve" smooth="yes"/>
      <point x="572" y="212"/>
      <point x="564" y="215"/>
      <point x="560" y="215" type="curve" smooth="yes"/>
      <point x="552" y="217" type="line" smooth="yes"/>
      <point x="512" y="223" type="line" smooth="yes"/>
      <point x="464" y="227" type="line" smooth="yes"/>
      <point x="296" y="227" type="line" smooth="yes"/>
      <point x="248" y="205" type="line" smooth="yes"/>
      <point x="214" y="169" type="line" smooth="yes"/>
      <point x="194" y="127" type="line" smooth="yes"/>
    </contour>
    <contour>
      <point x="198" y="253" type="line"/>
      <point x="226" y="284"/>
      <point x="259" y="303"/>
      <point x="300" y="313" type="curve" smooth="yes"/>
      <point x="311" y="316"/>
      <point x="321" y="321"/>
      <point x="334" y="321" type="curve" smooth="yes"/>
      <point x="360" y="325"/>
      <point x="388" y="328"/>
      <point x="416" y="327" type="curve" smooth="yes"/>
      <point x="470" y="328"/>
      <point x="537" y="339"/>
      <point x="578" y="309" type="curve" smooth="yes"/>
      <point x="580" y="308"/>
      <point x="612" y="287"/>
      <point x="612" y="287" type="curve" smooth="yes"/>
      <point x="614" y="287"/>
      <point x="616" y="302"/>
      <point x="616" y="305" type="curve" smooth="yes"/>
      <point x="616" y="323"/>
      <point x="591" y="344"/>
      <point x="572" y="344" type="curve" smooth="yes"/>
      <point x="572" y="344"/>
      <point x="564" y="347"/>
      <point x="560" y="347" type="curve" smooth="yes"/>
      <point x="552" y="349" type="line" smooth="yes"/>
      <point x="512" y="355" type="line" smooth="yes"/>
      <point x="464" y="359" type="line" smooth="yes"/>
      <point x="296" y="359" type="line" smooth="yes"/>
      <point x="248" y="337" type="line" smooth="yes"/>
      <point x="214" y="301" type="line" smooth="yes"/>
      <point x="194" y="259" type="line" smooth="yes"/>
    </contour>
    <contour>
      <point x="427" y="462" type="line"/>
      <point x="458" y="434"/>
      <point x="477" y="401"/>
      <point x="487" y="360" type="curve" smooth="yes"/>
      <point x="490" y="349"/>
      <point x="495" y="339"/>
      <point x="495" y="326" type="curve" smooth="yes"/>
      <point x="499" y="300"/>
      <point x="502" y="272"/>
      <point x="501" y="244" type="curve" smooth="yes"/>
      <point x="502" y="190"/>
      <point x="513" y="123"/>
      <point x="483" y="82" type="curve" smooth="yes"/>
      <point x="482" y="80"/>
      <point x="461" y="48"/>
      <point x="461" y="48" type="curve" smooth="yes"/>
      <point x="461" y="46"/>
      <point x="476" y="44"/>
      <point x="479" y="44" type="curve" smooth="yes"/>
      <point x="497" y="44"/>
      <point x="518" y="69"/>
      <point x="518" y="88" type="curve" smooth="yes"/>
      <point x="518" y="88"/>
      <point x="521" y="96"/>
      <point x="521" y="100" type="curve" smooth="yes"/>
      <point x="523" y="108" type="line" smooth="yes"/>
      <point x="529" y="148" type="line" smooth="yes"/>
      <point x="533" y="196" type="line" smooth="yes"/>
      <point x="533" y="364" type="line" smooth="yes"/>
      <point x="511" y="412" type="line" smooth="yes"/>
      <point x="475" y="446" type="line" smooth="yes"/>
      <point x="433" y="466" type="line" smooth="yes"/>
    </contour>
    <contour>
      <point x="241" y="462" type="line"/>
      <point x="272" y="434"/>
      <point x="291" y="401"/>
      <point x="301" y="360" type="curve" smooth="yes"/>
      <point x="304" y="349"/>
      <point x="309" y="339"/>
      <point x="309" y="326" type="curve" smooth="yes"/>
      <point x="313" y="300"/>
      <point x="316" y="272"/>
      <point x="315" y="244" type="curve" smooth="yes"/>
      <point x="316" y="190"/>
      <point x="327" y="123"/>
      <point x="297" y="82" type="curve" smooth="yes"/>
      <point x="296" y="80"/>
      <point x="275" y="48"/>
      <point x="275" y="48" type="curve" smooth="yes"/>
      <point x="275" y="46"/>
      <point x="290" y="44"/>
      <point x="293" y="44" type="curve" smooth="yes"/>
      <point x="311" y="44"/>
      <point x="332" y="69"/>
      <point x="332" y="88" type="curve" smooth="yes"/>
      <point x="332" y="88"/>
      <point x="335" y="96"/>
      <point x="335" y="100" type="curve" smooth="yes"/>
      <point x="337" y="108" type="line" smooth="yes"/>
      <point x="343" y="148" type="line" smooth="yes"/>
      <point x="347" y="196" type="line" smooth="yes"/>
      <point x="347" y="364" type="line" smooth="yes"/>
      <point x="325" y="412" type="line" smooth="yes"/>
      <point x="289" y="446" type="line" smooth="yes"/>
      <point x="247" y="466" type="line" smooth="yes"/>
    </contour>
  </outline>
</glyph>
<glyph name="dollar" format="2">
  <advance width="358"/>
  <unicode hex="0024"/>
  <outline>
    <contour>
      <point x="251" y="809" type="curve" smooth="yes"/>
      <point x="259" y="809"/>
      <point x="267" y="807"/>
      <point x="273" y="802" type="curve" smooth="yes"/>
      <point x="279" y="797"/>
      <point x="283" y="790"/>
      <point x="283" y="784" type="curve" smooth="yes"/>
      <point x="283" y="779"/>
      <point x="281" y="774"/>
      <point x="277" y="770" type="curve" smooth="yes"/>
      <point x="263" y="754"/>
      <point x="251" y="736"/>
      <point x="239" y="719" type="curve"/>
      <point x="243" y="715"/>
      <point x="247" y="711"/>
      <point x="250" y="707" type="curve" smooth="yes"/>
      <point x="253" y="703"/>
      <point x="255" y="699"/>
      <point x="255" y="694" type="curve" smooth="yes"/>
      <point x="255" y="688"/>
      <point x="252" y="681"/>
      <point x="246" y="676" type="curve" smooth="yes"/>
      <point x="240" y="671"/>
      <point x="232" y="669"/>
      <point x="224" y="669" type="curve" smooth="yes"/>
      <point x="220" y="669"/>
      <point x="216" y="670"/>
      <point x="212" y="671" type="curve"/>
      <point x="180" y="607"/>
      <point x="163" y="538"/>
      <point x="162" y="468" type="curve" smooth="yes"/>
      <point x="166" y="464"/>
      <point x="171" y="460"/>
      <point x="175" y="456" type="curve" smooth="yes"/>
      <point x="219" y="413"/>
      <point x="267" y="367"/>
      <point x="293" y="311" type="curve" smooth="yes"/>
      <point x="316" y="268"/>
      <point x="312" y="229"/>
      <point x="317" y="184" type="curve" smooth="yes"/>
      <point x="318" y="183"/>
      <point x="318" y="183"/>
      <point x="318" y="182" type="curve" smooth="yes"/>
      <point x="318" y="180"/>
      <point x="318" y="177"/>
      <point x="318" y="175" type="curve" smooth="yes"/>
      <point x="318" y="169"/>
      <point x="318" y="164"/>
      <point x="318" y="159" type="curve" smooth="yes"/>
      <point x="318" y="112"/>
      <point x="330" y="68"/>
      <point x="303" y="38" type="curve"/>
      <point x="308" y="29"/>
      <point x="296" y="22"/>
      <point x="297" y="19" type="curve" smooth="yes"/>
      <point x="298" y="14"/>
      <point x="300" y="9"/>
      <point x="300" y="4" type="curve" smooth="yes"/>
      <point x="300" y="-2"/>
      <point x="297" y="-9"/>
      <point x="291" y="-14" type="curve" smooth="yes"/>
      <point x="285" y="-19"/>
      <point x="277" y="-21"/>
      <point x="269" y="-21" type="curve" smooth="yes"/>
      <point x="254" y="-21"/>
      <point x="241" y="-12"/>
      <point x="238" y="-1" type="curve" smooth="yes"/>
      <point x="237" y="6" type="line" smooth="yes"/>
      <point x="236" y="6"/>
      <point x="235" y="7"/>
      <point x="235" y="8" type="curve" smooth="yes"/>
      <point x="229" y="7"/>
      <point x="222" y="6"/>
      <point x="215" y="5" type="curve" smooth="yes"/>
      <point x="208" y="4"/>
      <point x="202" y="4"/>
      <point x="195" y="4" type="curve" smooth="yes"/>
      <point x="150" y="4"/>
      <point x="114" y="23"/>
      <point x="87" y="37" type="curve" smooth="yes"/>
      <point x="82" y="40"/>
      <point x="77" y="42"/>
      <point x="72" y="45" type="curve" smooth="yes"/>
      <point x="63" y="49"/>
      <point x="48" y="60"/>
      <point x="46" y="61" type="curve" smooth="yes"/>
      <point x="39" y="66"/>
      <point x="31" y="71"/>
      <point x="24" y="76" type="curve" smooth="yes"/>
      <point x="18" y="81"/>
      <point x="15" y="88"/>
      <point x="15" y="94" type="curve" smooth="yes"/>
      <point x="15" y="100"/>
      <point x="18" y="107"/>
      <point x="24" y="112" type="curve" smooth="yes"/>
      <point x="30" y="117"/>
      <point x="38" y="119"/>
      <point x="46" y="119" type="curve" smooth="yes"/>
      <point x="54" y="119"/>
      <point x="61" y="117"/>
      <point x="67" y="113" type="curve" smooth="yes"/>
      <point x="80" y="104"/>
      <point x="90" y="96"/>
      <point x="105" y="87" type="curve" smooth="yes"/>
      <point x="111" y="85"/>
      <point x="116" y="82"/>
      <point x="121" y="79" type="curve" smooth="yes"/>
      <point x="150" y="64"/>
      <point x="173" y="54"/>
      <point x="196" y="54" type="curve" smooth="yes"/>
      <point x="200" y="54"/>
      <point x="203" y="54"/>
      <point x="207" y="55" type="curve"/>
      <point x="158" y="151"/>
      <point x="101" y="257"/>
      <point x="101" y="370" type="curve" smooth="yes"/>
      <point x="101" y="381"/>
      <point x="101" y="392"/>
      <point x="102" y="404" type="curve" smooth="yes"/>
      <point x="101" y="419"/>
      <point x="100" y="435"/>
      <point x="100" y="450" type="curve"/>
      <point x="45" y="504"/>
      <point x="-8" y="565"/>
      <point x="-8" y="645" type="curve" smooth="yes"/>
      <point x="-8" y="655"/>
      <point x="-7" y="661"/>
      <point x="-7" y="671" type="curve" smooth="yes"/>
      <point x="-7" y="681"/>
      <point x="-8" y="692"/>
      <point x="-8" y="703" type="curve" smooth="yes"/>
      <point x="-8" y="709"/>
      <point x="-7" y="716"/>
      <point x="-6" y="723" type="curve" smooth="yes"/>
      <point x="-4" y="734"/>
      <point x="1" y="747"/>
      <point x="14" y="757" type="curve" smooth="yes"/>
      <point x="22" y="764"/>
      <point x="33" y="768"/>
      <point x="45" y="770" type="curve" smooth="yes"/>
      <point x="47" y="771"/>
      <point x="49" y="771"/>
      <point x="51" y="771" type="curve" smooth="yes"/>
      <point x="60" y="771"/>
      <point x="71" y="773"/>
      <point x="82" y="773" type="curve" smooth="yes"/>
      <point x="90" y="773"/>
      <point x="97" y="772"/>
      <point x="107" y="769" type="curve" smooth="yes"/>
      <point x="113" y="768"/>
      <point x="122" y="766"/>
      <point x="133" y="765" type="curve" smooth="yes"/>
      <point x="144" y="763"/>
      <point x="158" y="762"/>
      <point x="173" y="757" type="curve" smooth="yes"/>
      <point x="178" y="756"/>
      <point x="184" y="753"/>
      <point x="190" y="751" type="curve"/>
      <point x="201" y="767"/>
      <point x="213" y="783"/>
      <point x="225" y="798" type="curve" smooth="yes"/>
      <point x="231" y="804"/>
      <point x="241" y="809"/>
    </contour>
    <contour>
      <point x="164" y="388" type="curve"/>
      <point x="163" y="382"/>
      <point x="163" y="376"/>
      <point x="163" y="370" type="curve" smooth="yes"/>
      <point x="163" y="280"/>
      <point x="207" y="188"/>
      <point x="251" y="101" type="curve"/>
      <point x="255" y="120"/>
      <point x="255" y="143"/>
      <point x="255" y="163" type="curve" smooth="yes"/>
      <point x="255" y="167"/>
      <point x="255" y="171"/>
      <point x="255" y="175" type="curve" smooth="yes"/>
      <point x="255" y="177"/>
      <point x="255" y="179"/>
      <point x="255" y="181" type="curve" smooth="yes"/>
      <point x="251" y="221"/>
      <point x="251" y="263"/>
      <point x="235" y="292" type="curve" smooth="yes"/>
      <point x="235" y="292"/>
      <point x="235" y="293"/>
      <point x="234" y="293" type="curve" smooth="yes"/>
      <point x="220" y="326"/>
      <point x="194" y="357"/>
    </contour>
    <contour>
      <point x="104" y="529" type="curve"/>
      <point x="113" y="590"/>
      <point x="132" y="649"/>
      <point x="162" y="706" type="curve"/>
      <point x="158" y="708"/>
      <point x="153" y="710"/>
      <point x="150" y="711" type="curve" smooth="yes"/>
      <point x="143" y="713"/>
      <point x="134" y="714"/>
      <point x="123" y="716" type="curve" smooth="yes"/>
      <point x="112" y="717"/>
      <point x="100" y="718"/>
      <point x="86" y="722" type="curve" smooth="yes"/>
      <point x="85" y="722"/>
      <point x="84" y="723"/>
      <point x="83" y="723" type="curve" smooth="yes"/>
      <point x="77" y="723"/>
      <point x="65" y="722"/>
      <point x="58" y="721" type="curve" smooth="yes"/>
      <point x="56" y="718"/>
      <point x="55" y="709"/>
      <point x="55" y="703" type="curve" smooth="yes"/>
      <point x="55" y="692"/>
      <point x="56" y="681"/>
      <point x="56" y="670" type="curve" smooth="yes"/>
      <point x="56" y="662"/>
      <point x="55" y="654"/>
      <point x="55" y="646" type="curve" smooth="yes"/>
      <point x="55" y="603"/>
      <point x="74" y="566"/>
    </contour>
  </outline>
</glyph>
<glyph name="percent" format="2">
  <advance width="684"/>
  <unicode hex="0025"/>
  <outline>
    <contour>
      <point x="253" y="721" type="curve" smooth="yes"/>
      <point x="264" y="734"/>
      <point x="277" y="739"/>
      <point x="294.249" y="736.445" type="curve" smooth="yes"/>
      <point x="311" y="734"/>
      <point x="322" y="725"/>
      <point x="328.249" y="708.445" type="curve" smooth="yes"/>
      <point x="334" y="692"/>
      <point x="332" y="678"/>
      <point x="321" y="665" type="curve" smooth="yes"/>
      <point x="310" y="652"/>
      <point x="297" y="647"/>
      <point x="279.751" y="649.555" type="curve" smooth="yes"/>
      <point x="263" y="652"/>
      <point x="252" y="661"/>
      <point x="245.751" y="677.555" type="curve" smooth="yes"/>
      <point x="240" y="694"/>
      <point x="242" y="708"/>
    </contour>
    <contour>
      <point x="224" y="153" type="curve" smooth="yes"/>
      <point x="235" y="166"/>
      <point x="248" y="171"/>
      <point x="265.249" y="168.445" type="curve" smooth="yes"/>
      <point x="282" y="166"/>
      <point x="293" y="157"/>
      <point x="299.249" y="140.445" type="curve" smooth="yes"/>
      <point x="305" y="124"/>
      <point x="303" y="110"/>
      <point x="292" y="97" type="curve" smooth="yes"/>
      <point x="281" y="84"/>
      <point x="268" y="79"/>
      <point x="250.751" y="81.5547" type="curve" smooth="yes"/>
      <point x="234" y="84"/>
      <point x="223" y="93"/>
      <point x="216.751" y="109.555" type="curve" smooth="yes"/>
      <point x="211" y="126"/>
      <point x="213" y="140"/>
    </contour>
    <contour>
      <point x="645" y="770.995" type="curve" smooth="yes"/>
      <point x="651.4" y="770.995"/>
      <point x="657.799" y="768.556"/>
      <point x="662.678" y="763.678" type="curve" smooth="yes"/>
      <point x="667.556" y="758.799"/>
      <point x="669.995" y="752.4"/>
      <point x="669.995" y="746" type="curve" smooth="yes"/>
      <point x="669.995" y="733.104"/>
      <point x="659.454" y="722.118"/>
      <point x="647.083" y="721.091" type="curve" smooth="yes"/>
      <point x="642.889" y="720.743"/>
      <point x="641.248" y="719.74"/>
      <point x="633.23" y="713.638" type="curve" smooth="yes"/>
      <point x="627.948" y="709.618"/>
      <point x="620.185" y="703.519"/>
      <point x="609.2" y="699.139" type="curve" smooth="yes"/>
      <point x="583.365" y="686.153"/>
      <point x="555.755" y="676.462"/>
      <point x="531.573" y="662.386" type="curve" smooth="yes"/>
      <point x="531.016" y="662.062"/>
      <point x="530.449" y="661.761"/>
      <point x="529.873" y="661.483" type="curve" smooth="yes"/>
      <point x="375.898" y="587.196"/>
      <point x="307.815" y="431.482"/>
      <point x="222.527" y="287.278" type="curve" smooth="yes"/>
      <point x="221.843" y="286.122"/>
      <point x="221.058" y="285.009"/>
      <point x="220.171" y="283.952" type="curve" smooth="yes"/>
      <point x="180.985" y="237.231"/>
      <point x="150.769" y="190.34"/>
      <point x="120.92" y="135.968" type="curve" smooth="yes"/>
      <point x="98.4582" y="95.054"/>
      <point x="82.6322" y="47.3995"/>
      <point x="71.1774" y="3.63905" type="curve" smooth="yes"/>
      <point x="68.5073" y="-6.56184"/>
      <point x="58.4749" y="-14.9951"/>
      <point x="47" y="-14.9951" type="curve" smooth="yes"/>
      <point x="40.6003" y="-14.9951"/>
      <point x="34.2006" y="-12.556"/>
      <point x="29.3223" y="-7.67767" type="curve" smooth="yes"/>
      <point x="24.444" y="-2.79938"/>
      <point x="22.0049" y="3.60031"/>
      <point x="22.0049" y="10" type="curve" smooth="yes"/>
      <point x="22.0049" y="12.1393"/>
      <point x="22.2775" y="14.2785"/>
      <point x="22.8226" y="16.361" type="curve" smooth="yes"/>
      <point x="34.8629" y="62.3584"/>
      <point x="51.6065" y="113.631"/>
      <point x="77.08" y="160.032" type="curve" smooth="yes"/>
      <point x="107.597" y="215.619"/>
      <point x="139.449" y="265.268"/>
      <point x="180.5" y="314.459" type="curve"/>
      <point x="242.296" y="419.202"/>
      <point x="292.601" y="527.038"/>
      <point x="380.513" y="614.95" type="curve" smooth="yes"/>
      <point x="416.232" y="650.669"/>
      <point x="457.71" y="682.062"/>
      <point x="507.268" y="706.101" type="curve" smooth="yes"/>
      <point x="534.765" y="721.979"/>
      <point x="560.91" y="730.714"/>
      <point x="587.682" y="744.297" type="curve" smooth="yes"/>
      <point x="588.497" y="744.71"/>
      <point x="589.329" y="745.076"/>
      <point x="590.175" y="745.394" type="curve" smooth="yes"/>
      <point x="594.017" y="746.839"/>
      <point x="597.355" y="749.174"/>
      <point x="602.985" y="753.459" type="curve" smooth="yes"/>
      <point x="610.42" y="759.118"/>
      <point x="623.466" y="769.294"/>
      <point x="642.917" y="770.909" type="curve" smooth="yes"/>
      <point x="643.61" y="770.966"/>
      <point x="644.305" y="770.995"/>
    </contour>
  </outline>
</glyph>
<glyph name="ampersand" format="2">
  <advance width="761"/>
  <unicode hex="0026"/>
  <outline>
    <contour>
      <point x="100" y="174" type="curve"/>
      <point x="100" y="212.667"/>
      <point x="115.333" y="252"/>
      <point x="146" y="292" type="curve" smooth="yes"/>
      <point x="176.667" y="332"/>
      <point x="218.667" y="367.333"/>
      <point x="272" y="398" type="curve"/>
      <point x="240.667" y="437.333"/>
      <point x="217" y="474"/>
      <point x="201" y="508" type="curve" smooth="yes"/>
      <point x="185" y="542"/>
      <point x="177" y="572"/>
      <point x="177" y="598" type="curve" smooth="yes"/>
      <point x="177" y="636"/>
      <point x="192.833" y="668.833"/>
      <point x="224.5" y="696.5" type="curve" smooth="yes"/>
      <point x="256.167" y="724.167"/>
      <point x="294" y="738"/>
      <point x="338" y="738" type="curve" smooth="yes"/>
      <point x="380.667" y="738"/>
      <point x="417.333" y="722.333"/>
      <point x="448" y="691" type="curve" smooth="yes"/>
      <point x="478.667" y="659.667"/>
      <point x="494" y="622"/>
      <point x="494" y="578" type="curve" smooth="yes"/>
      <point x="494" y="543.333"/>
      <point x="482" y="509.167"/>
      <point x="458" y="475.5" type="curve" smooth="yes"/>
      <point x="434" y="441.833"/>
      <point x="401.333" y="413"/>
      <point x="360" y="389" type="curve"/>
      <point x="505" y="200" type="line"/>
      <point x="510.333" y="221.333"/>
      <point x="514.5" y="241.5"/>
      <point x="517.5" y="260.5" type="curve" smooth="yes"/>
      <point x="520.5" y="279.5"/>
      <point x="522" y="297.333"/>
      <point x="522" y="314" type="curve"/>
      <point x="579" y="314" type="line"/>
      <point x="579" y="279.333"/>
      <point x="576.167" y="248"/>
      <point x="570.5" y="220" type="curve" smooth="yes"/>
      <point x="564.833" y="192"/>
      <point x="556.333" y="168.333"/>
      <point x="545" y="149" type="curve"/>
      <point x="662" y="-5" type="line"/>
      <point x="582" y="-5" type="line"/>
      <point x="502" y="89" type="line"/>
      <point x="480" y="57"/>
      <point x="451.5" y="32"/>
      <point x="416.5" y="14" type="curve" smooth="yes"/>
      <point x="381.5" y="-4"/>
      <point x="344.333" y="-13"/>
      <point x="305" y="-13" type="curve" smooth="yes"/>
      <point x="248.333" y="-13"/>
      <point x="200" y="5.33333"/>
      <point x="160" y="42" type="curve" smooth="yes"/>
      <point x="120" y="78.6667"/>
      <point x="100" y="122.667"/>
    </contour>
    <contour>
      <point x="166" y="184" type="curve"/>
      <point x="166" y="146"/>
      <point x="180.667" y="113.333"/>
      <point x="210" y="86" type="curve" smooth="yes"/>
      <point x="239.333" y="58.6667"/>
      <point x="274.667" y="45"/>
      <point x="316" y="45" type="curve" smooth="yes"/>
      <point x="345.333" y="45"/>
      <point x="373.833" y="53.5"/>
      <point x="401.5" y="70.5" type="curve" smooth="yes"/>
      <point x="429.167" y="87.5"/>
      <point x="453.333" y="110.667"/>
      <point x="474" y="140" type="curve"/>
      <point x="304" y="352" type="line"/>
      <point x="261.333" y="326.667"/>
      <point x="227.667" y="299.167"/>
      <point x="203" y="269.5" type="curve" smooth="yes"/>
      <point x="178.333" y="239.833"/>
      <point x="166" y="211.333"/>
    </contour>
    <contour>
      <point x="244" y="587" type="curve"/>
      <point x="244" y="570.333"/>
      <point x="250.667" y="548.833"/>
      <point x="264" y="522.5" type="curve" smooth="yes"/>
      <point x="277.333" y="496.167"/>
      <point x="296.667" y="466.667"/>
      <point x="322" y="434" type="curve"/>
      <point x="354" y="452.667"/>
      <point x="379.333" y="474.833"/>
      <point x="398" y="500.5" type="curve" smooth="yes"/>
      <point x="416.667" y="526.167"/>
      <point x="426" y="552"/>
      <point x="426" y="578" type="curve" smooth="yes"/>
      <point x="426" y="606.667"/>
      <point x="418" y="631.167"/>
      <point x="402" y="651.5" type="curve" smooth="yes"/>
      <point x="386" y="671.833"/>
      <point x="367" y="682"/>
      <point x="345" y="682" type="curve" smooth="yes"/>
      <point x="317.667" y="682"/>
      <point x="294" y="672.667"/>
      <point x="274" y="654" type="curve" smooth="yes"/>
      <point x="254" y="635.333"/>
      <point x="244" y="613"/>
    </contour>
  </outline>
</glyph>
<glyph name="quotesingle" format="2">
  <advance width="1000"/>
  <unicode hex="0027"/>
  <outline>
    <contour>
      <point x="647" y="658" type="line"/>
      <point x="647" y="654" type="line" smooth="yes"/>
      <point x="647" y="652.657"/>
      <point x="635.004" y="640"/>
      <point x="631" y="640" type="curve" smooth="yes"/>
      <point x="628.412" y="640"/>
      <point x="621.851" y="654.674"/>
      <point x="621" y="658" type="curve" smooth="yes"/>
      <point x="617.418" y="672"/>
      <point x="611.778" y="686"/>
      <point x="621" y="700" type="curve" smooth="yes"/>
      <point x="635.655" y="722.247"/>
      <point x="655.492" y="715.057"/>
      <point x="671" y="700" type="curve" smooth="yes"/>
      <point x="678.553" y="692.666"/>
      <point x="687" y="677.303"/>
      <point x="687" y="666" type="curve" smooth="yes"/>
      <point x="689.386" y="648.086"/>
      <point x="695.031" y="631.565"/>
      <point x="693" y="612" type="curve" smooth="yes"/>
      <point x="691.824" y="600.671"/>
      <point x="694.753" y="576"/>
      <point x="681" y="576" type="curve" smooth="yes"/>
      <point x="670.093" y="576"/>
      <point x="669.056" y="574"/>
      <point x="659" y="574" type="curve" smooth="yes"/>
      <point x="663" y="574" type="line" smooth="yes"/>
      <point x="685.268" y="572.618"/>
      <point x="679.265" y="599.024"/>
      <point x="677" y="616" type="curve" smooth="yes"/>
      <point x="672.625" y="648.792"/>
      <point x="660.814" y="652.458"/>
      <point x="653" y="660" type="curve" smooth="yes"/>
    </contour>
  </outline>
</glyph>
<glyph name="parenleft" format="2">
  <advance width="536"/>
  <unicode hex="0028"/>
  <outline>
    <contour>
      <point x="276" y="720" type="curve" smooth="yes"/>
      <point x="276" y="721"/>
      <point x="276" y="721"/>
      <point x="276" y="722" type="curve" smooth="yes"/>
      <point x="276" y="728"/>
      <point x="277" y="728"/>
      <point x="278" y="732" type="curve" smooth="yes"/>
      <point x="279" y="735"/>
      <point x="281" y="741"/>
      <point x="282" y="744" type="curve" smooth="yes"/>
      <point x="282" y="750"/>
      <point x="283" y="753"/>
      <point x="284" y="755" type="curve" smooth="yes"/>
      <point x="284" y="757"/>
      <point x="284" y="759"/>
      <point x="285" y="761" type="curve" smooth="yes"/>
      <point x="290" y="779"/>
      <point x="291" y="794"/>
      <point x="301" y="812" type="curve" smooth="yes"/>
      <point x="305" y="819"/>
      <point x="314" y="825"/>
      <point x="323" y="825" type="curve" smooth="yes"/>
      <point x="329" y="825"/>
      <point x="336" y="823"/>
      <point x="341" y="818" type="curve" smooth="yes"/>
      <point x="346" y="813"/>
      <point x="348" y="806"/>
      <point x="348" y="800" type="curve" smooth="yes"/>
      <point x="348" y="796"/>
      <point x="347" y="792"/>
      <point x="345" y="788" type="curve" smooth="yes"/>
      <point x="341" y="781"/>
      <point x="337" y="762"/>
      <point x="334" y="750" type="curve" smooth="yes"/>
      <point x="333" y="745"/>
      <point x="333" y="743"/>
      <point x="332" y="741" type="curve" smooth="yes"/>
      <point x="332" y="735"/>
      <point x="331" y="733"/>
      <point x="330" y="730" type="curve" smooth="yes"/>
      <point x="329" y="725"/>
      <point x="327" y="722"/>
      <point x="326" y="718" type="curve" smooth="yes"/>
      <point x="326" y="709"/>
      <point x="323" y="701"/>
      <point x="322" y="697" type="curve" smooth="yes"/>
      <point x="320" y="693"/>
      <point x="320" y="692"/>
      <point x="320" y="690" type="curve" smooth="yes"/>
      <point x="320" y="690"/>
      <point x="320" y="689"/>
      <point x="320" y="688" type="curve" smooth="yes"/>
      <point x="320" y="685"/>
      <point x="320" y="683"/>
      <point x="319" y="680" type="curve" smooth="yes"/>
      <point x="314" y="665"/>
      <point x="312" y="649"/>
      <point x="307" y="632" type="curve" smooth="yes"/>
      <point x="303" y="622"/>
      <point x="298" y="591"/>
      <point x="298" y="582" type="curve" smooth="yes"/>
      <point x="298" y="569"/>
      <point x="295" y="559"/>
      <point x="293" y="551" type="curve" smooth="yes"/>
      <point x="291" y="544"/>
      <point x="290" y="538"/>
      <point x="290" y="536" type="curve" smooth="yes"/>
      <point x="290" y="535"/>
      <point x="290" y="533"/>
      <point x="290" y="531" type="curve" smooth="yes"/>
      <point x="290" y="518"/>
      <point x="288" y="505"/>
      <point x="285" y="496" type="curve" smooth="yes"/>
      <point x="283" y="489"/>
      <point x="282" y="473"/>
      <point x="282" y="466" type="curve" smooth="yes"/>
      <point x="282" y="446"/>
      <point x="278" y="428"/>
      <point x="278" y="410" type="curve" smooth="yes"/>
      <point x="278" y="407"/>
      <point x="278" y="405"/>
      <point x="278" y="402" type="curve" smooth="yes"/>
      <point x="284" y="328"/>
      <point x="296" y="241"/>
      <point x="296" y="166" type="curve" smooth="yes"/>
      <point x="296" y="160"/>
      <point x="298" y="152"/>
      <point x="298" y="145" type="curve" smooth="yes"/>
      <point x="308" y="97"/>
      <point x="315" y="47"/>
      <point x="325" y="0" type="curve" smooth="yes"/>
      <point x="339" y="-62"/>
      <point x="359" y="-123"/>
      <point x="377" y="-182" type="curve"/>
      <point x="384" y="-201" type="line" smooth="yes"/>
      <point x="385" y="-204"/>
      <point x="386" y="-207"/>
      <point x="386" y="-210" type="curve" smooth="yes"/>
      <point x="386" y="-216"/>
      <point x="384" y="-223"/>
      <point x="379" y="-228" type="curve" smooth="yes"/>
      <point x="374" y="-233"/>
      <point x="367" y="-235"/>
      <point x="361" y="-235" type="curve" smooth="yes"/>
      <point x="351" y="-235"/>
      <point x="341" y="-228"/>
      <point x="338" y="-219" type="curve" smooth="yes"/>
      <point x="330" y="-199" type="line" smooth="yes"/>
      <point x="330" y="-199"/>
      <point x="329" y="-198"/>
      <point x="329" y="-197" type="curve" smooth="yes"/>
      <point x="311" y="-137"/>
      <point x="291" y="-76"/>
      <point x="277" y="-12" type="curve" smooth="yes"/>
      <point x="265" y="38"/>
      <point x="258" y="88"/>
      <point x="249" y="137" type="curve" smooth="yes"/>
      <point x="248" y="139"/>
      <point x="248" y="140"/>
      <point x="248" y="142" type="curve" smooth="yes"/>
      <point x="248" y="149"/>
      <point x="246" y="157"/>
      <point x="246" y="166" type="curve" smooth="yes"/>
      <point x="246" y="237"/>
      <point x="234" y="325"/>
      <point x="228" y="398" type="curve" smooth="yes"/>
      <point x="228" y="402"/>
      <point x="228" y="406"/>
      <point x="228" y="410" type="curve" smooth="yes"/>
      <point x="228" y="430"/>
      <point x="232" y="447"/>
      <point x="232" y="466" type="curve" smooth="yes"/>
      <point x="232" y="478"/>
      <point x="233" y="494"/>
      <point x="237" y="508" type="curve" smooth="yes"/>
      <point x="238" y="515"/>
      <point x="240" y="525"/>
      <point x="240" y="532" type="curve" smooth="yes"/>
      <point x="240" y="534"/>
      <point x="240" y="535"/>
      <point x="240" y="536" type="curve" smooth="yes"/>
      <point x="240" y="553"/>
      <point x="248" y="568"/>
      <point x="248" y="582" type="curve" smooth="yes"/>
      <point x="248" y="601"/>
      <point x="254" y="630"/>
      <point x="259" y="648" type="curve" smooth="yes"/>
      <point x="264" y="661"/>
      <point x="266" y="677"/>
      <point x="270" y="692" type="curve" smooth="yes"/>
      <point x="270" y="701"/>
      <point x="273" y="709"/>
      <point x="274" y="713" type="curve" smooth="yes"/>
      <point x="276" y="717"/>
      <point x="276" y="718"/>
    </contour>
  </outline>
</glyph>
<glyph name="parenright" format="2">
  <advance width="536"/>
  <unicode hex="0029"/>
  <outline>
    <contour>
      <point x="338" y="-130" type="curve" smooth="yes"/>
      <point x="338" y="-131"/>
      <point x="338" y="-131"/>
      <point x="338" y="-132" type="curve" smooth="yes"/>
      <point x="338" y="-138"/>
      <point x="337" y="-138"/>
      <point x="336" y="-142" type="curve" smooth="yes"/>
      <point x="335" y="-145"/>
      <point x="332" y="-151"/>
      <point x="332" y="-154" type="curve" smooth="yes"/>
      <point x="331" y="-160"/>
      <point x="330" y="-163"/>
      <point x="330" y="-165" type="curve" smooth="yes"/>
      <point x="329" y="-167"/>
      <point x="329" y="-169"/>
      <point x="329" y="-171" type="curve" smooth="yes"/>
      <point x="323" y="-189"/>
      <point x="322" y="-204"/>
      <point x="313" y="-222" type="curve" smooth="yes"/>
      <point x="309" y="-229"/>
      <point x="300" y="-235"/>
      <point x="291" y="-235" type="curve" smooth="yes"/>
      <point x="284" y="-235"/>
      <point x="278" y="-233"/>
      <point x="273" y="-228" type="curve" smooth="yes"/>
      <point x="268" y="-223"/>
      <point x="266" y="-216"/>
      <point x="266" y="-210" type="curve" smooth="yes"/>
      <point x="266" y="-206"/>
      <point x="267" y="-202"/>
      <point x="269" y="-198" type="curve" smooth="yes"/>
      <point x="273" y="-191"/>
      <point x="276" y="-172"/>
      <point x="280" y="-160" type="curve" smooth="yes"/>
      <point x="280" y="-155"/>
      <point x="281" y="-153"/>
      <point x="282" y="-151" type="curve" smooth="yes"/>
      <point x="282" y="-145"/>
      <point x="283" y="-143"/>
      <point x="284" y="-140" type="curve" smooth="yes"/>
      <point x="285" y="-135"/>
      <point x="286" y="-132"/>
      <point x="288" y="-128" type="curve" smooth="yes"/>
      <point x="288" y="-119"/>
      <point x="291" y="-111"/>
      <point x="292" y="-107" type="curve" smooth="yes"/>
      <point x="293" y="-103"/>
      <point x="294" y="-102"/>
      <point x="294" y="-100" type="curve" smooth="yes"/>
      <point x="294" y="-100"/>
      <point x="294" y="-99"/>
      <point x="294" y="-98" type="curve" smooth="yes"/>
      <point x="294" y="-95"/>
      <point x="294" y="-93"/>
      <point x="295" y="-90" type="curve" smooth="yes"/>
      <point x="300" y="-75"/>
      <point x="301" y="-59"/>
      <point x="307" y="-42" type="curve" smooth="yes"/>
      <point x="310" y="-32"/>
      <point x="316" y="-1"/>
      <point x="316" y="8" type="curve" smooth="yes"/>
      <point x="316" y="21"/>
      <point x="319" y="31"/>
      <point x="321" y="39" type="curve" smooth="yes"/>
      <point x="322" y="46"/>
      <point x="323" y="52"/>
      <point x="324" y="54" type="curve" smooth="yes"/>
      <point x="324" y="55"/>
      <point x="323" y="57"/>
      <point x="323" y="59" type="curve" smooth="yes"/>
      <point x="323" y="72"/>
      <point x="326" y="85"/>
      <point x="328" y="94" type="curve" smooth="yes"/>
      <point x="330" y="101"/>
      <point x="332" y="117"/>
      <point x="332" y="124" type="curve" smooth="yes"/>
      <point x="332" y="144"/>
      <point x="336" y="162"/>
      <point x="336" y="180" type="curve" smooth="yes"/>
      <point x="336" y="183"/>
      <point x="336" y="185"/>
      <point x="336" y="188" type="curve" smooth="yes"/>
      <point x="330" y="262"/>
      <point x="318" y="349"/>
      <point x="318" y="424" type="curve" smooth="yes"/>
      <point x="318" y="430"/>
      <point x="316" y="438"/>
      <point x="316" y="445" type="curve" smooth="yes"/>
      <point x="306" y="493"/>
      <point x="299" y="543"/>
      <point x="288" y="590" type="curve" smooth="yes"/>
      <point x="274" y="652"/>
      <point x="255" y="713"/>
      <point x="237" y="772" type="curve"/>
      <point x="229" y="791" type="line" smooth="yes"/>
      <point x="228" y="794"/>
      <point x="228" y="797"/>
      <point x="228" y="800" type="curve" smooth="yes"/>
      <point x="228" y="806"/>
      <point x="230" y="813"/>
      <point x="235" y="818" type="curve" smooth="yes"/>
      <point x="240" y="823"/>
      <point x="246" y="825"/>
      <point x="253" y="825" type="curve" smooth="yes"/>
      <point x="263" y="825"/>
      <point x="272" y="818"/>
      <point x="276" y="809" type="curve" smooth="yes"/>
      <point x="284" y="789" type="line" smooth="yes"/>
      <point x="284" y="789"/>
      <point x="284" y="788"/>
      <point x="285" y="787" type="curve" smooth="yes"/>
      <point x="303" y="727"/>
      <point x="322" y="666"/>
      <point x="337" y="602" type="curve" smooth="yes"/>
      <point x="348" y="552"/>
      <point x="355" y="502"/>
      <point x="365" y="453" type="curve" smooth="yes"/>
      <point x="365" y="451"/>
      <point x="366" y="450"/>
      <point x="366" y="448" type="curve" smooth="yes"/>
      <point x="366" y="441"/>
      <point x="368" y="433"/>
      <point x="368" y="424" type="curve" smooth="yes"/>
      <point x="368" y="353"/>
      <point x="380" y="265"/>
      <point x="386" y="192" type="curve" smooth="yes"/>
      <point x="386" y="188"/>
      <point x="386" y="184"/>
      <point x="386" y="180" type="curve" smooth="yes"/>
      <point x="386" y="160"/>
      <point x="382" y="143"/>
      <point x="382" y="124" type="curve" smooth="yes"/>
      <point x="382" y="112"/>
      <point x="381" y="96"/>
      <point x="377" y="82" type="curve" smooth="yes"/>
      <point x="375" y="75"/>
      <point x="373" y="65"/>
      <point x="373" y="58" type="curve" smooth="yes"/>
      <point x="373" y="56"/>
      <point x="374" y="55"/>
      <point x="374" y="54" type="curve" smooth="yes"/>
      <point x="374" y="37"/>
      <point x="366" y="22"/>
      <point x="366" y="8" type="curve" smooth="yes"/>
      <point x="366" y="-11"/>
      <point x="360" y="-40"/>
      <point x="354" y="-58" type="curve" smooth="yes"/>
      <point x="350" y="-71"/>
      <point x="348" y="-87"/>
      <point x="344" y="-102" type="curve" smooth="yes"/>
      <point x="343" y="-111"/>
      <point x="341" y="-119"/>
      <point x="339" y="-123" type="curve" smooth="yes"/>
      <point x="338" y="-127"/>
      <point x="338" y="-128"/>
    </contour>
  </outline>
</glyph>
<glyph name="asterisk" format="2">
  <advance width="420"/>
  <unicode hex="002A"/>
  <outline>
    <contour>
      <point x="169" y="530" type="line" smooth="yes"/>
      <point x="169" y="536"/>
      <point x="171" y="543"/>
      <point x="176" y="548" type="curve" smooth="yes"/>
      <point x="181" y="553"/>
      <point x="188" y="555"/>
      <point x="194" y="555" type="curve" smooth="yes"/>
      <point x="200" y="555"/>
      <point x="207" y="553"/>
      <point x="212" y="548" type="curve" smooth="yes"/>
      <point x="217" y="543"/>
      <point x="219" y="536"/>
      <point x="219" y="530" type="curve" smooth="yes"/>
      <point x="219" y="522" type="line" smooth="yes"/>
      <point x="219" y="495"/>
      <point x="221" y="466"/>
      <point x="224" y="437" type="curve"/>
      <point x="255" y="458"/>
      <point x="278" y="484"/>
      <point x="295" y="521" type="curve" smooth="yes"/>
      <point x="299" y="529"/>
      <point x="308" y="535"/>
      <point x="318" y="535" type="curve" smooth="yes"/>
      <point x="324" y="535"/>
      <point x="329" y="533"/>
      <point x="333" y="530" type="curve" smooth="yes"/>
      <point x="341" y="526"/>
      <point x="347" y="518"/>
      <point x="347" y="508" type="curve" smooth="yes"/>
      <point x="347" y="499"/>
      <point x="341" y="490"/>
      <point x="334" y="486" type="curve"/>
      <point x="319" y="459"/>
      <point x="301" y="436"/>
      <point x="280" y="417" type="curve"/>
      <point x="313" y="417"/>
      <point x="345" y="416"/>
      <point x="377" y="415" type="curve" smooth="yes"/>
      <point x="383" y="415"/>
      <point x="389" y="412"/>
      <point x="394" y="408" type="curve" smooth="yes"/>
      <point x="399" y="403"/>
      <point x="401" y="396"/>
      <point x="401" y="390" type="curve" smooth="yes"/>
      <point x="401" y="384"/>
      <point x="399" y="377"/>
      <point x="394" y="372" type="curve" smooth="yes"/>
      <point x="389" y="367"/>
      <point x="382" y="365"/>
      <point x="376" y="365" type="curve" smooth="yes"/>
      <point x="376" y="365"/>
      <point x="375" y="365"/>
      <point x="375" y="365" type="curve" smooth="yes"/>
      <point x="340" y="366"/>
      <point x="305" y="367"/>
      <point x="268" y="367" type="curve"/>
      <point x="288" y="347"/>
      <point x="309" y="326"/>
      <point x="330" y="306" type="curve" smooth="yes"/>
      <point x="335" y="301"/>
      <point x="337" y="294"/>
      <point x="337" y="288" type="curve" smooth="yes"/>
      <point x="337" y="282"/>
      <point x="335" y="275"/>
      <point x="330" y="270" type="curve" smooth="yes"/>
      <point x="325" y="265"/>
      <point x="318" y="263"/>
      <point x="312" y="263" type="curve" smooth="yes"/>
      <point x="306" y="263"/>
      <point x="299" y="265"/>
      <point x="294" y="270" type="curve" smooth="yes"/>
      <point x="275" y="290"/>
      <point x="256" y="309"/>
      <point x="236" y="328" type="curve"/>
      <point x="239" y="309"/>
      <point x="241" y="290"/>
      <point x="243" y="270" type="curve" smooth="yes"/>
      <point x="243" y="270"/>
      <point x="243" y="269"/>
      <point x="243" y="268" type="curve" smooth="yes"/>
      <point x="243" y="262"/>
      <point x="241" y="255"/>
      <point x="236" y="250" type="curve" smooth="yes"/>
      <point x="231" y="245"/>
      <point x="224" y="243"/>
      <point x="218" y="243" type="curve" smooth="yes"/>
      <point x="205" y="243"/>
      <point x="194" y="253"/>
      <point x="193" y="266" type="curve" smooth="yes"/>
      <point x="190" y="293"/>
      <point x="187" y="322"/>
      <point x="183" y="351" type="curve"/>
      <point x="178" y="347"/>
      <point x="173" y="342"/>
      <point x="169" y="338" type="curve" smooth="yes"/>
      <point x="160" y="329"/>
      <point x="154" y="321"/>
      <point x="153" y="320" type="curve" smooth="yes"/>
      <point x="151" y="317"/>
      <point x="149" y="313"/>
      <point x="146" y="311" type="curve" smooth="yes"/>
      <point x="102" y="273" type="line" smooth="yes"/>
      <point x="98" y="269"/>
      <point x="92" y="267"/>
      <point x="86" y="267" type="curve" smooth="yes"/>
      <point x="80" y="267"/>
      <point x="73" y="269"/>
      <point x="68" y="274" type="curve" smooth="yes"/>
      <point x="63" y="279"/>
      <point x="61" y="286"/>
      <point x="61" y="292" type="curve" smooth="yes"/>
      <point x="61" y="299"/>
      <point x="64" y="306"/>
      <point x="70" y="311" type="curve" smooth="yes"/>
      <point x="110" y="346" type="line"/>
      <point x="116" y="354"/>
      <point x="122" y="361"/>
      <point x="129" y="368" type="curve"/>
      <point x="50" y="369" type="line" smooth="yes"/>
      <point x="43" y="369"/>
      <point x="37" y="371"/>
      <point x="32" y="376" type="curve" smooth="yes"/>
      <point x="27" y="381"/>
      <point x="25" y="388"/>
      <point x="25" y="394" type="curve" smooth="yes"/>
      <point x="25" y="400"/>
      <point x="27" y="407"/>
      <point x="32" y="412" type="curve" smooth="yes"/>
      <point x="37" y="417"/>
      <point x="44" y="419"/>
      <point x="50" y="419" type="curve" smooth="yes"/>
      <point x="123" y="418" type="line"/>
      <point x="105" y="437"/>
      <point x="91" y="461"/>
      <point x="73" y="478" type="curve" smooth="yes"/>
      <point x="71" y="480"/>
      <point x="69" y="482"/>
      <point x="66" y="484" type="curve" smooth="yes"/>
      <point x="61" y="489"/>
      <point x="59" y="496"/>
      <point x="59" y="502" type="curve" smooth="yes"/>
      <point x="59" y="508"/>
      <point x="61" y="515"/>
      <point x="66" y="520" type="curve" smooth="yes"/>
      <point x="71" y="525"/>
      <point x="78" y="527"/>
      <point x="84" y="527" type="curve" smooth="yes"/>
      <point x="90" y="527"/>
      <point x="96" y="525"/>
      <point x="100" y="521" type="curve" smooth="yes"/>
      <point x="114" y="510"/>
      <point x="125" y="494"/>
      <point x="135" y="482" type="curve" smooth="yes"/>
      <point x="143" y="471"/>
      <point x="151" y="462"/>
      <point x="158" y="455" type="curve" smooth="yes"/>
      <point x="163" y="450"/>
      <point x="168" y="446"/>
      <point x="173" y="443" type="curve"/>
      <point x="171" y="470"/>
      <point x="169" y="496"/>
      <point x="169" y="522" type="curve" smooth="yes"/>
    </contour>
  </outline>
</glyph>
<glyph name="plus" format="2">
  <advance width="390"/>
  <unicode hex="002B"/>
  <outline>
    <contour>
      <point x="165.802" y="278.678" type="curve" smooth="yes"/>
      <point x="165.802" y="298.613"/>
      <point x="164.15" y="319.457"/>
      <point x="164.15" y="339.916" type="curve" smooth="yes"/>
      <point x="164.15" y="342.796"/>
      <point x="164.183" y="345.689"/>
      <point x="164.257" y="348.594" type="curve"/>
      <point x="143.523" y="347.433"/>
      <point x="124.177" y="344.472"/>
      <point x="105.195" y="338.676" type="curve"/>
      <point x="52.8555" y="313.475" type="line" smooth="yes"/>
      <point x="49.4355" y="311.828"/>
      <point x="45.7178" y="311.005"/>
      <point x="42" y="311.005" type="curve" smooth="yes"/>
      <point x="35.6006" y="311.005"/>
      <point x="29.2002" y="313.444"/>
      <point x="24.3223" y="318.322" type="curve" smooth="yes"/>
      <point x="19.4443" y="323.2"/>
      <point x="17.0049" y="329.601"/>
      <point x="17.0049" y="336" type="curve" smooth="yes"/>
      <point x="17.0049" y="345.66"/>
      <point x="23.1992" y="354.699"/>
      <point x="31.1445" y="358.525" type="curve" smooth="yes"/>
      <point x="85.1445" y="384.525" type="line" smooth="yes"/>
      <point x="86.2266" y="385.046"/>
      <point x="87.3389" y="385.485"/>
      <point x="88.4707" y="385.841" type="curve" smooth="yes"/>
      <point x="112.063" y="393.261"/>
      <point x="135.542" y="396.914"/>
      <point x="159.31" y="398.379" type="curve"/>
      <point x="151.601" y="450.133" type="line"/>
      <point x="145.055" y="469.772"/>
      <point x="139.638" y="490.857"/>
      <point x="133.934" y="511.229" type="curve" smooth="yes"/>
      <point x="133.314" y="513.44"/>
      <point x="133.005" y="515.72"/>
      <point x="133.005" y="518" type="curve" smooth="yes"/>
      <point x="133.005" y="524.399"/>
      <point x="135.444" y="530.8"/>
      <point x="140.322" y="535.678" type="curve" smooth="yes"/>
      <point x="145.2" y="540.556"/>
      <point x="151.601" y="542.995"/>
      <point x="158" y="542.995" type="curve" smooth="yes"/>
      <point x="169.321" y="542.995"/>
      <point x="179.27" y="534.761"/>
      <point x="182.066" y="524.771" type="curve" smooth="yes"/>
      <point x="187.984" y="504.528"/>
      <point x="193.051" y="483.434"/>
      <point x="199.71" y="463.934" type="curve" smooth="yes"/>
      <point x="200.171" y="462.551"/>
      <point x="200.508" y="461.137"/>
      <point x="200.721" y="459.707" type="curve" smooth="yes"/>
      <point x="209.795" y="398.776" type="line"/>
      <point x="228.965" y="398.132"/>
      <point x="253.6" y="396.697"/>
      <point x="270.704" y="394.85" type="curve" smooth="yes"/>
      <point x="273.729" y="394.522"/>
      <point x="276.706" y="393.646"/>
      <point x="279.472" y="392.219" type="curve" smooth="yes"/>
      <point x="304.062" y="379.617"/>
      <point x="328.397" y="366.763"/>
      <point x="353.188" y="354.362" type="curve" smooth="yes"/>
      <point x="360.963" y="350.475"/>
      <point x="366.995" y="341.514"/>
      <point x="366.995" y="332" type="curve" smooth="yes"/>
      <point x="366.995" y="325.601"/>
      <point x="364.556" y="319.2"/>
      <point x="359.678" y="314.322" type="curve" smooth="yes"/>
      <point x="354.8" y="309.444"/>
      <point x="348.399" y="307.005"/>
      <point x="342" y="307.005" type="curve" smooth="yes"/>
      <point x="338.161" y="307.005"/>
      <point x="334.322" y="307.883"/>
      <point x="330.812" y="309.638" type="curve" smooth="yes"/>
      <point x="307.232" y="321.408"/>
      <point x="284.11" y="333.637"/>
      <point x="260.735" y="345.61" type="curve"/>
      <point x="247.634" y="346.852"/>
      <point x="229.543" y="347.947"/>
      <point x="214.283" y="348.577" type="curve"/>
      <point x="214.205" y="345.826"/>
      <point x="214.17" y="343.02"/>
      <point x="214.17" y="340.163" type="curve" smooth="yes"/>
      <point x="214.17" y="319.325"/>
      <point x="216.001" y="297.711"/>
      <point x="216.001" y="276.282" type="curve" smooth="yes"/>
      <point x="216.001" y="256.537"/>
      <point x="214.362" y="236.115"/>
      <point x="207.722" y="216.1" type="curve" smooth="yes"/>
      <point x="206.535" y="212.524"/>
      <point x="204.521" y="209.165"/>
      <point x="201.678" y="206.322" type="curve" smooth="yes"/>
      <point x="181.678" y="186.322" type="line" smooth="yes"/>
      <point x="176.8" y="181.444"/>
      <point x="170.399" y="179.005"/>
      <point x="164" y="179.005" type="curve" smooth="yes"/>
      <point x="157.601" y="179.005"/>
      <point x="151.2" y="181.444"/>
      <point x="146.322" y="186.322" type="curve" smooth="yes"/>
      <point x="141.444" y="191.2"/>
      <point x="139.005" y="197.601"/>
      <point x="139.005" y="204" type="curve" smooth="yes"/>
      <point x="139.005" y="210.399"/>
      <point x="141.444" y="216.8"/>
      <point x="146.322" y="221.678" type="curve" smooth="yes"/>
      <point x="161.821" y="237.177" type="line"/>
      <point x="164.861" y="249.042"/>
      <point x="165.802" y="263.115"/>
    </contour>
  </outline>
</glyph>
<glyph name="comma" format="2">
  <advance width="1000"/>
  <unicode hex="002C"/>
  <outline>
    <contour>
      <point x="488" y="222" type="curve" smooth="yes"/>
      <point x="467" y="231" type="line"/>
      <point x="467" y="243" type="line" smooth="yes"/>
      <point x="467" y="256"/>
      <point x="477" y="264"/>
      <point x="491" y="264" type="curve" smooth="yes"/>
      <point x="504" y="264"/>
      <point x="514" y="261"/>
      <point x="527" y="261" type="curve" smooth="yes"/>
      <point x="593" y="261"/>
      <point x="563" y="185"/>
      <point x="572" y="141" type="curve" smooth="yes"/>
      <point x="592" y="43"/>
      <point x="518" y="-3"/>
      <point x="461" y="-57" type="curve" smooth="yes"/>
      <point x="389" y="-126"/>
      <point x="475" y="-66"/>
      <point x="518" y="-48" type="curve" smooth="yes"/>
      <point x="633" y="-11"/>
      <point x="617" y="107"/>
      <point x="614" y="204" type="curve"/>
      <point x="634" y="290"/>
      <point x="562" y="351"/>
      <point x="476" y="333" type="curve"/>
      <point x="443" y="338"/>
      <point x="414" y="312"/>
      <point x="413" y="282" type="curve" smooth="yes"/>
      <point x="413" y="253"/>
      <point x="421" y="201"/>
      <point x="455" y="201" type="curve"/>
      <point x="475" y="195"/>
      <point x="482" y="211"/>
    </contour>
  </outline>
</glyph>
<glyph name="hyphen" format="2">
  <advance width="384"/>
  <unicode hex="002D"/>
  <outline>
    <contour>
      <point x="73" y="293" type="curve" smooth="yes"/>
      <point x="67" y="293"/>
      <point x="60" y="295"/>
      <point x="55" y="300" type="curve" smooth="yes"/>
      <point x="50" y="305"/>
      <point x="48" y="312"/>
      <point x="48" y="318" type="curve" smooth="yes"/>
      <point x="48" y="329"/>
      <point x="56" y="339"/>
      <point x="67" y="342" type="curve" smooth="yes"/>
      <point x="78" y="345"/>
      <point x="89" y="350"/>
      <point x="105" y="351" type="curve" smooth="yes"/>
      <point x="135" y="353"/>
      <point x="153" y="361"/>
      <point x="185" y="361" type="curve" smooth="yes"/>
      <point x="187" y="361"/>
      <point x="190" y="361"/>
      <point x="192" y="361" type="curve" smooth="yes"/>
      <point x="212" y="360"/>
      <point x="226" y="359"/>
      <point x="245" y="354" type="curve" smooth="yes"/>
      <point x="247" y="354"/>
      <point x="248" y="353"/>
      <point x="249" y="353" type="curve" smooth="yes"/>
      <point x="307" y="327" type="line" smooth="yes"/>
      <point x="308" y="327"/>
      <point x="309" y="326"/>
      <point x="309" y="326" type="curve" smooth="yes"/>
      <point x="341" y="308" type="line" smooth="yes"/>
      <point x="348" y="304"/>
      <point x="354" y="295"/>
      <point x="354" y="286" type="curve" smooth="yes"/>
      <point x="354" y="280"/>
      <point x="352" y="273"/>
      <point x="347" y="268" type="curve" smooth="yes"/>
      <point x="342" y="263"/>
      <point x="335" y="261"/>
      <point x="329" y="261" type="curve" smooth="yes"/>
      <point x="325" y="261"/>
      <point x="321" y="262"/>
      <point x="317" y="264" type="curve" smooth="yes"/>
      <point x="286" y="282" type="line"/>
      <point x="231" y="306" type="line"/>
      <point x="217" y="310"/>
      <point x="210" y="310"/>
      <point x="190" y="311" type="curve" smooth="yes"/>
      <point x="188" y="311"/>
      <point x="186" y="311"/>
      <point x="185" y="311" type="curve" smooth="yes"/>
      <point x="173" y="311"/>
      <point x="163" y="309"/>
      <point x="150" y="307" type="curve" smooth="yes"/>
      <point x="139" y="305"/>
      <point x="125" y="302"/>
      <point x="109" y="301" type="curve" smooth="yes"/>
      <point x="103" y="301"/>
      <point x="88" y="296"/>
      <point x="79" y="294" type="curve" smooth="yes"/>
      <point x="77" y="293"/>
      <point x="75" y="293"/>
    </contour>
  </outline>
</glyph>
<glyph name="period" format="2">
  <advance width="134"/>
  <unicode hex="002E"/>
  <outline>
    <contour>
      <point x="30" y="104" type="curve" smooth="yes"/>
      <point x="41" y="117"/>
      <point x="54" y="122"/>
      <point x="71" y="119" type="curve" smooth="yes"/>
      <point x="88" y="117"/>
      <point x="99" y="108"/>
      <point x="105" y="91" type="curve" smooth="yes"/>
      <point x="111" y="75"/>
      <point x="109" y="61"/>
      <point x="98" y="48" type="curve" smooth="yes"/>
      <point x="87" y="35"/>
      <point x="74" y="30"/>
      <point x="57" y="33" type="curve" smooth="yes"/>
      <point x="40" y="35"/>
      <point x="29" y="44"/>
      <point x="23" y="61" type="curve" smooth="yes"/>
      <point x="17" y="77"/>
      <point x="19" y="91"/>
    </contour>
  </outline>
</glyph>
<glyph name="slash" format="2">
  <advance width="672"/>
  <unicode hex="002F"/>
  <outline>
    <contour>
      <point x="100" y="-180" type="line"/>
      <point x="493" y="886" type="line"/>
      <point x="573" y="886" type="line"/>
      <point x="180" y="-180" type="line"/>
    </contour>
  </outline>
</glyph>
<glyph name="zero" format="2">
  <advance width="633"/>
  <unicode hex="0030"/>
  <outline>
    <contour>
      <point x="65" y="350" type="curve"/>
      <point x="65" y="441.333"/>
      <point x="87.6667" y="521.167"/>
      <point x="133" y="589.5" type="curve" smooth="yes"/>
      <point x="178.333" y="657.833"/>
      <point x="239.667" y="692"/>
      <point x="317" y="692" type="curve" smooth="yes"/>
      <point x="394.333" y="692"/>
      <point x="455.667" y="657.833"/>
      <point x="501" y="589.5" type="curve" smooth="yes"/>
      <point x="546.333" y="521.167"/>
      <point x="569" y="441.333"/>
      <point x="569" y="350" type="curve" smooth="yes"/>
      <point x="569" y="256"/>
      <point x="546.5" y="174.167"/>
      <point x="501.5" y="104.5" type="curve" smooth="yes"/>
      <point x="456.5" y="34.8333"/>
      <point x="395" y="0"/>
      <point x="317" y="0" type="curve" smooth="yes"/>
      <point x="239" y="0"/>
      <point x="177.5" y="34.8333"/>
      <point x="132.5" y="104.5" type="curve" smooth="yes"/>
      <point x="87.5" y="174.167"/>
      <point x="65" y="256"/>
    </contour>
    <contour>
      <point x="136" y="350" type="curve"/>
      <point x="136" y="274.667"/>
      <point x="151.333" y="209.333"/>
      <point x="182" y="154" type="curve" smooth="yes"/>
      <point x="212.667" y="98.6667"/>
      <point x="257.667" y="71"/>
      <point x="317" y="71" type="curve" smooth="yes"/>
      <point x="376.333" y="71"/>
      <point x="421.5" y="98.6667"/>
      <point x="452.5" y="154" type="curve" smooth="yes"/>
      <point x="483.5" y="209.333"/>
      <point x="499" y="274.667"/>
      <point x="499" y="350" type="curve" smooth="yes"/>
      <point x="499" y="422.667"/>
      <point x="483.333" y="486.167"/>
      <point x="452" y="540.5" type="curve" smooth="yes"/>
      <point x="420.667" y="594.833"/>
      <point x="375.667" y="622"/>
      <point x="317" y="622" type="curve" smooth="yes"/>
      <point x="258.333" y="622"/>
      <point x="213.5" y="594.833"/>
      <point x="182.5" y="540.5" type="curve" smooth="yes"/>
      <point x="151.5" y="486.167"/>
      <point x="136" y="422.667"/>
    </contour>
  </outline>
</glyph>
<glyph name="one" format="2">
  <advance width="458"/>
  <unicode hex="0031"/>
  <outline>
    <contour>
      <point x="253" y="751" type="curve" smooth="yes"/>
      <point x="251" y="751"/>
      <point x="249" y="751"/>
      <point x="247" y="751" type="curve" smooth="yes"/>
      <point x="240" y="751"/>
      <point x="235" y="750"/>
      <point x="231" y="748" type="curve" smooth="yes"/>
      <point x="224" y="745"/>
      <point x="217" y="740"/>
      <point x="207" y="732" type="curve" smooth="yes"/>
      <point x="202" y="728"/>
      <point x="195" y="722"/>
      <point x="186" y="717" type="curve" smooth="yes"/>
      <point x="186" y="717"/>
      <point x="185" y="716"/>
      <point x="185" y="716" type="curve" smooth="yes"/>
      <point x="169" y="707"/>
      <point x="158" y="694"/>
      <point x="146" y="680" type="curve" smooth="yes"/>
      <point x="145" y="679"/>
      <point x="144" y="678"/>
      <point x="143" y="677" type="curve" smooth="yes"/>
      <point x="132" y="665"/>
      <point x="122" y="648"/>
      <point x="109" y="635" type="curve" smooth="yes"/>
      <point x="106" y="629"/>
      <point x="101" y="622"/>
      <point x="95" y="615" type="curve" smooth="yes"/>
      <point x="89" y="610"/>
      <point x="81" y="604"/>
      <point x="70" y="601" type="curve" smooth="yes"/>
      <point x="68" y="601"/>
      <point x="67" y="601"/>
      <point x="65" y="601" type="curve" smooth="yes"/>
      <point x="61" y="601" type="line" smooth="yes"/>
      <point x="55" y="601"/>
      <point x="48" y="603"/>
      <point x="43" y="608" type="curve" smooth="yes"/>
      <point x="38" y="613"/>
      <point x="36" y="620"/>
      <point x="36" y="626" type="curve" smooth="yes"/>
      <point x="36" y="632"/>
      <point x="38" y="639"/>
      <point x="43" y="644" type="curve" smooth="yes"/>
      <point x="48" y="648"/>
      <point x="54" y="651"/>
      <point x="60" y="651" type="curve" smooth="yes"/>
      <point x="62" y="653"/>
      <point x="65" y="657"/>
      <point x="67" y="662" type="curve" smooth="yes"/>
      <point x="68" y="664"/>
      <point x="70" y="666"/>
      <point x="72" y="668" type="curve" smooth="yes"/>
      <point x="76" y="673"/>
      <point x="81" y="679"/>
      <point x="87" y="687" type="curve" smooth="yes"/>
      <point x="93" y="695"/>
      <point x="100" y="704"/>
      <point x="109" y="713" type="curve" smooth="yes"/>
      <point x="124" y="731"/>
      <point x="138" y="748"/>
      <point x="160" y="760" type="curve" smooth="yes"/>
      <point x="178" y="771"/>
      <point x="188" y="785"/>
      <point x="211" y="794" type="curve" smooth="yes"/>
      <point x="222" y="799"/>
      <point x="234" y="801"/>
      <point x="248" y="801" type="curve" smooth="yes"/>
      <point x="249" y="801"/>
      <point x="251" y="801"/>
      <point x="252" y="801" type="curve" smooth="yes"/>
      <point x="256" y="801"/>
      <point x="259" y="802"/>
      <point x="262" y="802" type="curve" smooth="yes"/>
      <point x="284" y="802"/>
      <point x="307" y="795"/>
      <point x="324" y="777" type="curve" smooth="yes"/>
      <point x="329" y="772"/>
      <point x="332" y="768"/>
      <point x="337" y="763" type="curve" smooth="yes"/>
      <point x="344" y="756"/>
      <point x="350" y="751"/>
      <point x="357" y="741" type="curve" smooth="yes"/>
      <point x="360" y="736"/>
      <point x="364" y="729"/>
      <point x="364" y="719" type="curve" smooth="yes"/>
      <point x="365" y="713"/>
      <point x="368" y="709"/>
      <point x="368" y="700" type="curve" smooth="yes"/>
      <point x="368" y="697"/>
      <point x="369" y="694"/>
      <point x="370" y="689" type="curve" smooth="yes"/>
      <point x="372" y="683"/>
      <point x="374" y="675"/>
      <point x="374" y="664" type="curve" smooth="yes"/>
      <point x="374" y="660"/>
      <point x="376" y="655"/>
      <point x="376" y="650" type="curve" smooth="yes"/>
      <point x="382" y="578" type="line" smooth="yes"/>
      <point x="382" y="578"/>
      <point x="382" y="577"/>
      <point x="382" y="576" type="curve" smooth="yes"/>
      <point x="384" y="472" type="line"/>
      <point x="384" y="226" type="line" smooth="yes"/>
      <point x="384" y="223"/>
      <point x="383" y="220"/>
      <point x="382" y="216" type="curve" smooth="yes"/>
      <point x="302" y="22" type="line" smooth="yes"/>
      <point x="301" y="19"/>
      <point x="299" y="17"/>
      <point x="297" y="14" type="curve" smooth="yes"/>
      <point x="281" y="-2" type="line" smooth="yes"/>
      <point x="276" y="-7"/>
      <point x="269" y="-9"/>
      <point x="263" y="-9" type="curve" smooth="yes"/>
      <point x="257" y="-9"/>
      <point x="250" y="-7"/>
      <point x="245" y="-2" type="curve" smooth="yes"/>
      <point x="240" y="3"/>
      <point x="238" y="10"/>
      <point x="238" y="16" type="curve" smooth="yes"/>
      <point x="238" y="22"/>
      <point x="240" y="29"/>
      <point x="245" y="34" type="curve" smooth="yes"/>
      <point x="258" y="46" type="line"/>
      <point x="334" y="231" type="line"/>
      <point x="334" y="472" type="line"/>
      <point x="332" y="575" type="line"/>
      <point x="326" y="645" type="line" smooth="yes"/>
      <point x="325" y="650"/>
      <point x="324" y="655"/>
      <point x="324" y="664" type="curve" smooth="yes"/>
      <point x="324" y="667"/>
      <point x="323" y="670"/>
      <point x="322" y="676" type="curve" smooth="yes"/>
      <point x="321" y="681"/>
      <point x="318" y="688"/>
      <point x="318" y="697" type="curve" smooth="yes"/>
      <point x="317" y="701"/>
      <point x="315" y="706"/>
      <point x="314" y="714" type="curve"/>
      <point x="308" y="722"/>
      <point x="299" y="729"/>
      <point x="293" y="737" type="curve" smooth="yes"/>
      <point x="286" y="746"/>
      <point x="276" y="752"/>
      <point x="262" y="752" type="curve" smooth="yes"/>
      <point x="259" y="752"/>
      <point x="256" y="751"/>
    </contour>
  </outline>
</glyph>
<glyph name="two" format="2">
  <advance width="408"/>
  <unicode hex="0032"/>
  <outline>
    <contour>
      <point x="207" y="753.005" type="curve" smooth="yes"/>
      <point x="202.555" y="753.005"/>
      <point x="198.015" y="753.886"/>
      <point x="193.652" y="753.886" type="curve" smooth="yes"/>
      <point x="171.981" y="753.886"/>
      <point x="152.554" y="744.49"/>
      <point x="136.823" y="728.759" type="curve" smooth="yes"/>
      <point x="128.487" y="720.423"/>
      <point x="121.336" y="710.276"/>
      <point x="115.963" y="699.269" type="curve" smooth="yes"/>
      <point x="115.984" y="698.846"/>
      <point x="115.995" y="698.423"/>
      <point x="115.995" y="698" type="curve" smooth="yes"/>
      <point x="115.995" y="691.6"/>
      <point x="113.556" y="685.201"/>
      <point x="108.678" y="680.322" type="curve" smooth="yes"/>
      <point x="103.799" y="675.444"/>
      <point x="97.3997" y="673.005"/>
      <point x="91" y="673.005" type="curve" smooth="yes"/>
      <point x="84.6003" y="673.005"/>
      <point x="78.2006" y="675.444"/>
      <point x="73.3223" y="680.322" type="curve" smooth="yes"/>
      <point x="71.3223" y="682.322" type="line" smooth="yes"/>
      <point x="66.444" y="687.201"/>
      <point x="64.0049" y="693.6"/>
      <point x="64.0049" y="700" type="curve" smooth="yes"/>
      <point x="64.0049" y="703.099"/>
      <point x="64.577" y="706.199"/>
      <point x="65.7212" y="709.125" type="curve" smooth="yes"/>
      <point x="84.7252" y="757.733"/>
      <point x="131.026" y="803.867"/>
      <point x="193.802" y="803.867" type="curve" smooth="yes"/>
      <point x="198.246" y="803.867"/>
      <point x="202.756" y="803.628"/>
      <point x="207.323" y="803.135" type="curve" smooth="yes"/>
      <point x="211.974" y="803.531"/>
      <point x="216.545" y="803.724"/>
      <point x="221.03" y="803.724" type="curve" smooth="yes"/>
      <point x="259.472" y="803.724"/>
      <point x="291.676" y="789.501"/>
      <point x="314.849" y="766.327" type="curve" smooth="yes"/>
      <point x="345.732" y="735.444"/>
      <point x="359.697" y="691.512"/>
      <point x="359.995" y="648.173" type="curve" smooth="yes"/>
      <point x="360.024" y="643.874"/>
      <point x="360.034" y="639.595"/>
      <point x="360.034" y="635.334" type="curve" smooth="yes"/>
      <point x="360.034" y="627.269"/>
      <point x="359.995" y="619.239"/>
      <point x="359.995" y="611.207" type="curve" smooth="yes"/>
      <point x="360.259" y="608.264"/>
      <point x="360.382" y="605.375"/>
      <point x="360.382" y="602.54" type="curve" smooth="yes"/>
      <point x="360.382" y="565.408"/>
      <point x="341.853" y="540.903"/>
      <point x="332.658" y="513.911" type="curve" smooth="yes"/>
      <point x="311.964" y="453.165"/>
      <point x="276.304" y="400.925"/>
      <point x="242.399" y="350.756" type="curve" smooth="yes"/>
      <point x="191.403" y="275.297"/>
      <point x="145.905" y="206.182"/>
      <point x="145.905" y="122.772" type="curve" smooth="yes"/>
      <point x="145.905" y="120.968"/>
      <point x="145.926" y="119.157"/>
      <point x="145.969" y="117.339" type="curve" smooth="yes"/>
      <point x="146.393" y="115.77"/>
      <point x="148.843" y="110.058"/>
      <point x="152.1" y="104.67" type="curve" smooth="yes"/>
      <point x="154.796" y="100.211"/>
      <point x="158.196" y="95.5817"/>
      <point x="160.536" y="92.6087" type="curve"/>
      <point x="204.256" y="79.1564" type="line"/>
      <point x="288.577" y="82.7446" type="line"/>
      <point x="323.189" y="100.051" type="line"/>
      <point x="326.159" y="126.78" type="line" smooth="yes"/>
      <point x="327.496" y="138.816"/>
      <point x="338.331" y="148.995"/>
      <point x="351" y="148.995" type="curve" smooth="yes"/>
      <point x="357.4" y="148.995"/>
      <point x="363.799" y="146.556"/>
      <point x="368.678" y="141.678" type="curve" smooth="yes"/>
      <point x="373.556" y="136.799"/>
      <point x="375.995" y="130.4"/>
      <point x="375.995" y="124" type="curve" smooth="yes"/>
      <point x="375.995" y="123.072"/>
      <point x="375.944" y="122.144"/>
      <point x="375.841" y="121.22" type="curve" smooth="yes"/>
      <point x="371.841" y="85.2201" type="line" smooth="yes"/>
      <point x="371.236" y="79.776"/>
      <point x="368.848" y="74.4931"/>
      <point x="364.678" y="70.3223" type="curve" smooth="yes"/>
      <point x="360.289" y="65.9341"/>
      <point x="355.931" y="60.5094"/>
      <point x="350.188" y="57.6377" type="curve" smooth="yes"/>
      <point x="306.188" y="35.6377" type="line" smooth="yes"/>
      <point x="303.004" y="34.0457"/>
      <point x="299.55" y="33.1757"/>
      <point x="296.071" y="33.0277" type="curve" smooth="yes"/>
      <point x="202.071" y="29.0277" type="line" smooth="yes"/>
      <point x="201.714" y="29.0125"/>
      <point x="201.357" y="29.0049"/>
      <point x="201" y="29.0049" type="curve" smooth="yes"/>
      <point x="198.51" y="29.0049"/>
      <point x="196.019" y="29.3742"/>
      <point x="193.619" y="30.1129" type="curve" smooth="yes"/>
      <point x="146.079" y="44.7405" type="line"/>
      <point x="138.581" y="45.3475"/>
      <point x="134.489" y="48.6344"/>
      <point x="132.887" y="49.7753" type="curve" smooth="yes"/>
      <point x="130.508" y="51.4706"/>
      <point x="129.105" y="52.833"/>
      <point x="127.716" y="54.2226" type="curve" smooth="yes"/>
      <point x="117.748" y="64.1903"/>
      <point x="105.385" y="82.2641"/>
      <point x="99.3837" y="98.944" type="curve" smooth="yes"/>
      <point x="97.6985" y="103.628"/>
      <point x="96.1893" y="108.722"/>
      <point x="96.0138" y="115.331" type="curve" smooth="yes"/>
      <point x="95.9461" y="117.88"/>
      <point x="95.9127" y="120.414"/>
      <point x="95.9127" y="122.935" type="curve" smooth="yes"/>
      <point x="95.9127" y="225.101"/>
      <point x="150.775" y="304.49"/>
      <point x="200.944" y="378.725" type="curve" smooth="yes"/>
      <point x="234.897" y="428.965"/>
      <point x="267.458" y="477.671"/>
      <point x="285.297" y="529.956" type="curve" smooth="yes"/>
      <point x="292.422" y="551.649"/>
      <point x="310.353" y="582.561"/>
      <point x="310.353" y="603.213" type="curve" smooth="yes"/>
      <point x="310.353" y="605.512"/>
      <point x="310.005" y="607.724"/>
      <point x="310.005" y="610" type="curve" smooth="yes"/>
      <point x="310.005" y="618.461"/>
      <point x="310.043" y="626.906"/>
      <point x="310.043" y="635.334" type="curve" smooth="yes"/>
      <point x="310.043" y="639.518"/>
      <point x="310.034" y="643.682"/>
      <point x="310.005" y="647.827" type="curve" smooth="yes"/>
      <point x="309.779" y="680.883"/>
      <point x="298.552" y="711.914"/>
      <point x="279.494" y="730.972" type="curve" smooth="yes"/>
      <point x="265.709" y="744.757"/>
      <point x="247.389" y="753.781"/>
      <point x="221.795" y="753.781" type="curve" smooth="yes"/>
      <point x="217.132" y="753.781"/>
      <point x="211.971" y="753.005"/>
    </contour>
  </outline>
</glyph>
<glyph name="three" format="2">
  <advance width="635"/>
  <unicode hex="0033"/>
  <outline>
    <contour>
      <point x="68" y="221" type="curve"/>
      <point x="140" y="221" type="line"/>
      <point x="140" y="176.333"/>
      <point x="157.5" y="139.5"/>
      <point x="192.5" y="110.5" type="curve" smooth="yes"/>
      <point x="227.5" y="81.5"/>
      <point x="269" y="67"/>
      <point x="317" y="67" type="curve" smooth="yes"/>
      <point x="362.333" y="67"/>
      <point x="401.833" y="80.8333"/>
      <point x="435.5" y="108.5" type="curve" smooth="yes"/>
      <point x="469.167" y="136.167"/>
      <point x="486" y="171.333"/>
      <point x="486" y="214" type="curve" smooth="yes"/>
      <point x="486" y="251.333"/>
      <point x="469.167" y="280.333"/>
      <point x="435.5" y="301" type="curve" smooth="yes"/>
      <point x="401.833" y="321.667"/>
      <point x="362.333" y="332"/>
      <point x="317" y="332" type="curve" smooth="yes"/>
      <point x="250" y="332" type="line"/>
      <point x="250" y="413" type="line"/>
      <point x="317" y="413" type="line" smooth="yes"/>
      <point x="352.333" y="413"/>
      <point x="383.167" y="424"/>
      <point x="409.5" y="446" type="curve" smooth="yes"/>
      <point x="435.833" y="468"/>
      <point x="449" y="496"/>
      <point x="449" y="530" type="curve" smooth="yes"/>
      <point x="449" y="562"/>
      <point x="435.833" y="588.167"/>
      <point x="409.5" y="608.5" type="curve" smooth="yes"/>
      <point x="383.167" y="628.833"/>
      <point x="352.333" y="639"/>
      <point x="317" y="639" type="curve" smooth="yes"/>
      <point x="273.667" y="639"/>
      <point x="236" y="626"/>
      <point x="204" y="600" type="curve" smooth="yes"/>
      <point x="172" y="574"/>
      <point x="156" y="541"/>
      <point x="156" y="501" type="curve"/>
      <point x="75" y="501" type="line"/>
      <point x="75" y="561"/>
      <point x="98" y="611.5"/>
      <point x="144" y="652.5" type="curve" smooth="yes"/>
      <point x="190" y="693.5"/>
      <point x="245" y="714"/>
      <point x="309" y="714" type="curve" smooth="yes"/>
      <point x="367.667" y="714"/>
      <point x="419" y="696.667"/>
      <point x="463" y="662" type="curve" smooth="yes"/>
      <point x="507" y="627.333"/>
      <point x="529" y="583.333"/>
      <point x="529" y="530" type="curve" smooth="yes"/>
      <point x="529" y="497.333"/>
      <point x="522" y="467"/>
      <point x="508" y="439" type="curve" smooth="yes"/>
      <point x="494" y="411"/>
      <point x="474.333" y="389.333"/>
      <point x="449" y="374" type="curve"/>
      <point x="484.333" y="364.667"/>
      <point x="512.833" y="345"/>
      <point x="534.5" y="315" type="curve" smooth="yes"/>
      <point x="556.167" y="285"/>
      <point x="567" y="251.333"/>
      <point x="567" y="214" type="curve" smooth="yes"/>
      <point x="567" y="149.333"/>
      <point x="542.333" y="95"/>
      <point x="493" y="51" type="curve" smooth="yes"/>
      <point x="443.667" y="7"/>
      <point x="385" y="-15"/>
      <point x="317" y="-15" type="curve" smooth="yes"/>
      <point x="248.333" y="-15"/>
      <point x="189.667" y="8"/>
      <point x="141" y="54" type="curve" smooth="yes"/>
      <point x="92.3333" y="100"/>
      <point x="68" y="155.667"/>
    </contour>
  </outline>
</glyph>
<glyph name="four" format="2">
  <advance width="584"/>
  <unicode hex="0034"/>
  <outline>
    <contour>
      <point x="465" y="597" type="curve" smooth="yes"/>
      <point x="465" y="608"/>
      <point x="467" y="617"/>
      <point x="467" y="627" type="curve" smooth="yes"/>
      <point x="467" y="688"/>
      <point x="437" y="742"/>
      <point x="402" y="775" type="curve" smooth="yes"/>
      <point x="396" y="781"/>
      <point x="393" y="789"/>
      <point x="393" y="797" type="curve" smooth="yes"/>
      <point x="393" y="805"/>
      <point x="395" y="812"/>
      <point x="401" y="818" type="curve" smooth="yes"/>
      <point x="407" y="824"/>
      <point x="415" y="827"/>
      <point x="423" y="827" type="curve" smooth="yes"/>
      <point x="430" y="827"/>
      <point x="438" y="824"/>
      <point x="444" y="819" type="curve" smooth="yes"/>
      <point x="488" y="776"/>
      <point x="527" y="708"/>
      <point x="527" y="628" type="curve" smooth="yes"/>
      <point x="527" y="618"/>
      <point x="526" y="608"/>
      <point x="526" y="597" type="curve" smooth="yes"/>
      <point x="526" y="577"/>
      <point x="526" y="556"/>
      <point x="526" y="535" type="curve" smooth="yes"/>
      <point x="526" y="514"/>
      <point x="525" y="491"/>
      <point x="523" y="469" type="curve"/>
      <point x="530" y="470"/>
      <point x="538" y="471"/>
      <point x="546" y="471" type="curve" smooth="yes"/>
      <point x="554" y="471"/>
      <point x="562" y="468"/>
      <point x="568" y="462" type="curve" smooth="yes"/>
      <point x="573" y="457"/>
      <point x="576" y="449"/>
      <point x="576" y="441" type="curve" smooth="yes"/>
      <point x="576" y="426"/>
      <point x="564" y="413"/>
      <point x="550" y="411" type="curve" smooth="yes"/>
      <point x="509" y="406" type="line"/>
      <point x="493" y="293"/>
      <point x="443" y="185"/>
      <point x="374" y="94" type="curve" smooth="yes"/>
      <point x="367" y="84"/>
      <point x="310" y="19"/>
      <point x="309" y="18" type="curve" smooth="yes"/>
      <point x="307" y="16"/>
      <point x="304" y="14"/>
      <point x="302" y="13" type="curve" smooth="yes"/>
      <point x="280" y="1" type="line" smooth="yes"/>
      <point x="276" y="-2"/>
      <point x="271" y="-3"/>
      <point x="265" y="-3" type="curve" smooth="yes"/>
      <point x="258" y="-3"/>
      <point x="250" y="0"/>
      <point x="244" y="6" type="curve" smooth="yes"/>
      <point x="238" y="12"/>
      <point x="235" y="19"/>
      <point x="235" y="27" type="curve" smooth="yes"/>
      <point x="235" y="38"/>
      <point x="242" y="49"/>
      <point x="251" y="54" type="curve" smooth="yes"/>
      <point x="268" y="63" type="line"/>
      <point x="280" y="77"/>
      <point x="315" y="117"/>
      <point x="326" y="130" type="curve" smooth="yes"/>
      <point x="386" y="210"/>
      <point x="429" y="303"/>
      <point x="447" y="398" type="curve"/>
      <point x="386" y="389" type="line" smooth="yes"/>
      <point x="385" y="389"/>
      <point x="384" y="389"/>
      <point x="383" y="389" type="curve" smooth="yes"/>
      <point x="279" y="384" type="line" smooth="yes"/>
      <point x="279" y="384"/>
      <point x="278" y="384"/>
      <point x="278" y="384" type="curve" smooth="yes"/>
      <point x="276" y="384"/>
      <point x="275" y="384"/>
      <point x="273" y="385" type="curve" smooth="yes"/>
      <point x="208" y="394" type="line" smooth="yes"/>
      <point x="207" y="394"/>
      <point x="206" y="394"/>
      <point x="205" y="395" type="curve" smooth="yes"/>
      <point x="165" y="404"/>
      <point x="121" y="428"/>
      <point x="93" y="452" type="curve" smooth="yes"/>
      <point x="51" y="489"/>
      <point x="7" y="545"/>
      <point x="7" y="614" type="curve" smooth="yes"/>
      <point x="7" y="620"/>
      <point x="7" y="626"/>
      <point x="8" y="631" type="curve" smooth="yes"/>
      <point x="8" y="641"/>
      <point x="7" y="651"/>
      <point x="7" y="662" type="curve" smooth="yes"/>
      <point x="7" y="669"/>
      <point x="7" y="676"/>
      <point x="8" y="683" type="curve" smooth="yes"/>
      <point x="13" y="710"/>
      <point x="10" y="736"/>
      <point x="20" y="764" type="curve"/>
      <point x="20" y="780" type="line" smooth="yes"/>
      <point x="20" y="789"/>
      <point x="24" y="796"/>
      <point x="27" y="803" type="curve" smooth="yes"/>
      <point x="31" y="814"/>
      <point x="42" y="822"/>
      <point x="55" y="822" type="curve" smooth="yes"/>
      <point x="63" y="822"/>
      <point x="70" y="819"/>
      <point x="76" y="813" type="curve" smooth="yes"/>
      <point x="82" y="807"/>
      <point x="85" y="800"/>
      <point x="85" y="792" type="curve" smooth="yes"/>
      <point x="85" y="785"/>
      <point x="82" y="779"/>
      <point x="80" y="774" type="curve"/>
      <point x="80" y="758" type="line" smooth="yes"/>
      <point x="80" y="754"/>
      <point x="80" y="750"/>
      <point x="78" y="746" type="curve" smooth="yes"/>
      <point x="72" y="732"/>
      <point x="71" y="694"/>
      <point x="68" y="673" type="curve" smooth="yes"/>
      <point x="67" y="670"/>
      <point x="67" y="667"/>
      <point x="67" y="662" type="curve" smooth="yes"/>
      <point x="67" y="652"/>
      <point x="68" y="641"/>
      <point x="68" y="630" type="curve" smooth="yes"/>
      <point x="68" y="625"/>
      <point x="67" y="620"/>
      <point x="67" y="615" type="curve" smooth="yes"/>
      <point x="67" y="577"/>
      <point x="89" y="541"/>
      <point x="119" y="511" type="curve" smooth="yes"/>
      <point x="123" y="506"/>
      <point x="128" y="502"/>
      <point x="133" y="498" type="curve" smooth="yes"/>
      <point x="151" y="482"/>
      <point x="191" y="461"/>
      <point x="218" y="454" type="curve"/>
      <point x="279" y="445" type="line"/>
      <point x="379" y="449" type="line"/>
      <point x="460" y="461" type="line"/>
      <point x="465" y="485"/>
      <point x="466" y="512"/>
      <point x="466" y="540" type="curve" smooth="yes"/>
      <point x="466" y="559"/>
      <point x="465" y="578"/>
    </contour>
  </outline>
</glyph>
<glyph name="five" format="2">
  <advance width="518"/>
  <unicode hex="0035"/>
  <outline>
    <contour>
      <point x="440" y="769" type="curve" smooth="yes"/>
      <point x="453" y="769"/>
      <point x="463" y="759"/>
      <point x="463" y="745" type="curve" smooth="yes"/>
      <point x="463" y="740"/>
      <point x="462" y="737"/>
      <point x="461" y="734" type="curve" smooth="yes"/>
      <point x="461" y="728"/>
      <point x="459" y="720"/>
      <point x="459" y="715" type="curve" smooth="yes"/>
      <point x="459" y="711"/>
      <point x="458" y="707"/>
      <point x="456" y="704" type="curve" smooth="yes"/>
      <point x="453" y="697"/>
      <point x="449" y="692"/>
      <point x="444" y="687" type="curve" smooth="yes"/>
      <point x="423" y="666"/>
      <point x="395" y="662"/>
      <point x="372" y="659" type="curve" smooth="yes"/>
      <point x="367" y="659"/>
      <point x="362" y="658"/>
      <point x="357" y="658" type="curve" smooth="yes"/>
      <point x="323" y="658"/>
      <point x="298" y="672"/>
      <point x="275" y="685" type="curve" smooth="yes"/>
      <point x="267" y="689"/>
      <point x="259" y="693"/>
      <point x="251" y="698" type="curve" smooth="yes"/>
      <point x="248" y="699"/>
      <point x="246" y="700"/>
      <point x="244" y="702" type="curve" smooth="yes"/>
      <point x="206" y="741" type="line"/>
      <point x="145" y="752" type="line"/>
      <point x="91" y="751" type="line"/>
      <point x="77" y="732"/>
      <point x="66" y="704"/>
      <point x="64" y="681" type="curve" smooth="yes"/>
      <point x="64" y="680"/>
      <point x="64" y="680"/>
      <point x="64" y="679" type="curve" smooth="yes"/>
      <point x="63" y="670"/>
      <point x="62" y="662"/>
      <point x="62" y="653" type="curve" smooth="yes"/>
      <point x="62" y="599"/>
      <point x="90" y="549"/>
      <point x="132" y="507" type="curve" smooth="yes"/>
      <point x="171" y="468"/>
      <point x="222" y="436"/>
      <point x="268" y="416" type="curve" smooth="yes"/>
      <point x="269" y="415"/>
      <point x="270" y="415"/>
      <point x="271" y="414" type="curve" smooth="yes"/>
      <point x="290" y="403"/>
      <point x="314" y="393"/>
      <point x="338" y="382" type="curve" smooth="yes"/>
      <point x="378" y="364"/>
      <point x="422" y="346"/>
      <point x="455" y="313" type="curve" smooth="yes"/>
      <point x="474" y="294"/>
      <point x="489" y="270"/>
      <point x="495" y="239" type="curve" smooth="yes"/>
      <point x="501" y="210"/>
      <point x="505" y="181"/>
      <point x="505" y="149" type="curve" smooth="yes"/>
      <point x="505" y="148"/>
      <point x="505" y="147"/>
      <point x="505" y="146" type="curve" smooth="yes"/>
      <point x="503" y="125"/>
      <point x="499" y="98"/>
      <point x="491" y="72" type="curve" smooth="yes"/>
      <point x="480" y="39"/>
      <point x="460" y="5"/>
      <point x="425" y="-6" type="curve" smooth="yes"/>
      <point x="417" y="-8"/>
      <point x="409" y="-10"/>
      <point x="400" y="-10" type="curve" smooth="yes"/>
      <point x="392" y="-10"/>
      <point x="383" y="-8"/>
      <point x="375" y="-6" type="curve"/>
      <point x="363" y="-7"/>
      <point x="351" y="-7"/>
      <point x="339" y="-7" type="curve" smooth="yes"/>
      <point x="311" y="-7"/>
      <point x="282" y="-5"/>
      <point x="255" y="2" type="curve" smooth="yes"/>
      <point x="221" y="9"/>
      <point x="189" y="23"/>
      <point x="165" y="48" type="curve" smooth="yes"/>
      <point x="150" y="62"/>
      <point x="139" y="80"/>
      <point x="132" y="102" type="curve" smooth="yes"/>
      <point x="131" y="104"/>
      <point x="131" y="107"/>
      <point x="131" y="109" type="curve" smooth="yes"/>
      <point x="131" y="115"/>
      <point x="133" y="121"/>
      <point x="138" y="126" type="curve" smooth="yes"/>
      <point x="142" y="130"/>
      <point x="148" y="133"/>
      <point x="155" y="133" type="curve" smooth="yes"/>
      <point x="165" y="133"/>
      <point x="174" y="125"/>
      <point x="177" y="116" type="curve" smooth="yes"/>
      <point x="182" y="102"/>
      <point x="189" y="91"/>
      <point x="198" y="82" type="curve" smooth="yes"/>
      <point x="214" y="66"/>
      <point x="238" y="54"/>
      <point x="266" y="48" type="curve" smooth="yes"/>
      <point x="289" y="42"/>
      <point x="314" y="40"/>
      <point x="339" y="40" type="curve" smooth="yes"/>
      <point x="351" y="40"/>
      <point x="363" y="41"/>
      <point x="375" y="42" type="curve" smooth="yes"/>
      <point x="376" y="42"/>
      <point x="376" y="42"/>
      <point x="377" y="42" type="curve" smooth="yes"/>
      <point x="379" y="42"/>
      <point x="381" y="41"/>
      <point x="384" y="41" type="curve" smooth="yes"/>
      <point x="390" y="39"/>
      <point x="396" y="38"/>
      <point x="400" y="38" type="curve" smooth="yes"/>
      <point x="412" y="38"/>
      <point x="418" y="42"/>
      <point x="425" y="48" type="curve" smooth="yes"/>
      <point x="433" y="56"/>
      <point x="440" y="70"/>
      <point x="445" y="87" type="curve" smooth="yes"/>
      <point x="452" y="107"/>
      <point x="455" y="131"/>
      <point x="458" y="150" type="curve" smooth="yes"/>
      <point x="457" y="177"/>
      <point x="454" y="202"/>
      <point x="449" y="230" type="curve" smooth="yes"/>
      <point x="445" y="251"/>
      <point x="435" y="266"/>
      <point x="421" y="280" type="curve" smooth="yes"/>
      <point x="382" y="319"/>
      <point x="302" y="341"/>
      <point x="248" y="373" type="curve"/>
      <point x="197" y="395"/>
      <point x="142" y="429"/>
      <point x="98" y="473" type="curve" smooth="yes"/>
      <point x="51" y="521"/>
      <point x="14" y="582"/>
      <point x="14" y="653" type="curve" smooth="yes"/>
      <point x="14" y="664"/>
      <point x="15" y="675"/>
      <point x="17" y="686" type="curve" smooth="yes"/>
      <point x="20" y="723"/>
      <point x="36" y="763"/>
      <point x="64" y="791" type="curve" smooth="yes"/>
      <point x="68" y="795"/>
      <point x="74" y="798"/>
      <point x="80" y="798" type="curve" smooth="yes"/>
      <point x="146" y="800" type="line" smooth="yes"/>
      <point x="146" y="800"/>
      <point x="147" y="800"/>
      <point x="147" y="800" type="curve" smooth="yes"/>
      <point x="148" y="800"/>
      <point x="150" y="800"/>
      <point x="151" y="799" type="curve" smooth="yes"/>
      <point x="222" y="786" type="line" smooth="yes"/>
      <point x="226" y="785"/>
      <point x="231" y="783"/>
      <point x="234" y="779" type="curve" smooth="yes"/>
      <point x="275" y="739" type="line"/>
      <point x="284" y="734"/>
      <point x="291" y="730"/>
      <point x="298" y="726" type="curve" smooth="yes"/>
      <point x="321" y="713"/>
      <point x="335" y="706"/>
      <point x="356" y="706" type="curve" smooth="yes"/>
      <point x="381" y="706"/>
      <point x="404" y="713"/>
      <point x="412" y="723" type="curve" smooth="yes"/>
      <point x="413" y="727"/>
      <point x="414" y="733"/>
      <point x="414" y="737" type="curve" smooth="yes"/>
      <point x="414" y="738"/>
      <point x="414" y="738"/>
      <point x="414" y="739" type="curve" smooth="yes"/>
      <point x="414" y="744"/>
      <point x="415" y="748"/>
      <point x="416" y="751" type="curve" smooth="yes"/>
      <point x="419" y="761"/>
      <point x="428" y="769"/>
    </contour>
  </outline>
</glyph>
<glyph name="six" format="2">
  <advance width="460"/>
  <unicode hex="0036"/>
  <outline>
    <contour>
      <point x="428.755" y="107.204" type="curve" smooth="yes"/>
      <point x="428.755" y="99.8276"/>
      <point x="430.516" y="92.9935"/>
      <point x="430.516" y="86.0983" type="curve" smooth="yes"/>
      <point x="430.516" y="75.7042"/>
      <point x="427.813" y="67.3367"/>
      <point x="426.264" y="61.9234" type="curve" smooth="yes"/>
      <point x="424.697" y="56.4418"/>
      <point x="424.04" y="53.2483"/>
      <point x="423.994" y="51.6989" type="curve" smooth="yes"/>
      <point x="423.919" y="40.7423"/>
      <point x="419.785" y="32.3907"/>
      <point x="415.953" y="26.1852" type="curve" smooth="yes"/>
      <point x="408.516" y="14.1438"/>
      <point x="398.342" y="5.70061"/>
      <point x="391.66" y="-4.08415" type="curve" smooth="yes"/>
      <point x="387.286" y="-10.4885"/>
      <point x="379.158" y="-14.9951"/>
      <point x="371" y="-14.9951" type="curve" smooth="yes"/>
      <point x="235" y="-14.9951" type="line" smooth="yes"/>
      <point x="233.957" y="-14.9951"/>
      <point x="232.914" y="-14.9303"/>
      <point x="231.878" y="-14.8008" type="curve" smooth="yes"/>
      <point x="183.878" y="-8.8008" type="line" smooth="yes"/>
      <point x="180.013" y="-8.3176"/>
      <point x="176.239" y="-6.93315"/>
      <point x="172.898" y="-4.64743" type="curve" smooth="yes"/>
      <point x="134.898" y="21.3526" type="line" smooth="yes"/>
      <point x="132.134" y="23.2439"/>
      <point x="129.618" y="25.8555"/>
      <point x="127.835" y="28.686" type="curve" smooth="yes"/>
      <point x="121.52" y="38.7125"/>
      <point x="116.568" y="46.3828"/>
      <point x="108.56" y="55.1188" type="curve" smooth="yes"/>
      <point x="96.0155" y="68.8034"/>
      <point x="91.8502" y="84.0586"/>
      <point x="88.3771" y="94.8434" type="curve" smooth="yes"/>
      <point x="86.554" y="100.505"/>
      <point x="84.0049" y="105.39"/>
      <point x="84.0049" y="112" type="curve" smooth="yes"/>
      <point x="84.0049" y="113.134"/>
      <point x="83.8169" y="114.219"/>
      <point x="82.2068" y="119.062" type="curve" smooth="yes"/>
      <point x="81.0765" y="122.461"/>
      <point x="79.2864" y="127.616"/>
      <point x="78.2862" y="134.247" type="curve" smooth="yes"/>
      <point x="75.6222" y="151.91"/>
      <point x="68.6848" y="177.603"/>
      <point x="64.5685" y="196.704" type="curve" smooth="yes"/>
      <point x="64.1928" y="198.448"/>
      <point x="64.0049" y="200.224"/>
      <point x="64.0049" y="202" type="curve" smooth="yes"/>
      <point x="64.0049" y="206.846"/>
      <point x="62.2784" y="212.997"/>
      <point x="62.0451" y="219.696" type="curve" smooth="yes"/>
      <point x="61.079" y="222.501"/>
      <point x="60.0847" y="225.982"/>
      <point x="60.0106" y="229.464" type="curve" smooth="yes"/>
      <point x="58.031" y="322.507" type="line"/>
      <point x="50.1238" y="403.555" type="line" smooth="yes"/>
      <point x="50.0551" y="404.26"/>
      <point x="50.0162" y="404.966"/>
      <point x="50.007" y="405.673" type="curve" smooth="yes"/>
      <point x="48.0028" y="560" type="line" smooth="yes"/>
      <point x="48.0028" y="560.761"/>
      <point x="48.0394" y="561.521"/>
      <point x="48.1083" y="562.279" type="curve" smooth="yes"/>
      <point x="52.1083" y="606.279" type="line" smooth="yes"/>
      <point x="52.4836" y="610.408"/>
      <point x="53.2424" y="614.311"/>
      <point x="53.8784" y="619.078" type="curve" smooth="yes"/>
      <point x="55.3835" y="630.359"/>
      <point x="57.0352" y="643.725"/>
      <point x="61.0522" y="657.181" type="curve" smooth="yes"/>
      <point x="62.6315" y="662.471"/>
      <point x="64.5885" y="669.399"/>
      <point x="66.2001" y="674.564" type="curve" smooth="yes"/>
      <point x="66.6097" y="679.329"/>
      <point x="67.7531" y="682.814"/>
      <point x="68.0049" y="686.08" type="curve" smooth="yes"/>
      <point x="68.0357" y="717.4"/>
      <point x="86.0634" y="743.383"/>
      <point x="103.8" y="761.119" type="curve" smooth="yes"/>
      <point x="114.239" y="771.558"/>
      <point x="125.23" y="779.815"/>
      <point x="137.04" y="784.935" type="curve" smooth="yes"/>
      <point x="151.242" y="791.091"/>
      <point x="164.2" y="798.656"/>
      <point x="184.214" y="802.536" type="curve" smooth="yes"/>
      <point x="185.793" y="802.842"/>
      <point x="187.397" y="802.995"/>
      <point x="189" y="802.995" type="curve" smooth="yes"/>
      <point x="195.4" y="802.995"/>
      <point x="201.799" y="800.556"/>
      <point x="206.678" y="795.678" type="curve" smooth="yes"/>
      <point x="211.556" y="790.799"/>
      <point x="213.995" y="784.4"/>
      <point x="213.995" y="778" type="curve" smooth="yes"/>
      <point x="213.995" y="765.966"/>
      <point x="204.779" y="755.595"/>
      <point x="193.786" y="753.464" type="curve" smooth="yes"/>
      <point x="183.442" y="751.459"/>
      <point x="168.328" y="743.993"/>
      <point x="156.96" y="739.065" type="curve" smooth="yes"/>
      <point x="153.425" y="737.533"/>
      <point x="145.978" y="732.587"/>
      <point x="139.155" y="725.764" type="curve" smooth="yes"/>
      <point x="126.62" y="713.229"/>
      <point x="117.995" y="696.459"/>
      <point x="117.995" y="686" type="curve" smooth="yes"/>
      <point x="117.995" y="678.293"/>
      <point x="116.542" y="674.647"/>
      <point x="115.995" y="669.912" type="curve" smooth="yes"/>
      <point x="115.985" y="667.211"/>
      <point x="115.542" y="664.512"/>
      <point x="114.663" y="661.928" type="curve" smooth="yes"/>
      <point x="113.676" y="659.023"/>
      <point x="110.434" y="647.798"/>
      <point x="108.948" y="642.819" type="curve" smooth="yes"/>
      <point x="105.689" y="631.902"/>
      <point x="103.933" y="614.716"/>
      <point x="101.82" y="600.933" type="curve" smooth="yes"/>
      <point x="98.0099" y="559.021" type="line"/>
      <point x="99.9792" y="407.389" type="line"/>
      <point x="107.876" y="326.445" type="line" smooth="yes"/>
      <point x="107.938" y="325.81"/>
      <point x="107.976" y="325.173"/>
      <point x="107.989" y="324.536" type="curve" smooth="yes"/>
      <point x="109.906" y="234.448" type="line" smooth="yes"/>
      <point x="110.703" y="232.501"/>
      <point x="112.084" y="227.096"/>
      <point x="112.084" y="224.403" type="curve" smooth="yes"/>
      <point x="112.084" y="223.28"/>
      <point x="111.995" y="223.021"/>
      <point x="111.995" y="222" type="curve" smooth="yes"/>
      <point x="111.995" y="217.439"/>
      <point x="113.64" y="211.289"/>
      <point x="113.926" y="205.031" type="curve" smooth="yes"/>
      <point x="118.377" y="184.863"/>
      <point x="124.583" y="162.511"/>
      <point x="127.714" y="141.753" type="curve" smooth="yes"/>
      <point x="128.889" y="133.96"/>
      <point x="132.8" y="128.393"/>
      <point x="133.787" y="116.849" type="curve" smooth="yes"/>
      <point x="134.57" y="114.537"/>
      <point x="135.281" y="112.324"/>
      <point x="135.956" y="110.226" type="curve" smooth="yes"/>
      <point x="139.607" y="98.89"/>
      <point x="142.568" y="92.0145"/>
      <point x="145.44" y="88.8812" type="curve" smooth="yes"/>
      <point x="154.999" y="78.4539"/>
      <point x="161.647" y="68.6854"/>
      <point x="167.37" y="59.7274" type="curve"/>
      <point x="196.129" y="40.0499" type="line"/>
      <point x="236.568" y="34.9951" type="line"/>
      <point x="358.878" y="34.9951" type="line" smooth="yes"/>
      <point x="360.378" y="36.7263"/>
      <point x="361.846" y="38.3642"/>
      <point x="363.244" y="39.9401" type="curve" smooth="yes"/>
      <point x="369.088" y="46.5291"/>
      <point x="373.057" y="52.1501"/>
      <point x="374.041" y="53.6921" type="curve" smooth="yes"/>
      <point x="374.378" y="63.1955"/>
      <point x="376.722" y="70.54"/>
      <point x="378.207" y="75.7314" type="curve" smooth="yes"/>
      <point x="379.978" y="81.9232"/>
      <point x="380.48" y="84.8782"/>
      <point x="380.48" y="86.5375" type="curve" smooth="yes"/>
      <point x="380.48" y="86.9514"/>
      <point x="380.449" y="87.2847"/>
      <point x="380.398" y="87.5675" type="curve" smooth="yes"/>
      <point x="379.137" y="94.6143"/>
      <point x="378.686" y="101.327"/>
      <point x="378.686" y="107.657" type="curve" smooth="yes"/>
      <point x="378.686" y="124.114"/>
      <point x="382.005" y="139.168"/>
      <point x="382.005" y="154" type="curve" smooth="yes"/>
      <point x="382.005" y="168.625"/>
      <point x="376.241" y="188.431"/>
      <point x="376.013" y="204.791" type="curve" smooth="yes"/>
      <point x="375.525" y="206.854"/>
      <point x="374.019" y="211.235"/>
      <point x="373.231" y="213.951" type="curve" smooth="yes"/>
      <point x="372.854" y="215.254"/>
      <point x="372.044" y="215.218"/>
      <point x="372.006" y="221.533" type="curve" smooth="yes"/>
      <point x="371.605" y="223.868"/>
      <point x="370.983" y="225.868"/>
      <point x="370.502" y="229.136" type="curve" smooth="yes"/>
      <point x="365.199" y="231.447"/>
      <point x="358.752" y="231.679"/>
      <point x="349.581" y="232.449" type="curve" smooth="yes"/>
      <point x="343.39" y="232.969"/>
      <point x="336.398" y="233.483"/>
      <point x="328.835" y="234.923" type="curve" smooth="yes"/>
      <point x="328.563" y="234.921"/>
      <point x="328.291" y="234.919"/>
      <point x="328.02" y="234.919" type="curve" smooth="yes"/>
      <point x="313.66" y="234.919"/>
      <point x="299.535" y="238.806"/>
      <point x="284.103" y="242.217" type="curve" smooth="yes"/>
      <point x="267.492" y="245.888"/>
      <point x="253.49" y="249.558"/>
      <point x="239.207" y="249.94" type="curve"/>
      <point x="238.655" y="240.165"/>
      <point x="234.995" y="232.471"/>
      <point x="234.995" y="225" type="curve" smooth="yes"/>
      <point x="234.995" y="211.652"/>
      <point x="233.641" y="196.951"/>
      <point x="232.962" y="183.71" type="curve" smooth="yes"/>
      <point x="232.656" y="177.747"/>
      <point x="230.228" y="171.873"/>
      <point x="225.678" y="167.322" type="curve" smooth="yes"/>
      <point x="220.799" y="162.444"/>
      <point x="214.4" y="160.005"/>
      <point x="208" y="160.005" type="curve" smooth="yes"/>
      <point x="201.6" y="160.005"/>
      <point x="195.201" y="162.444"/>
      <point x="190.322" y="167.322" type="curve" smooth="yes"/>
      <point x="185.444" y="172.201"/>
      <point x="183.005" y="178.6"/>
      <point x="183.005" y="185" type="curve" smooth="yes"/>
      <point x="183.005" y="197.273"/>
      <point x="185.005" y="214.206"/>
      <point x="185.005" y="225" type="curve" smooth="yes"/>
      <point x="185.005" y="234.205"/>
      <point x="186.832" y="241.522"/>
      <point x="187.94" y="246.339" type="curve" smooth="yes"/>
      <point x="188.961" y="250.779"/>
      <point x="189.276" y="253.313"/>
      <point x="189.276" y="253.313" type="curve" smooth="yes"/>
      <point x="188.97" y="255.384"/>
      <point x="188.806" y="257.546"/>
      <point x="188.806" y="259.756" type="curve" smooth="yes"/>
      <point x="188.806" y="269.264"/>
      <point x="191.835" y="279.653"/>
      <point x="199.544" y="287.362" type="curve" smooth="yes"/>
      <point x="206.149" y="293.967"/>
      <point x="213.698" y="296.841"/>
      <point x="220.195" y="298.353" type="curve" smooth="yes"/>
      <point x="225.727" y="299.639"/>
      <point x="231.018" y="300.072"/>
      <point x="236.212" y="300.072" type="curve" smooth="yes"/>
      <point x="257.15" y="300.072"/>
      <point x="276.308" y="295.144"/>
      <point x="294.953" y="291.023" type="curve" smooth="yes"/>
      <point x="311.185" y="287.436"/>
      <point x="326.45" y="284.946"/>
      <point x="329.32" y="284.946" type="curve" smooth="yes"/>
      <point x="329.882" y="284.946"/>
      <point x="330.438" y="284.995"/>
      <point x="331" y="284.995" type="curve" smooth="yes"/>
      <point x="332.842" y="284.995"/>
      <point x="334.684" y="284.793"/>
      <point x="336.49" y="284.389" type="curve" smooth="yes"/>
      <point x="350.399" y="281.275"/>
      <point x="365.681" y="282.493"/>
      <point x="381.323" y="278.201" type="curve" smooth="yes"/>
      <point x="389.397" y="275.986"/>
      <point x="398.638" y="272.127"/>
      <point x="406.588" y="264.178" type="curve" smooth="yes"/>
      <point x="412.287" y="258.478"/>
      <point x="416.563" y="251.17"/>
      <point x="418.948" y="243.18" type="curve" smooth="yes"/>
      <point x="419.891" y="240.021"/>
      <point x="419.754" y="237.457"/>
      <point x="420.438" y="234.267" type="curve" smooth="yes"/>
      <point x="420.806" y="232.548"/>
      <point x="421.495" y="229.852"/>
      <point x="421.819" y="226.121" type="curve" smooth="yes"/>
      <point x="423.637" y="220.528"/>
      <point x="425.995" y="214.651"/>
      <point x="425.995" y="206" type="curve" smooth="yes"/>
      <point x="425.995" y="202.98"/>
      <point x="426.977" y="195.778"/>
      <point x="428.367" y="187.377" type="curve" smooth="yes"/>
      <point x="429.962" y="177.737"/>
      <point x="431.995" y="166.356"/>
      <point x="431.995" y="154" type="curve" smooth="yes"/>
      <point x="431.995" y="137.478"/>
      <point x="428.755" y="122.126"/>
    </contour>
  </outline>
</glyph>
<glyph name="seven" format="2">
  <advance width="635"/>
  <unicode hex="0037"/>
  <outline>
    <contour>
      <point x="53" y="633" type="line"/>
      <point x="53" y="704" type="line"/>
      <point x="582" y="704" type="line"/>
      <point x="582" y="633" type="line"/>
      <point x="488.667" y="567"/>
      <point x="420" y="478"/>
      <point x="376" y="366" type="curve" smooth="yes"/>
      <point x="332" y="254"/>
      <point x="310" y="132"/>
      <point x="310" y="0" type="curve"/>
      <point x="216" y="0" type="line"/>
      <point x="216" y="126.667"/>
      <point x="236.833" y="245.5"/>
      <point x="278.5" y="356.5" type="curve" smooth="yes"/>
      <point x="320.167" y="467.5"/>
      <point x="384.333" y="559.667"/>
      <point x="471" y="633" type="curve"/>
    </contour>
  </outline>
</glyph>
<glyph name="eight" format="2">
  <advance width="635"/>
  <unicode hex="0038"/>
  <outline>
    <contour>
      <point x="53" y="214" type="curve"/>
      <point x="53" y="252.667"/>
      <point x="65.8333" y="287"/>
      <point x="91.5" y="317" type="curve" smooth="yes"/>
      <point x="117.167" y="347"/>
      <point x="150" y="369.333"/>
      <point x="190" y="384" type="curve"/>
      <point x="158" y="402"/>
      <point x="132.167" y="423.333"/>
      <point x="112.5" y="448" type="curve" smooth="yes"/>
      <point x="92.8333" y="472.667"/>
      <point x="83" y="500"/>
      <point x="83" y="530" type="curve" smooth="yes"/>
      <point x="83" y="584"/>
      <point x="105.5" y="628.167"/>
      <point x="150.5" y="662.5" type="curve" smooth="yes"/>
      <point x="195.5" y="696.833"/>
      <point x="248.667" y="714"/>
      <point x="310" y="714" type="curve" smooth="yes"/>
      <point x="373.333" y="714"/>
      <point x="428.5" y="697.167"/>
      <point x="475.5" y="663.5" type="curve" smooth="yes"/>
      <point x="522.5" y="629.833"/>
      <point x="546" y="585.333"/>
      <point x="546" y="530" type="curve" smooth="yes"/>
      <point x="546" y="500"/>
      <point x="536.667" y="472.5"/>
      <point x="518" y="447.5" type="curve" smooth="yes"/>
      <point x="499.333" y="422.5"/>
      <point x="475" y="401.333"/>
      <point x="445" y="384" type="curve"/>
      <point x="485" y="369.333"/>
      <point x="517.833" y="347"/>
      <point x="543.5" y="317" type="curve" smooth="yes"/>
      <point x="569.167" y="287"/>
      <point x="582" y="252.667"/>
      <point x="582" y="214" type="curve" smooth="yes"/>
      <point x="582" y="148"/>
      <point x="554.833" y="93.3333"/>
      <point x="500.5" y="50" type="curve" smooth="yes"/>
      <point x="446.167" y="6.66667"/>
      <point x="382.667" y="-15"/>
      <point x="310" y="-15" type="curve" smooth="yes"/>
      <point x="240.667" y="-15"/>
      <point x="180.5" y="6.83333"/>
      <point x="129.5" y="50.5" type="curve" smooth="yes"/>
      <point x="78.5" y="94.1667"/>
      <point x="53" y="148.667"/>
    </contour>
    <contour>
      <point x="128" y="214" type="curve"/>
      <point x="128" y="170.667"/>
      <point x="146.167" y="135.333"/>
      <point x="182.5" y="108" type="curve" smooth="yes"/>
      <point x="218.833" y="80.6667"/>
      <point x="261.333" y="67"/>
      <point x="310" y="67" type="curve" smooth="yes"/>
      <point x="360.667" y="67"/>
      <point x="405.167" y="80.5"/>
      <point x="443.5" y="107.5" type="curve" smooth="yes"/>
      <point x="481.833" y="134.5"/>
      <point x="501" y="170"/>
      <point x="501" y="214" type="curve" smooth="yes"/>
      <point x="501" y="256"/>
      <point x="482" y="288.333"/>
      <point x="444" y="311" type="curve" smooth="yes"/>
      <point x="406" y="333.667"/>
      <point x="361.333" y="345"/>
      <point x="310" y="345" type="curve" smooth="yes"/>
      <point x="261.333" y="345"/>
      <point x="218.833" y="333.5"/>
      <point x="182.5" y="310.5" type="curve" smooth="yes"/>
      <point x="146.167" y="287.5"/>
      <point x="128" y="255.333"/>
    </contour>
    <contour>
      <point x="164" y="530" type="curve"/>
      <point x="164" y="496"/>
      <point x="178.667" y="469"/>
      <point x="208" y="449" type="curve" smooth="yes"/>
      <point x="237.333" y="429"/>
      <point x="271.333" y="419"/>
      <point x="310" y="419" type="curve" smooth="yes"/>
      <point x="352" y="419"/>
      <point x="388.333" y="428.833"/>
      <point x="419" y="448.5" type="curve" smooth="yes"/>
      <point x="449.667" y="468.167"/>
      <point x="465" y="495.333"/>
      <point x="465" y="530" type="curve" smooth="yes"/>
      <point x="465" y="564.667"/>
      <point x="449.667" y="591.5"/>
      <point x="419" y="610.5" type="curve" smooth="yes"/>
      <point x="388.333" y="629.5"/>
      <point x="352" y="639"/>
      <point x="310" y="639" type="curve" smooth="yes"/>
      <point x="271.333" y="639"/>
      <point x="237.333" y="629.333"/>
      <point x="208" y="610" type="curve" smooth="yes"/>
      <point x="178.667" y="590.667"/>
      <point x="164" y="564"/>
    </contour>
  </outline>
</glyph>
<glyph name="nine" format="2">
  <advance width="460"/>
  <unicode hex="0039"/>
  <outline>
    <contour>
      <point x="51" y="681" type="curve" smooth="yes"/>
      <point x="51" y="688"/>
      <point x="49" y="695"/>
      <point x="49" y="702" type="curve" smooth="yes"/>
      <point x="49" y="712"/>
      <point x="52" y="721"/>
      <point x="54" y="726" type="curve" smooth="yes"/>
      <point x="55" y="732"/>
      <point x="56" y="735"/>
      <point x="56" y="736" type="curve" smooth="yes"/>
      <point x="56" y="747"/>
      <point x="60" y="756"/>
      <point x="64" y="762" type="curve" smooth="yes"/>
      <point x="71" y="774"/>
      <point x="82" y="782"/>
      <point x="88" y="792" type="curve" smooth="yes"/>
      <point x="93" y="798"/>
      <point x="101" y="803"/>
      <point x="109" y="803" type="curve" smooth="yes"/>
      <point x="245" y="803" type="line" smooth="yes"/>
      <point x="246" y="803"/>
      <point x="247" y="803"/>
      <point x="248" y="803" type="curve" smooth="yes"/>
      <point x="296" y="797" type="line" smooth="yes"/>
      <point x="300" y="796"/>
      <point x="304" y="795"/>
      <point x="307" y="793" type="curve" smooth="yes"/>
      <point x="345" y="767" type="line" smooth="yes"/>
      <point x="348" y="765"/>
      <point x="350" y="762"/>
      <point x="352" y="759" type="curve" smooth="yes"/>
      <point x="358" y="749"/>
      <point x="363" y="742"/>
      <point x="371" y="733" type="curve" smooth="yes"/>
      <point x="384" y="719"/>
      <point x="388" y="704"/>
      <point x="392" y="693" type="curve" smooth="yes"/>
      <point x="393" y="687"/>
      <point x="396" y="683"/>
      <point x="396" y="676" type="curve" smooth="yes"/>
      <point x="396" y="675"/>
      <point x="396" y="674"/>
      <point x="398" y="669" type="curve" smooth="yes"/>
      <point x="399" y="666"/>
      <point x="401" y="660"/>
      <point x="402" y="654" type="curve" smooth="yes"/>
      <point x="404" y="636"/>
      <point x="411" y="610"/>
      <point x="415" y="591" type="curve" smooth="yes"/>
      <point x="416" y="590"/>
      <point x="416" y="588"/>
      <point x="416" y="586" type="curve" smooth="yes"/>
      <point x="416" y="581"/>
      <point x="418" y="575"/>
      <point x="418" y="568" type="curve" smooth="yes"/>
      <point x="419" y="565"/>
      <point x="420" y="562"/>
      <point x="420" y="559" type="curve" smooth="yes"/>
      <point x="422" y="465" type="line"/>
      <point x="430" y="384" type="line" smooth="yes"/>
      <point x="430" y="384"/>
      <point x="430" y="383"/>
      <point x="430" y="382" type="curve" smooth="yes"/>
      <point x="432" y="228" type="line" smooth="yes"/>
      <point x="432" y="227"/>
      <point x="432" y="226"/>
      <point x="432" y="226" type="curve" smooth="yes"/>
      <point x="428" y="182" type="line" smooth="yes"/>
      <point x="428" y="178"/>
      <point x="427" y="174"/>
      <point x="426" y="169" type="curve" smooth="yes"/>
      <point x="425" y="158"/>
      <point x="423" y="144"/>
      <point x="419" y="131" type="curve" smooth="yes"/>
      <point x="417" y="126"/>
      <point x="415" y="119"/>
      <point x="414" y="113" type="curve" smooth="yes"/>
      <point x="413" y="109"/>
      <point x="412" y="105"/>
      <point x="412" y="102" type="curve" smooth="yes"/>
      <point x="412" y="71"/>
      <point x="394" y="45"/>
      <point x="376" y="27" type="curve" smooth="yes"/>
      <point x="366" y="16"/>
      <point x="355" y="8"/>
      <point x="343" y="3" type="curve" smooth="yes"/>
      <point x="329" y="-3"/>
      <point x="316" y="-11"/>
      <point x="296" y="-15" type="curve" smooth="yes"/>
      <point x="294" y="-15"/>
      <point x="293" y="-15"/>
      <point x="291" y="-15" type="curve" smooth="yes"/>
      <point x="285" y="-15"/>
      <point x="278" y="-13"/>
      <point x="273" y="-8" type="curve" smooth="yes"/>
      <point x="268" y="-3"/>
      <point x="266" y="4"/>
      <point x="266" y="10" type="curve" smooth="yes"/>
      <point x="266" y="22"/>
      <point x="275" y="32"/>
      <point x="286" y="35" type="curve" smooth="yes"/>
      <point x="297" y="37"/>
      <point x="312" y="44"/>
      <point x="323" y="49" type="curve" smooth="yes"/>
      <point x="327" y="50"/>
      <point x="334" y="55"/>
      <point x="341" y="62" type="curve" smooth="yes"/>
      <point x="353" y="75"/>
      <point x="362" y="92"/>
      <point x="362" y="102" type="curve" smooth="yes"/>
      <point x="362" y="110"/>
      <point x="363" y="113"/>
      <point x="364" y="118" type="curve" smooth="yes"/>
      <point x="364" y="121"/>
      <point x="364" y="123"/>
      <point x="365" y="126" type="curve" smooth="yes"/>
      <point x="366" y="129"/>
      <point x="370" y="140"/>
      <point x="371" y="145" type="curve" smooth="yes"/>
      <point x="374" y="156"/>
      <point x="376" y="173"/>
      <point x="378" y="187" type="curve" smooth="yes"/>
      <point x="382" y="229" type="line"/>
      <point x="380" y="381" type="line"/>
      <point x="372" y="462" type="line" smooth="yes"/>
      <point x="372" y="462"/>
      <point x="372" y="463"/>
      <point x="372" y="463" type="curve" smooth="yes"/>
      <point x="370" y="554" type="line" smooth="yes"/>
      <point x="369" y="555"/>
      <point x="368" y="561"/>
      <point x="368" y="564" type="curve" smooth="yes"/>
      <point x="368" y="565"/>
      <point x="368" y="565"/>
      <point x="368" y="566" type="curve" smooth="yes"/>
      <point x="368" y="571"/>
      <point x="366" y="577"/>
      <point x="366" y="583" type="curve" smooth="yes"/>
      <point x="362" y="603"/>
      <point x="355" y="625"/>
      <point x="352" y="646" type="curve" smooth="yes"/>
      <point x="351" y="654"/>
      <point x="347" y="660"/>
      <point x="346" y="671" type="curve" smooth="yes"/>
      <point x="345" y="673"/>
      <point x="345" y="676"/>
      <point x="344" y="678" type="curve" smooth="yes"/>
      <point x="340" y="689"/>
      <point x="337" y="696"/>
      <point x="335" y="699" type="curve" smooth="yes"/>
      <point x="325" y="710"/>
      <point x="318" y="719"/>
      <point x="313" y="728" type="curve"/>
      <point x="284" y="748" type="line"/>
      <point x="243" y="753" type="line"/>
      <point x="121" y="753" type="line" smooth="yes"/>
      <point x="120" y="751"/>
      <point x="118" y="750"/>
      <point x="117" y="748" type="curve" smooth="yes"/>
      <point x="111" y="741"/>
      <point x="107" y="736"/>
      <point x="106" y="734" type="curve" smooth="yes"/>
      <point x="106" y="725"/>
      <point x="103" y="717"/>
      <point x="102" y="712" type="curve" smooth="yes"/>
      <point x="100" y="706"/>
      <point x="100" y="703"/>
      <point x="100" y="701" type="curve" smooth="yes"/>
      <point x="100" y="701"/>
      <point x="100" y="701"/>
      <point x="100" y="700" type="curve" smooth="yes"/>
      <point x="101" y="693"/>
      <point x="101" y="687"/>
      <point x="101" y="680" type="curve" smooth="yes"/>
      <point x="101" y="664"/>
      <point x="98" y="649"/>
      <point x="98" y="634" type="curve" smooth="yes"/>
      <point x="98" y="619"/>
      <point x="104" y="600"/>
      <point x="104" y="583" type="curve" smooth="yes"/>
      <point x="104" y="581"/>
      <point x="106" y="577"/>
      <point x="107" y="574" type="curve" smooth="yes"/>
      <point x="107" y="573"/>
      <point x="108" y="573"/>
      <point x="108" y="566" type="curve" smooth="yes"/>
      <point x="108" y="564"/>
      <point x="109" y="562"/>
      <point x="109" y="559" type="curve" smooth="yes"/>
      <point x="115" y="557"/>
      <point x="121" y="556"/>
      <point x="130" y="556" type="curve" smooth="yes"/>
      <point x="137" y="555"/>
      <point x="144" y="555"/>
      <point x="151" y="553" type="curve" smooth="yes"/>
      <point x="151" y="553"/>
      <point x="152" y="553"/>
      <point x="152" y="553" type="curve" smooth="yes"/>
      <point x="166" y="553"/>
      <point x="180" y="549"/>
      <point x="196" y="546" type="curve" smooth="yes"/>
      <point x="213" y="542"/>
      <point x="227" y="538"/>
      <point x="241" y="538" type="curve"/>
      <point x="241" y="548"/>
      <point x="245" y="556"/>
      <point x="245" y="563" type="curve" smooth="yes"/>
      <point x="245" y="576"/>
      <point x="246" y="591"/>
      <point x="247" y="604" type="curve" smooth="yes"/>
      <point x="247" y="610"/>
      <point x="250" y="616"/>
      <point x="254" y="621" type="curve" smooth="yes"/>
      <point x="259" y="626"/>
      <point x="266" y="628"/>
      <point x="272" y="628" type="curve" smooth="yes"/>
      <point x="278" y="628"/>
      <point x="285" y="626"/>
      <point x="290" y="621" type="curve" smooth="yes"/>
      <point x="295" y="616"/>
      <point x="297" y="609"/>
      <point x="297" y="603" type="curve" smooth="yes"/>
      <point x="297" y="591"/>
      <point x="295" y="574"/>
      <point x="295" y="563" type="curve" smooth="yes"/>
      <point x="295" y="554"/>
      <point x="293" y="546"/>
      <point x="292" y="542" type="curve" smooth="yes"/>
      <point x="291" y="537"/>
      <point x="291" y="535"/>
      <point x="291" y="535" type="curve" smooth="yes"/>
      <point x="291" y="533"/>
      <point x="291" y="530"/>
      <point x="291" y="528" type="curve" smooth="yes"/>
      <point x="291" y="519"/>
      <point x="288" y="508"/>
      <point x="280" y="501" type="curve" smooth="yes"/>
      <point x="274" y="494"/>
      <point x="266" y="491"/>
      <point x="260" y="490" type="curve" smooth="yes"/>
      <point x="254" y="488"/>
      <point x="249" y="488"/>
      <point x="244" y="488" type="curve" smooth="yes"/>
      <point x="223" y="488"/>
      <point x="204" y="493"/>
      <point x="185" y="497" type="curve" smooth="yes"/>
      <point x="169" y="501"/>
      <point x="154" y="503"/>
      <point x="151" y="503" type="curve" smooth="yes"/>
      <point x="150" y="503"/>
      <point x="150" y="503"/>
      <point x="149" y="503" type="curve" smooth="yes"/>
      <point x="147" y="503"/>
      <point x="145" y="503"/>
      <point x="144" y="504" type="curve" smooth="yes"/>
      <point x="130" y="507"/>
      <point x="114" y="506"/>
      <point x="99" y="510" type="curve" smooth="yes"/>
      <point x="91" y="512"/>
      <point x="81" y="516"/>
      <point x="73" y="524" type="curve" smooth="yes"/>
      <point x="68" y="530"/>
      <point x="63" y="537"/>
      <point x="61" y="545" type="curve" smooth="yes"/>
      <point x="60" y="548"/>
      <point x="60" y="551"/>
      <point x="60" y="554" type="curve" smooth="yes"/>
      <point x="59" y="555"/>
      <point x="59" y="558"/>
      <point x="58" y="562" type="curve" smooth="yes"/>
      <point x="56" y="567"/>
      <point x="54" y="573"/>
      <point x="54" y="582" type="curve" smooth="yes"/>
      <point x="54" y="585"/>
      <point x="53" y="592"/>
      <point x="52" y="601" type="curve" smooth="yes"/>
      <point x="50" y="610"/>
      <point x="48" y="622"/>
      <point x="48" y="634" type="curve" smooth="yes"/>
      <point x="48" y="651"/>
      <point x="51" y="666"/>
    </contour>
  </outline>
</glyph>
<glyph name="colon" format="2">
  <advance width="134"/>
  <unicode hex="003A"/>
  <outline>
    <contour>
      <point x="30" y="464" type="curve" smooth="yes"/>
      <point x="41" y="477"/>
      <point x="54" y="482"/>
      <point x="71.249" y="479.445" type="curve" smooth="yes"/>
      <point x="88" y="477"/>
      <point x="99" y="468"/>
      <point x="105.249" y="451.445" type="curve" smooth="yes"/>
      <point x="111" y="435"/>
      <point x="109" y="421"/>
      <point x="98" y="408" type="curve" smooth="yes"/>
      <point x="87" y="395"/>
      <point x="74" y="390"/>
      <point x="56.751" y="392.555" type="curve" smooth="yes"/>
      <point x="40" y="395"/>
      <point x="29" y="404"/>
      <point x="22.751" y="420.555" type="curve" smooth="yes"/>
      <point x="17" y="437"/>
      <point x="19" y="451"/>
    </contour>
    <contour>
      <point x="30" y="178" type="curve" smooth="yes"/>
      <point x="41" y="191"/>
      <point x="54" y="196"/>
      <point x="71.249" y="193.445" type="curve" smooth="yes"/>
      <point x="88" y="191"/>
      <point x="99" y="182"/>
      <point x="105.249" y="165.445" type="curve" smooth="yes"/>
      <point x="111" y="149"/>
      <point x="109" y="135"/>
      <point x="98" y="122" type="curve" smooth="yes"/>
      <point x="87" y="109"/>
      <point x="74" y="104"/>
      <point x="56.751" y="106.555" type="curve" smooth="yes"/>
      <point x="40" y="109"/>
      <point x="29" y="118"/>
      <point x="22.751" y="134.555" type="curve" smooth="yes"/>
      <point x="17" y="151"/>
      <point x="19" y="165"/>
    </contour>
  </outline>
</glyph>
<glyph name="semicolon" format="2">
  <advance width="366"/>
  <unicode hex="003B"/>
  <outline>
    <contour>
      <point x="100" y="-133" type="line"/>
      <point x="160" y="100" type="line"/>
      <point x="266" y="100" type="line"/>
      <point x="160" y="-133" type="line"/>
    </contour>
    <contour>
      <point x="160" y="353" type="line"/>
      <point x="160" y="426" type="line"/>
      <point x="253" y="426" type="line"/>
      <point x="253" y="353" type="line"/>
    </contour>
  </outline>
</glyph>
<glyph name="less" format="2">
  <advance width="416"/>
  <unicode hex="003C"/>
  <outline>
    <contour>
      <point x="324" y="455" type="curve" smooth="yes"/>
      <point x="330" y="455"/>
      <point x="337" y="453"/>
      <point x="342" y="448" type="curve" smooth="yes"/>
      <point x="347" y="443"/>
      <point x="349" y="436"/>
      <point x="349" y="430" type="curve" smooth="yes"/>
      <point x="349" y="421"/>
      <point x="343" y="412"/>
      <point x="336" y="408" type="curve" smooth="yes"/>
      <point x="298" y="388"/>
      <point x="258" y="381"/>
      <point x="221" y="374" type="curve" smooth="yes"/>
      <point x="197" y="369"/>
      <point x="174" y="364"/>
      <point x="156" y="358" type="curve" smooth="yes"/>
      <point x="142" y="352"/>
      <point x="131" y="346"/>
      <point x="124" y="339" type="curve" smooth="yes"/>
      <point x="115" y="330"/>
      <point x="109" y="316"/>
      <point x="109" y="295" type="curve" smooth="yes"/>
      <point x="109" y="275"/>
      <point x="115" y="263"/>
      <point x="126" y="252" type="curve" smooth="yes"/>
      <point x="143" y="236"/>
      <point x="174" y="222"/>
      <point x="210" y="207" type="curve" smooth="yes"/>
      <point x="245" y="192"/>
      <point x="284" y="176"/>
      <point x="318" y="150" type="curve" smooth="yes"/>
      <point x="323" y="145"/>
      <point x="327" y="137"/>
      <point x="327" y="130" type="curve" smooth="yes"/>
      <point x="327" y="124"/>
      <point x="325" y="117"/>
      <point x="320" y="112" type="curve" smooth="yes"/>
      <point x="315" y="107"/>
      <point x="308" y="105"/>
      <point x="302" y="105" type="curve" smooth="yes"/>
      <point x="296" y="105"/>
      <point x="291" y="107"/>
      <point x="286" y="110" type="curve" smooth="yes"/>
      <point x="260" y="131"/>
      <point x="226" y="146"/>
      <point x="191" y="161" type="curve" smooth="yes"/>
      <point x="132" y="185"/>
      <point x="59" y="213"/>
      <point x="59" y="296" type="curve" smooth="yes"/>
      <point x="59" y="330"/>
      <point x="70" y="356"/>
      <point x="89" y="374" type="curve" smooth="yes"/>
      <point x="118" y="404"/>
      <point x="164" y="413"/>
      <point x="212" y="423" type="curve" smooth="yes"/>
      <point x="248" y="430"/>
      <point x="284" y="437"/>
      <point x="312" y="452" type="curve" smooth="yes"/>
      <point x="316" y="454"/>
      <point x="320" y="455"/>
    </contour>
  </outline>
</glyph>
<glyph name="equal" format="2">
  <advance width="375"/>
  <unicode hex="003D"/>
  <outline>
    <contour>
      <point x="67" y="360" type="curve" smooth="yes"/>
      <point x="61" y="360"/>
      <point x="54" y="362"/>
      <point x="49" y="367" type="curve" smooth="yes"/>
      <point x="44" y="372"/>
      <point x="42" y="379"/>
      <point x="42" y="385" type="curve" smooth="yes"/>
      <point x="42" y="396"/>
      <point x="50" y="406"/>
      <point x="61" y="409" type="curve" smooth="yes"/>
      <point x="72" y="412"/>
      <point x="83" y="417"/>
      <point x="99" y="418" type="curve" smooth="yes"/>
      <point x="129" y="420"/>
      <point x="147" y="428"/>
      <point x="179" y="428" type="curve" smooth="yes"/>
      <point x="181" y="428"/>
      <point x="184" y="428"/>
      <point x="186" y="428" type="curve" smooth="yes"/>
      <point x="206" y="427"/>
      <point x="220" y="426"/>
      <point x="239" y="421" type="curve" smooth="yes"/>
      <point x="241" y="421"/>
      <point x="242" y="420"/>
      <point x="243" y="420" type="curve" smooth="yes"/>
      <point x="301" y="394" type="line" smooth="yes"/>
      <point x="302" y="394"/>
      <point x="303" y="393"/>
      <point x="303" y="393" type="curve" smooth="yes"/>
      <point x="335" y="375" type="line" smooth="yes"/>
      <point x="342" y="371"/>
      <point x="348" y="362"/>
      <point x="348" y="353" type="curve" smooth="yes"/>
      <point x="348" y="347"/>
      <point x="346" y="340"/>
      <point x="341" y="335" type="curve" smooth="yes"/>
      <point x="336" y="330"/>
      <point x="329" y="328"/>
      <point x="323" y="328" type="curve" smooth="yes"/>
      <point x="319" y="328"/>
      <point x="315" y="329"/>
      <point x="311" y="331" type="curve" smooth="yes"/>
      <point x="280" y="349" type="line"/>
      <point x="225" y="373" type="line"/>
      <point x="211" y="377"/>
      <point x="204" y="377"/>
      <point x="184" y="378" type="curve" smooth="yes"/>
      <point x="182" y="378"/>
      <point x="180" y="378"/>
      <point x="179" y="378" type="curve" smooth="yes"/>
      <point x="167" y="378"/>
      <point x="157" y="376"/>
      <point x="144" y="374" type="curve" smooth="yes"/>
      <point x="133" y="372"/>
      <point x="119" y="369"/>
      <point x="103" y="368" type="curve" smooth="yes"/>
      <point x="97" y="368"/>
      <point x="82" y="363"/>
      <point x="73" y="361" type="curve" smooth="yes"/>
      <point x="71" y="360"/>
      <point x="69" y="360"/>
    </contour>
    <contour>
      <point x="67" y="234" type="curve" smooth="yes"/>
      <point x="61" y="234"/>
      <point x="54" y="236"/>
      <point x="49" y="241" type="curve" smooth="yes"/>
      <point x="44" y="246"/>
      <point x="42" y="253"/>
      <point x="42" y="259" type="curve" smooth="yes"/>
      <point x="42" y="270"/>
      <point x="50" y="280"/>
      <point x="61" y="283" type="curve" smooth="yes"/>
      <point x="72" y="286"/>
      <point x="83" y="291"/>
      <point x="99" y="292" type="curve" smooth="yes"/>
      <point x="129" y="294"/>
      <point x="147" y="302"/>
      <point x="179" y="302" type="curve" smooth="yes"/>
      <point x="181" y="302"/>
      <point x="184" y="302"/>
      <point x="186" y="302" type="curve" smooth="yes"/>
      <point x="206" y="301"/>
      <point x="220" y="300"/>
      <point x="239" y="295" type="curve" smooth="yes"/>
      <point x="241" y="295"/>
      <point x="242" y="294"/>
      <point x="243" y="294" type="curve" smooth="yes"/>
      <point x="301" y="268" type="line" smooth="yes"/>
      <point x="302" y="268"/>
      <point x="303" y="267"/>
      <point x="303" y="267" type="curve" smooth="yes"/>
      <point x="335" y="249" type="line" smooth="yes"/>
      <point x="342" y="245"/>
      <point x="348" y="236"/>
      <point x="348" y="227" type="curve" smooth="yes"/>
      <point x="348" y="221"/>
      <point x="346" y="214"/>
      <point x="341" y="209" type="curve" smooth="yes"/>
      <point x="336" y="204"/>
      <point x="329" y="202"/>
      <point x="323" y="202" type="curve" smooth="yes"/>
      <point x="319" y="202"/>
      <point x="315" y="203"/>
      <point x="311" y="205" type="curve" smooth="yes"/>
      <point x="280" y="223" type="line"/>
      <point x="225" y="247" type="line"/>
      <point x="211" y="251"/>
      <point x="204" y="251"/>
      <point x="184" y="252" type="curve" smooth="yes"/>
      <point x="182" y="252"/>
      <point x="180" y="252"/>
      <point x="179" y="252" type="curve" smooth="yes"/>
      <point x="167" y="252"/>
      <point x="157" y="250"/>
      <point x="144" y="248" type="curve" smooth="yes"/>
      <point x="133" y="246"/>
      <point x="119" y="243"/>
      <point x="103" y="242" type="curve" smooth="yes"/>
      <point x="97" y="242"/>
      <point x="82" y="237"/>
      <point x="73" y="235" type="curve" smooth="yes"/>
      <point x="71" y="234"/>
      <point x="69" y="234"/>
    </contour>
  </outline>
</glyph>
<glyph name="greater" format="2">
  <advance width="416"/>
  <unicode hex="003E"/>
  <outline>
    <contour>
      <point x="84" y="455" type="curve" smooth="yes"/>
      <point x="77" y="455"/>
      <point x="71" y="453"/>
      <point x="66" y="448" type="curve" smooth="yes"/>
      <point x="61" y="443"/>
      <point x="59" y="436"/>
      <point x="59" y="430" type="curve" smooth="yes"/>
      <point x="59" y="421"/>
      <point x="65" y="412"/>
      <point x="72" y="408" type="curve" smooth="yes"/>
      <point x="109" y="388"/>
      <point x="150" y="381"/>
      <point x="186" y="374" type="curve" smooth="yes"/>
      <point x="211" y="369"/>
      <point x="234" y="364"/>
      <point x="251" y="358" type="curve" smooth="yes"/>
      <point x="266" y="352"/>
      <point x="276" y="346"/>
      <point x="284" y="339" type="curve" smooth="yes"/>
      <point x="293" y="330"/>
      <point x="299" y="316"/>
      <point x="299" y="295" type="curve" smooth="yes"/>
      <point x="299" y="275"/>
      <point x="293" y="263"/>
      <point x="282" y="252" type="curve" smooth="yes"/>
      <point x="265" y="236"/>
      <point x="234" y="222"/>
      <point x="198" y="207" type="curve" smooth="yes"/>
      <point x="163" y="192"/>
      <point x="124" y="176"/>
      <point x="90" y="150" type="curve" smooth="yes"/>
      <point x="84" y="145"/>
      <point x="81" y="137"/>
      <point x="81" y="130" type="curve" smooth="yes"/>
      <point x="81" y="124"/>
      <point x="83" y="117"/>
      <point x="88" y="112" type="curve" smooth="yes"/>
      <point x="93" y="107"/>
      <point x="99" y="105"/>
      <point x="106" y="105" type="curve" smooth="yes"/>
      <point x="111" y="105"/>
      <point x="117" y="107"/>
      <point x="121" y="110" type="curve" smooth="yes"/>
      <point x="147" y="131"/>
      <point x="182" y="146"/>
      <point x="217" y="161" type="curve" smooth="yes"/>
      <point x="276" y="185"/>
      <point x="349" y="213"/>
      <point x="349" y="296" type="curve" smooth="yes"/>
      <point x="349" y="330"/>
      <point x="338" y="356"/>
      <point x="319" y="374" type="curve" smooth="yes"/>
      <point x="289" y="404"/>
      <point x="244" y="413"/>
      <point x="196" y="423" type="curve" smooth="yes"/>
      <point x="160" y="430"/>
      <point x="124" y="437"/>
      <point x="95" y="452" type="curve" smooth="yes"/>
      <point x="92" y="454"/>
      <point x="88" y="455"/>
    </contour>
  </outline>
</glyph>
<glyph name="question" format="2">
  <advance width="336"/>
  <unicode hex="003F"/>
  <outline>
    <contour>
      <point x="130.15" y="649.209" type="curve" smooth="yes"/>
      <point x="131.908" y="641.051"/>
      <point x="135.995" y="635.228"/>
      <point x="135.995" y="622" type="curve" smooth="yes"/>
      <point x="135.995" y="618" type="line" smooth="yes"/>
      <point x="135.995" y="611.6"/>
      <point x="133.556" y="605.201"/>
      <point x="128.678" y="600.322" type="curve" smooth="yes"/>
      <point x="123.799" y="595.444"/>
      <point x="117.4" y="593.005"/>
      <point x="111" y="593.005" type="curve" smooth="yes"/>
      <point x="104.6" y="593.005"/>
      <point x="98.2006" y="595.444"/>
      <point x="93.3223" y="600.322" type="curve" smooth="yes"/>
      <point x="88.444" y="605.201"/>
      <point x="86.0049" y="611.6"/>
      <point x="86.0049" y="618" type="curve" smooth="yes"/>
      <point x="86.0049" y="621.632" type="line"/>
      <point x="84.189" y="629.803"/>
      <point x="80.0049" y="636.353"/>
      <point x="80.0049" y="650" type="curve" smooth="yes"/>
      <point x="80.0049" y="651.235"/>
      <point x="80.0958" y="652.47"/>
      <point x="80.2775" y="653.695" type="curve" smooth="yes"/>
      <point x="79.4894" y="658.472"/>
      <point x="78.1056" y="661.815"/>
      <point x="78.0069" y="669.684" type="curve" smooth="yes"/>
      <point x="77.8535" y="681.912"/>
      <point x="76.0049" y="696.262"/>
      <point x="76.0049" y="710" type="curve" smooth="yes"/>
      <point x="76.0049" y="712.02"/>
      <point x="76.2478" y="714.039"/>
      <point x="76.7337" y="716.011" type="curve" smooth="yes"/>
      <point x="85.9854" y="753.559"/>
      <point x="100.689" y="792.943"/>
      <point x="137.372" y="805.373" type="curve" smooth="yes"/>
      <point x="144.462" y="807.776"/>
      <point x="152.034" y="808.948"/>
      <point x="159.87" y="808.948" type="curve" smooth="yes"/>
      <point x="165.52" y="808.948"/>
      <point x="171.307" y="808.339"/>
      <point x="177.149" y="807.142" type="curve" smooth="yes"/>
      <point x="179.54" y="807.241"/>
      <point x="181.945" y="807.291"/>
      <point x="184.36" y="807.291" type="curve" smooth="yes"/>
      <point x="203.91" y="807.291"/>
      <point x="224.134" y="804.033"/>
      <point x="243.05" y="797.483" type="curve" smooth="yes"/>
      <point x="278.972" y="785.044"/>
      <point x="316.546" y="756.912"/>
      <point x="316.546" y="709.967" type="curve" smooth="yes"/>
      <point x="316.546" y="707.53"/>
      <point x="316.437" y="705.06"/>
      <point x="316.212" y="702.558" type="curve" smooth="yes"/>
      <point x="316.842" y="697.969"/>
      <point x="317.115" y="693.557"/>
      <point x="317.115" y="689.331" type="curve" smooth="yes"/>
      <point x="317.115" y="665.169"/>
      <point x="309.462" y="651.19"/>
      <point x="305.28" y="634.046" type="curve" smooth="yes"/>
      <point x="302.804" y="623.894"/>
      <point x="296.226" y="610.217"/>
      <point x="293.989" y="603.17" type="curve" smooth="yes"/>
      <point x="293.88" y="596.076"/>
      <point x="292.501" y="592.295"/>
      <point x="291.995" y="587.912" type="curve" smooth="yes"/>
      <point x="291.989" y="586.125"/>
      <point x="291.792" y="584.34"/>
      <point x="291.406" y="582.588" type="curve" smooth="yes"/>
      <point x="283.739" y="547.816"/>
      <point x="269.93" y="514.514"/>
      <point x="249.414" y="485.562" type="curve" smooth="yes"/>
      <point x="229.208" y="457.048"/>
      <point x="202.201" y="425.067"/>
      <point x="184.789" y="394.792" type="curve" smooth="yes"/>
      <point x="175.109" y="377.962"/>
      <point x="170.214" y="363.32"/>
      <point x="170.002" y="356.455" type="curve" smooth="yes"/>
      <point x="170.062" y="355.083"/>
      <point x="170.09" y="353.733"/>
      <point x="170.09" y="352.404" type="curve" smooth="yes"/>
      <point x="170.09" y="338.571"/>
      <point x="167.541" y="329.026"/>
      <point x="165.995" y="318.291" type="curve"/>
      <point x="165.995" y="270" type="line" smooth="yes"/>
      <point x="165.995" y="268.91"/>
      <point x="166.569" y="263.79"/>
      <point x="167.469" y="257.767" type="curve" smooth="yes"/>
      <point x="168.548" y="250.55"/>
      <point x="169.989" y="241.78"/>
      <point x="169.995" y="232.065" type="curve" smooth="yes"/>
      <point x="170.024" y="231.769"/>
      <point x="170.585" y="228.757"/>
      <point x="171.787" y="224.22" type="curve" smooth="yes"/>
      <point x="173.391" y="218.165"/>
      <point x="175.995" y="209.236"/>
      <point x="175.995" y="198" type="curve" smooth="yes"/>
      <point x="175.995" y="196.439"/>
      <point x="176.075" y="196.055"/>
      <point x="177.59" y="191.593" type="curve" smooth="yes"/>
      <point x="179.087" y="187.188"/>
      <point x="181.995" y="178.617"/>
      <point x="181.995" y="168" type="curve" smooth="yes"/>
      <point x="181.995" y="164.189"/>
      <point x="185.216" y="150.983"/>
      <point x="189.044" y="143.248" type="curve"/>
      <point x="193.657" y="147.079"/>
      <point x="199.328" y="148.995"/>
      <point x="205" y="148.995" type="curve" smooth="yes"/>
      <point x="212.437" y="148.995"/>
      <point x="219.344" y="145.189"/>
      <point x="223.502" y="141.031" type="curve" smooth="yes"/>
      <point x="229.893" y="134.64"/>
      <point x="231.318" y="128.596"/>
      <point x="232.236" y="124.774" type="curve" smooth="yes"/>
      <point x="233.673" y="118.791"/>
      <point x="233.618" y="115.724"/>
      <point x="233.999" y="111.81" type="curve" smooth="yes"/>
      <point x="235.33" y="108.685"/>
      <point x="235.995" y="105.342"/>
      <point x="235.995" y="102" type="curve" smooth="yes"/>
      <point x="235.995" y="101.605"/>
      <point x="236.01" y="101.199"/>
      <point x="236.01" y="100.713" type="curve" smooth="yes"/>
      <point x="236.01" y="99.7246"/>
      <point x="235.948" y="98.3999"/>
      <point x="235.572" y="96.1362" type="curve" smooth="yes"/>
      <point x="235.179" y="93.7743"/>
      <point x="234.349" y="87.9508"/>
      <point x="228.331" y="81.9335" type="curve" smooth="yes"/>
      <point x="222.8" y="76.4019"/>
      <point x="216.902" y="74.4129"/>
      <point x="210.044" y="74.4129" type="curve" smooth="yes"/>
      <point x="207.982" y="74.4129"/>
      <point x="205.555" y="74.7822"/>
      <point x="204.45" y="75.0077" type="curve" smooth="yes"/>
      <point x="186.89" y="75.1876"/>
      <point x="173.011" y="83.9696"/>
      <point x="163.302" y="93.6786" type="curve" smooth="yes"/>
      <point x="153.655" y="103.326"/>
      <point x="146.935" y="114.614"/>
      <point x="141.957" y="125.914" type="curve" smooth="yes"/>
      <point x="135.732" y="140.044"/>
      <point x="132.005" y="154.287"/>
      <point x="132.005" y="168" type="curve" smooth="yes"/>
      <point x="132.005" y="170.331"/>
      <point x="131.813" y="170.888"/>
      <point x="130.26" y="175.458" type="curve" smooth="yes"/>
      <point x="128.827" y="179.68"/>
      <point x="126.005" y="187.838"/>
      <point x="126.005" y="198" type="curve" smooth="yes"/>
      <point x="126.005" y="208.325"/>
      <point x="120.005" y="218.092"/>
      <point x="120.005" y="232" type="curve" smooth="yes"/>
      <point x="120.005" y="242.677"/>
      <point x="116.005" y="257.566"/>
      <point x="116.005" y="270" type="curve" smooth="yes"/>
      <point x="116.005" y="320" type="line" smooth="yes"/>
      <point x="116.005" y="324.939"/>
      <point x="117.145" y="329.605"/>
      <point x="117.854" y="333.832" type="curve" smooth="yes"/>
      <point x="119.126" y="341.41"/>
      <point x="120.081" y="348.227"/>
      <point x="120.081" y="353.05" type="curve" smooth="yes"/>
      <point x="120.081" y="354.087"/>
      <point x="120.005" y="354.993"/>
      <point x="120.005" y="356" type="curve" smooth="yes"/>
      <point x="120.005" y="378.801"/>
      <point x="129.928" y="399.713"/>
      <point x="141.432" y="419.714" type="curve" smooth="yes"/>
      <point x="161.563" y="454.716"/>
      <point x="187.24" y="484.313"/>
      <point x="208.586" y="514.438" type="curve" smooth="yes"/>
      <point x="224.359" y="536.696"/>
      <point x="235.623" y="563.058"/>
      <point x="242.102" y="591.229" type="curve" smooth="yes"/>
      <point x="242.447" y="596.915"/>
      <point x="243.711" y="600.246"/>
      <point x="244.005" y="604.081" type="curve" smooth="yes"/>
      <point x="244.034" y="621.327"/>
      <point x="253.67" y="633.449"/>
      <point x="256.72" y="645.954" type="curve" smooth="yes"/>
      <point x="260.017" y="659.472"/>
      <point x="267.207" y="675.912"/>
      <point x="267.207" y="688.803" type="curve" smooth="yes"/>
      <point x="267.207" y="692.879"/>
      <point x="266.005" y="697.657"/>
      <point x="266.005" y="702" type="curve" smooth="yes"/>
      <point x="266.005" y="704.873"/>
      <point x="266.62" y="707.994"/>
      <point x="266.62" y="710.749" type="curve" smooth="yes"/>
      <point x="266.62" y="719.498"/>
      <point x="263.225" y="726.188"/>
      <point x="256.465" y="732.947" type="curve" smooth="yes"/>
      <point x="249.827" y="739.586"/>
      <point x="239.253" y="745.88"/>
      <point x="226.636" y="750.249" type="curve" smooth="yes"/>
      <point x="213.268" y="754.878"/>
      <point x="197.957" y="757.284"/>
      <point x="183.928" y="757.284" type="curve" smooth="yes"/>
      <point x="180.875" y="757.284"/>
      <point x="177.966" y="757.005"/>
      <point x="175" y="757.005" type="curve" smooth="yes"/>
      <point x="170.297" y="757.005"/>
      <point x="163.617" y="759.027"/>
      <point x="159.825" y="759.027" type="curve" smooth="yes"/>
      <point x="153.052" y="759.027"/>
      <point x="149.975" y="757.101"/>
      <point x="146.093" y="753.218" type="curve" smooth="yes"/>
      <point x="136.409" y="743.534"/>
      <point x="130.29" y="723.803"/>
      <point x="126.029" y="707.036" type="curve" smooth="yes"/>
      <point x="126.277" y="695.488"/>
      <point x="127.834" y="682.321"/>
      <point x="127.992" y="670.426" type="curve" smooth="yes"/>
      <point x="128.612" y="665.754"/>
      <point x="130.401" y="661.863"/>
      <point x="130.401" y="653.902" type="curve" smooth="yes"/>
      <point x="130.401" y="652.426"/>
      <point x="130.327" y="650.859"/>
    </contour>
    <contour>
      <point x="278.332" y="33.5492" type="curve" smooth="yes"/>
      <point x="278.332" y="29.9901"/>
      <point x="277.955" y="27.3681"/>
      <point x="277.85" y="24.8008" type="curve" smooth="yes"/>
      <point x="278.38" y="21.1"/>
      <point x="279.025" y="16.9137"/>
      <point x="279.025" y="11.8038" type="curve" smooth="yes"/>
      <point x="279.025" y="10.423"/>
      <point x="278.978" y="8.97466"/>
      <point x="278.868" y="7.45027" type="curve" smooth="yes"/>
      <point x="278.463" y="1.78397"/>
      <point x="277.111" y="-7.40492"/>
      <point x="269.026" y="-15.49" type="curve" smooth="yes"/>
      <point x="261.958" y="-22.558"/>
      <point x="252.447" y="-24.9951"/>
      <point x="245" y="-24.9951" type="curve" smooth="yes"/>
      <point x="237.254" y="-24.9951"/>
      <point x="227.156" y="-22.9263"/>
      <point x="219.431" y="-15.2009" type="curve" smooth="yes"/>
      <point x="216.201" y="-11.9707"/>
      <point x="214.081" y="-8.46307"/>
      <point x="212.679" y="-5.2443" type="curve" smooth="yes"/>
      <point x="210.593" y="-4.08915"/>
      <point x="208.564" y="-2.62068"/>
      <point x="206.721" y="-0.777593" type="curve" smooth="yes"/>
      <point x="201.139" y="4.80483"/>
      <point x="199.538" y="10.6941"/>
      <point x="198.818" y="14.2297" type="curve" smooth="yes"/>
      <point x="198.078" y="17.8592"/>
      <point x="197.999" y="20.3674"/>
      <point x="197.999" y="22.4108" type="curve" smooth="yes"/>
      <point x="197.999" y="22.971"/>
      <point x="198.005" y="23.4962"/>
      <point x="198.005" y="24" type="curve" smooth="yes"/>
      <point x="198.005" y="35.4552"/>
      <point x="202.428" y="46.5206"/>
      <point x="209.984" y="54.0768" type="curve" smooth="yes"/>
      <point x="219.88" y="63.9723"/>
      <point x="231.374" y="66.5379"/>
      <point x="240.288" y="66.9356" type="curve" smooth="yes"/>
      <point x="242.255" y="67.2538"/>
      <point x="244.462" y="67.4692"/>
      <point x="246.81" y="67.4692" type="curve" smooth="yes"/>
      <point x="253.834" y="67.4692"/>
      <point x="262.116" y="65.5417"/>
      <point x="268.984" y="58.6731" type="curve" smooth="yes"/>
      <point x="275.908" y="51.7499"/>
      <point x="277.367" y="44.1875"/>
      <point x="277.934" y="39.7123" type="curve" smooth="yes"/>
      <point x="278.233" y="37.3491"/>
      <point x="278.332" y="35.3114"/>
    </contour>
  </outline>
</glyph>
<glyph name="at" format="2">
  <advance width="1043"/>
  <unicode hex="0040"/>
  <outline>
    <contour>
      <point x="317" y="320" type="curve"/>
      <point x="317" y="372"/>
      <point x="335" y="416.833"/>
      <point x="371" y="454.5" type="curve" smooth="yes"/>
      <point x="407" y="492.167"/>
      <point x="450.667" y="511"/>
      <point x="502" y="511" type="curve" smooth="yes"/>
      <point x="525.333" y="511"/>
      <point x="547.333" y="506.333"/>
      <point x="568" y="497" type="curve" smooth="yes"/>
      <point x="588.667" y="487.667"/>
      <point x="606.667" y="474.333"/>
      <point x="622" y="457" type="curve"/>
      <point x="622" y="505" type="line"/>
      <point x="688" y="505" type="line"/>
      <point x="688" y="208" type="line" smooth="yes"/>
      <point x="688" y="194.667"/>
      <point x="693.833" y="183"/>
      <point x="705.5" y="173" type="curve" smooth="yes"/>
      <point x="717.167" y="163"/>
      <point x="731.333" y="158"/>
      <point x="748" y="158" type="curve" smooth="yes"/>
      <point x="784.667" y="158"/>
      <point x="815.833" y="176"/>
      <point x="841.5" y="212" type="curve" smooth="yes"/>
      <point x="867.167" y="248"/>
      <point x="880" y="292"/>
      <point x="880" y="344" type="curve" smooth="yes"/>
      <point x="880" y="431.333"/>
      <point x="846.333" y="506.167"/>
      <point x="779" y="568.5" type="curve" smooth="yes"/>
      <point x="711.667" y="630.833"/>
      <point x="630.333" y="662"/>
      <point x="535" y="662" type="curve" smooth="yes"/>
      <point x="432.333" y="662"/>
      <point x="344.5" y="628"/>
      <point x="271.5" y="560" type="curve" smooth="yes"/>
      <point x="198.5" y="492"/>
      <point x="162" y="410"/>
      <point x="162" y="314" type="curve" smooth="yes"/>
      <point x="162" y="227.333"/>
      <point x="198.5" y="153.333"/>
      <point x="271.5" y="92" type="curve" smooth="yes"/>
      <point x="344.5" y="30.6667"/>
      <point x="432.333" y="0"/>
      <point x="535" y="0" type="curve" smooth="yes"/>
      <point x="575" y="0"/>
      <point x="612.5" y="5.33333"/>
      <point x="647.5" y="16" type="curve" smooth="yes"/>
      <point x="682.5" y="26.6667"/>
      <point x="713.333" y="42.3333"/>
      <point x="740" y="63" type="curve"/>
      <point x="772" y="8" type="line"/>
      <point x="738.667" y="-15.3333"/>
      <point x="701.833" y="-33.1667"/>
      <point x="661.5" y="-45.5" type="curve" smooth="yes"/>
      <point x="621.167" y="-57.8333"/>
      <point x="579" y="-64"/>
      <point x="535" y="-64" type="curve" smooth="yes"/>
      <point x="415.667" y="-64"/>
      <point x="313.333" y="-27.1667"/>
      <point x="228" y="46.5" type="curve" smooth="yes"/>
      <point x="142.667" y="120.167"/>
      <point x="100" y="209.333"/>
      <point x="100" y="314" type="curve" smooth="yes"/>
      <point x="100" y="426.667"/>
      <point x="142.667" y="523"/>
      <point x="228" y="603" type="curve" smooth="yes"/>
      <point x="313.333" y="683"/>
      <point x="415.667" y="723"/>
      <point x="535" y="723" type="curve" smooth="yes"/>
      <point x="647.667" y="723"/>
      <point x="744" y="686"/>
      <point x="824" y="612" type="curve" smooth="yes"/>
      <point x="904" y="538"/>
      <point x="944" y="448.667"/>
      <point x="944" y="344" type="curve" smooth="yes"/>
      <point x="944" y="275.333"/>
      <point x="925" y="216.667"/>
      <point x="887" y="168" type="curve" smooth="yes"/>
      <point x="849" y="119.333"/>
      <point x="802.667" y="95"/>
      <point x="748" y="95" type="curve" smooth="yes"/>
      <point x="717.333" y="95"/>
      <point x="690.167" y="103.167"/>
      <point x="666.5" y="119.5" type="curve" smooth="yes"/>
      <point x="642.833" y="135.833"/>
      <point x="629" y="156.667"/>
      <point x="625" y="182" type="curve"/>
      <point x="613" y="162"/>
      <point x="596" y="146.5"/>
      <point x="574" y="135.5" type="curve" smooth="yes"/>
      <point x="552" y="124.5"/>
      <point x="528" y="119"/>
      <point x="502" y="119" type="curve" smooth="yes"/>
      <point x="449.333" y="119"/>
      <point x="405.333" y="138.667"/>
      <point x="370" y="178" type="curve" smooth="yes"/>
      <point x="334.667" y="217.333"/>
      <point x="317" y="264.667"/>
    </contour>
    <contour>
      <point x="382" y="320" type="curve"/>
      <point x="382" y="283.333"/>
      <point x="393.5" y="251.667"/>
      <point x="416.5" y="225" type="curve" smooth="yes"/>
      <point x="439.5" y="198.333"/>
      <point x="468" y="185"/>
      <point x="502" y="185" type="curve" smooth="yes"/>
      <point x="536" y="185"/>
      <point x="564.5" y="198.333"/>
      <point x="587.5" y="225" type="curve" smooth="yes"/>
      <point x="610.5" y="251.667"/>
      <point x="622" y="283.333"/>
      <point x="622" y="320" type="curve" smooth="yes"/>
      <point x="622" y="356"/>
      <point x="610.5" y="387.167"/>
      <point x="587.5" y="413.5" type="curve" smooth="yes"/>
      <point x="564.5" y="439.833"/>
      <point x="536" y="453"/>
      <point x="502" y="453" type="curve" smooth="yes"/>
      <point x="468" y="453"/>
      <point x="439.5" y="439.833"/>
      <point x="416.5" y="413.5" type="curve" smooth="yes"/>
      <point x="393.5" y="387.167"/>
      <point x="382" y="356"/>
    </contour>
  </outline>
</glyph>
<glyph name="A" format="2">
  <advance width="728"/>
  <unicode hex="0041"/>
  <outline>
    <contour>
      <point x="293.577" y="464.317" type="curve" smooth="yes"/>
      <point x="340.793" y="473.263"/>
      <point x="383.256" y="492.504"/>
      <point x="439.864" y="492.504" type="curve" smooth="yes"/>
      <point x="448.337" y="492.504"/>
      <point x="457.022" y="492.033"/>
      <point x="465.912" y="490.973" type="curve" smooth="yes"/>
      <point x="510.55" y="490.356"/>
      <point x="549.241" y="477.346"/>
      <point x="585.984" y="467.438" type="curve" smooth="yes"/>
      <point x="599.489" y="463.796"/>
      <point x="610.017" y="454.064"/>
      <point x="619.829" y="443.179" type="curve" smooth="yes"/>
      <point x="629.258" y="432.719"/>
      <point x="638.239" y="420.408"/>
      <point x="646.389" y="408.744" type="curve"/>
      <point x="638.738" y="471.081"/>
      <point x="628.137" y="550.644"/>
      <point x="612.437" y="593.502" type="curve" smooth="yes"/>
      <point x="609.666" y="601.067"/>
      <point x="600.423" y="626.263"/>
      <point x="599.543" y="628.482" type="curve" smooth="yes"/>
      <point x="596.096" y="636.836"/>
      <point x="590.69" y="644.244"/>
      <point x="582.818" y="651.722" type="curve" smooth="yes"/>
      <point x="567.212" y="666.545"/>
      <point x="537.722" y="682.296"/>
      <point x="512.98" y="696.052" type="curve" smooth="yes"/>
      <point x="508.424" y="698.584"/>
      <point x="509.826" y="698.846"/>
      <point x="500.739" y="701.355" type="curve" smooth="yes"/>
      <point x="487.682" y="704.961"/>
      <point x="467.537" y="708.189"/>
      <point x="454.208" y="711.907" type="curve"/>
      <point x="396.397" y="721.059" type="line"/>
      <point x="283.016" y="722.948" type="line"/>
      <point x="239.818" y="715.812" type="line" smooth="yes"/>
      <point x="235.925" y="714.457"/>
      <point x="222.423" y="708.687"/>
      <point x="219.797" y="707.42" type="curve" smooth="yes"/>
      <point x="208.338" y="699.755"/>
      <point x="188.021" y="689.487"/>
      <point x="180.967" y="681.769" type="curve" smooth="yes"/>
      <point x="177.983" y="678.504"/>
      <point x="175.644" y="677.232"/>
      <point x="173.202" y="674.912" type="curve" smooth="yes"/>
      <point x="167.654" y="669.644"/>
      <point x="158.555" y="650.068"/>
      <point x="153.169" y="632.716" type="curve" smooth="yes"/>
      <point x="146.436" y="611.025"/>
      <point x="137.971" y="588.492"/>
      <point x="132.37" y="566.618" type="curve" smooth="yes"/>
      <point x="113.946" y="493.219" type="line" smooth="yes"/>
      <point x="113.654" y="492.021"/>
      <point x="113.303" y="490.835"/>
      <point x="112.889" y="489.663" type="curve" smooth="yes"/>
      <point x="89.3369" y="422.933" type="line"/>
      <point x="78.3818" y="382.766" type="line"/>
      <point x="75.7969" y="366.313"/>
      <point x="77.167" y="345.906"/>
      <point x="76.5332" y="327.504" type="curve"/>
      <point x="91.0107" y="341.379" type="line" smooth="yes"/>
      <point x="96.3242" y="347.646"/>
      <point x="114.786" y="369.423"/>
      <point x="120.77" y="376.685" type="curve" smooth="yes"/>
      <point x="126.462" y="383.719"/>
      <point x="132.525" y="390.257"/>
      <point x="138.899" y="396.312" type="curve" smooth="yes"/>
      <point x="183.463" y="438.642"/>
      <point x="239.943" y="454.712"/>
    </contour>
    <contour>
      <point x="273.257" y="784.445" type="line" smooth="yes"/>
      <point x="275.158" y="784.76"/>
      <point x="277.282" y="785.046"/>
      <point x="279.642" y="785.006" type="curve" smooth="yes"/>
      <point x="400.678" y="782.989" type="line" smooth="yes"/>
      <point x="402.609" y="782.957"/>
      <point x="404.529" y="782.79"/>
      <point x="406.43" y="782.489" type="curve" smooth="yes"/>
      <point x="469.597" y="772.781" type="line" smooth="yes"/>
      <point x="471.381" y="772.507"/>
      <point x="473.146" y="772.118"/>
      <point x="474.883" y="771.613" type="curve" smooth="yes"/>
      <point x="504.367" y="763.052"/>
      <point x="525.68" y="766.362"/>
      <point x="553.844" y="748.121" type="curve" smooth="yes"/>
      <point x="583.011" y="732.454"/>
      <point x="610.155" y="719.762"/>
      <point x="635.989" y="694.682" type="curve" smooth="yes"/>
      <point x="649.035" y="682.016"/>
      <point x="660.804" y="666.508"/>
      <point x="668.449" y="647.57" type="curve" smooth="yes"/>
      <point x="672.18" y="638.329"/>
      <point x="683.237" y="611.042"/>
      <point x="684.521" y="603.311" type="curve" smooth="yes"/>
      <point x="694.521" y="543.118" type="line" smooth="yes"/>
      <point x="694.578" y="542.777"/>
      <point x="694.63" y="542.435"/>
      <point x="694.677" y="542.092" type="curve" smooth="yes"/>
      <point x="718.677" y="365.399" type="line" smooth="yes"/>
      <point x="718.812" y="364.397"/>
      <point x="718.905" y="363.391"/>
      <point x="718.954" y="362.38" type="curve" smooth="yes"/>
      <point x="719.491" y="351.34"/>
      <point x="719.739" y="340.338"/>
      <point x="719.739" y="329.383" type="curve" smooth="yes"/>
      <point x="719.739" y="275.912"/>
      <point x="713.841" y="223.581"/>
      <point x="706.663" y="173.319" type="curve" smooth="yes"/>
      <point x="705.321" y="161.938"/>
      <point x="704.615" y="148.017"/>
      <point x="702.918" y="137.12" type="curve" smooth="yes"/>
      <point x="702.118" y="131.988"/>
      <point x="701.354" y="127.475"/>
      <point x="698.875" y="122.822" type="curve" smooth="yes"/>
      <point x="668.875" y="66.5137" type="line" smooth="yes"/>
      <point x="668.36" y="65.5469"/>
      <point x="667.797" y="64.5977"/>
      <point x="667.185" y="63.6689" type="curve" smooth="yes"/>
      <point x="636.233" y="16.7188" type="line"/>
      <point x="619.104" y="-16.543" type="line" smooth="yes"/>
      <point x="613.169" y="-28.4111"/>
      <point x="600.431" y="-36.9951"/>
      <point x="585.276" y="-36.9951" type="curve" smooth="yes"/>
      <point x="578.959" y="-36.9951" type="line" smooth="yes"/>
      <point x="569.003" y="-36.9951"/>
      <point x="559.03" y="-33.3926"/>
      <point x="551.417" y="-26.1611" type="curve" smooth="yes"/>
      <point x="543.804" y="-18.9297"/>
      <point x="540.012" y="-9.45703"/>
      <point x="540.012" y="0" type="curve" smooth="yes"/>
      <point x="540.012" y="12.7529"/>
      <point x="547.47" y="24.1113"/>
      <point x="558.192" y="30.4219" type="curve"/>
      <point x="569.376" y="51.0781" type="line" smooth="yes"/>
      <point x="569.982" y="52.1973"/>
      <point x="570.655" y="53.2939"/>
      <point x="571.397" y="54.3623" type="curve" smooth="yes"/>
      <point x="603.904" y="101.582" type="line"/>
      <point x="629.849" y="150.343" type="line"/>
      <point x="630.863" y="160.703"/>
      <point x="632.671" y="179.024"/>
      <point x="633.358" y="183.847" type="curve" smooth="yes"/>
      <point x="636.601" y="206.571"/>
      <point x="647.117" y="218.439"/>
      <point x="653.769" y="225.47" type="curve" smooth="yes"/>
      <point x="658.821" y="230.81"/>
      <point x="659.114" y="231.454"/>
      <point x="659.114" y="233.478" type="curve" smooth="yes"/>
      <point x="659.114" y="235.392"/>
      <point x="658.104" y="240.226"/>
      <point x="653.655" y="248.74" type="curve" smooth="yes"/>
      <point x="651.854" y="251.407"/>
      <point x="651.418" y="253.254"/>
      <point x="650.561" y="255.776" type="curve" smooth="yes"/>
      <point x="643.072" y="277.814"/>
      <point x="634.987" y="321.502"/>
      <point x="628.634" y="342.598" type="curve"/>
      <point x="610.174" y="365.041"/>
      <point x="590.02" y="390.383"/>
      <point x="564.304" y="396.969" type="curve" smooth="yes"/>
      <point x="563.635" y="397.14"/>
      <point x="562.97" y="397.327"/>
      <point x="562.31" y="397.532" type="curve" smooth="yes"/>
      <point x="527.017" y="408.487"/>
      <point x="493.854" y="416.94"/>
      <point x="463.008" y="417.046" type="curve" smooth="yes"/>
      <point x="461.248" y="417.052"/>
      <point x="459.497" y="417.167"/>
      <point x="457.76" y="417.39" type="curve" smooth="yes"/>
      <point x="451.985" y="418.13"/>
      <point x="446.235" y="418.47"/>
      <point x="440.437" y="418.47" type="curve" smooth="yes"/>
      <point x="399.431" y="418.47"/>
      <point x="348.312" y="399.352"/>
      <point x="308.272" y="392.39" type="curve" smooth="yes"/>
      <point x="252.162" y="382.635"/>
      <point x="209.737" y="366.687"/>
      <point x="182.437" y="333.891" type="curve" smooth="yes"/>
      <point x="176.235" y="326.439"/>
      <point x="148.419" y="296.081"/>
      <point x="144.784" y="292.863" type="curve" smooth="yes"/>
      <point x="95.5918" y="248.14" type="line" smooth="yes"/>
      <point x="89.7021" y="242.651"/>
      <point x="83.6006" y="240.557"/>
      <point x="75.5879" y="238.122" type="curve"/>
      <point x="75.0137" y="182.324" type="line"/>
      <point x="78.584" y="145.88" type="line"/>
      <point x="87.9883" y="107.479" type="line" smooth="yes"/>
      <point x="88.6592" y="104.735"/>
      <point x="88.9961" y="101.934"/>
      <point x="88.9961" y="99.1113" type="curve" smooth="yes"/>
      <point x="88.9961" y="98.4756"/>
      <point x="88.9785" y="97.8418"/>
      <point x="88.9453" y="97.21" type="curve" smooth="yes"/>
      <point x="89.4365" y="94.8926"/>
      <point x="92.5742" y="87.0176"/>
      <point x="92.5742" y="87.0176" type="curve" smooth="yes"/>
      <point x="99.2744" y="74.9463"/>
      <point x="105.65" y="64.0361"/>
      <point x="112.209" y="55.6094" type="curve"/>
      <point x="124.386" y="49.8545"/>
      <point x="133.629" y="37.5039"/>
      <point x="133.629" y="23.2744" type="curve" smooth="yes"/>
      <point x="133.629" y="14.0791"/>
      <point x="129.836" y="4.86914"/>
      <point x="122.223" y="-2.16113" type="curve" smooth="yes"/>
      <point x="114.931" y="-9.39258"/>
      <point x="105.458" y="-12.9951"/>
      <point x="96.001" y="-12.9951" type="curve" smooth="yes"/>
      <point x="92.001" y="-12.9951" type="line" smooth="yes"/>
      <point x="82.252" y="-12.9951"/>
      <point x="72.5791" y="-9.15137"/>
      <point x="65.374" y="-1.6875" type="curve" smooth="yes"/>
      <point x="47.2686" y="16.5156"/>
      <point x="36.6465" y="36.2002"/>
      <point x="27.4277" y="52.7764" type="curve" smooth="yes"/>
      <point x="23.498" y="59.8428"/>
      <point x="20.3594" y="67.7549"/>
      <point x="18.0029" y="76.4395" type="curve" smooth="yes"/>
      <point x="16.6055" y="81.5928"/>
      <point x="15.1758" y="87.7021"/>
      <point x="14.9551" y="94.8936" type="curve"/>
      <point x="6.01367" y="131.333" type="line" smooth="yes"/>
      <point x="5.61621" y="132.954"/>
      <point x="5.33594" y="134.597"/>
      <point x="5.17383" y="136.252" type="curve" smooth="yes"/>
      <point x="1.17383" y="177.008" type="line" smooth="yes"/>
      <point x="1.06348" y="178.135"/>
      <point x="0.992188" y="179.278"/>
      <point x="1.00488" y="180.559" type="curve" smooth="yes"/>
      <point x="1.78809" y="256.522" type="line" smooth="yes"/>
      <point x="1.2666" y="258.945"/>
      <point x="1.00586" y="261.41"/>
      <point x="1.00586" y="263.892" type="curve" smooth="yes"/>
      <point x="1.00586" y="266.612"/>
      <point x="1.33789" y="269.248"/>
      <point x="1.94531" y="271.77" type="curve" smooth="yes"/>
      <point x="3.00781" y="374.878" type="line" smooth="yes"/>
      <point x="3.08691" y="382.547"/>
      <point x="4.46973" y="388.131"/>
      <point x="5.29297" y="394.526" type="curve" smooth="yes"/>
      <point x="5.50977" y="396.209"/>
      <point x="5.84863" y="397.877"/>
      <point x="6.31055" y="399.521" type="curve" smooth="yes"/>
      <point x="18.3105" y="442.217" type="line" smooth="yes"/>
      <point x="18.5459" y="443.054"/>
      <point x="18.8135" y="443.886"/>
      <point x="19.1133" y="444.709" type="curve" smooth="yes"/>
      <point x="42.4951" y="508.996" type="line"/>
      <point x="60.0557" y="579.052" type="line" smooth="yes"/>
      <point x="60.1992" y="579.624"/>
      <point x="60.3574" y="580.193"/>
      <point x="60.5312" y="580.761" type="curve" smooth="yes"/>
      <point x="66.3965" y="599.97"/>
      <point x="72.3301" y="619.139"/>
      <point x="78.1094" y="638.39" type="curve" smooth="yes"/>
      <point x="80.6221" y="646.76"/>
      <point x="83.6592" y="656.33"/>
      <point x="86.873" y="664.729" type="curve" smooth="yes"/>
      <point x="92.3887" y="679.144"/>
      <point x="100.048" y="699.61"/>
      <point x="118.263" y="717.285" type="curve" smooth="yes"/>
      <point x="121.242" y="720.166"/>
      <point x="124.588" y="722.854"/>
      <point x="127.54" y="725.574" type="curve" smooth="yes"/>
      <point x="144.75" y="741.438"/>
      <point x="158.18" y="745.766"/>
      <point x="175.282" y="756.995" type="curve" smooth="yes"/>
      <point x="183.814" y="762.599"/>
      <point x="192.44" y="765.99"/>
      <point x="201.605" y="769.619" type="curve" smooth="yes"/>
      <point x="208.3" y="772.271"/>
      <point x="215.546" y="775.194"/>
      <point x="224.829" y="776.683" type="curve" smooth="yes"/>
    </contour>
  </outline>
</glyph>
<glyph name="B" format="2">
  <advance width="752"/>
  <unicode hex="0042"/>
  <outline>
    <contour>
      <point x="80.0068" y="148.957" type="curve" smooth="yes"/>
      <point x="80.0068" y="135.413"/>
      <point x="79.7451" y="117.263"/>
      <point x="79.7451" y="103.769" type="curve" smooth="yes"/>
      <point x="79.7451" y="90.9736"/>
      <point x="80.3027" y="83.9873"/>
      <point x="80.3027" y="72.3711" type="curve" smooth="yes"/>
      <point x="80.3027" y="71.915"/>
      <point x="80.2822" y="71.5723"/>
      <point x="80.2744" y="71.4023" type="curve" smooth="yes"/>
      <point x="80.2744" y="71.3418"/>
      <point x="80.2676" y="71.3018"/>
      <point x="80.2676" y="71.2793" type="curve" smooth="yes"/>
      <point x="80.3027" y="69.4883"/>
      <point x="83.2627" y="64.9512"/>
      <point x="87.5527" y="64.9512" type="curve" smooth="yes"/>
      <point x="89.7676" y="64.9512"/>
      <point x="90.6436" y="65.5859"/>
      <point x="92.333" y="66.3496" type="curve" smooth="yes"/>
      <point x="112.463" y="75.46"/>
      <point x="136.853" y="88.4521"/>
      <point x="157.949" y="99.2666" type="curve"/>
      <point x="157.409" y="144.942"/>
      <point x="156.832" y="209.487"/>
      <point x="154.896" y="243.674" type="curve" smooth="yes"/>
      <point x="153.851" y="262.132"/>
      <point x="153.314" y="327.421"/>
      <point x="153.314" y="392.453" type="curve" smooth="yes"/>
      <point x="153.314" y="463.469"/>
      <point x="154.022" y="535.337"/>
      <point x="155.091" y="545.1" type="curve" smooth="yes"/>
      <point x="157.161" y="564.009"/>
      <point x="162.97" y="585.338"/>
      <point x="174.795" y="616.482" type="curve" smooth="yes"/>
      <point x="187.008" y="648.647"/>
      <point x="211.62" y="715.144"/>
      <point x="220.946" y="732.145" type="curve" smooth="yes"/>
      <point x="222.933" y="735.765" type="line"/>
      <point x="246.163" y="738.157"/>
      <point x="273.607" y="739.284"/>
      <point x="315.371" y="739.284" type="curve" smooth="yes"/>
      <point x="337.317" y="739.284"/>
      <point x="355.715" y="738.81"/>
      <point x="362.548" y="738.21" type="curve" smooth="yes"/>
      <point x="364.801" y="737.752"/>
      <point x="367.035" y="737.298"/>
      <point x="369.145" y="736.869" type="curve" smooth="yes"/>
      <point x="424.963" y="725.535"/>
      <point x="427.952" y="723.794"/>
      <point x="465.184" y="702.6" type="curve" smooth="yes"/>
      <point x="492.238" y="687.198"/>
      <point x="510.774" y="674.942"/>
      <point x="536.201" y="655.638" type="curve" smooth="yes"/>
      <point x="556.173" y="640.477"/>
      <point x="566.923" y="631.131"/>
      <point x="573.249" y="622.638" type="curve" smooth="yes"/>
      <point x="578.165" y="616.038"/>
      <point x="580.786" y="609.423"/>
      <point x="582.853" y="600.217" type="curve" smooth="yes"/>
      <point x="584.4" y="593.537"/>
      <point x="585.556" y="551.635"/>
      <point x="585.556" y="513.443" type="curve" smooth="yes"/>
      <point x="585.556" y="485.692"/>
      <point x="584.896" y="465.168"/>
      <point x="584.004" y="449.022" type="curve"/>
      <point x="559.294" y="444.108"/>
      <point x="539.231" y="442.794"/>
      <point x="504.17" y="441.371" type="curve" smooth="yes"/>
      <point x="470.865" y="440.02"/>
      <point x="429.143" y="432.883"/>
      <point x="395.362" y="428.918" type="curve" smooth="yes"/>
      <point x="358.39" y="424.581"/>
      <point x="348.028" y="422.086"/>
      <point x="325.911" y="412.02" type="curve" smooth="yes"/>
      <point x="305.139" y="402.566"/>
      <point x="260.904" y="376.584"/>
      <point x="250.091" y="366.979" type="curve" smooth="yes"/>
      <point x="241.181" y="359.067"/>
      <point x="235.373" y="348.019"/>
      <point x="235.373" y="337.874" type="curve" smooth="yes"/>
      <point x="235.373" y="327.603"/>
      <point x="241.363" y="317.757"/>
      <point x="251.656" y="308.433" type="curve" smooth="yes"/>
      <point x="264.551" y="296.751"/>
      <point x="284.334" y="285.568"/>
      <point x="311.086" y="274.289" type="curve" smooth="yes"/>
      <point x="331.932" y="265.501"/>
      <point x="356.16" y="261.243"/>
      <point x="392.308" y="259.461" type="curve" smooth="yes"/>
      <point x="431.326" y="257.537"/>
      <point x="431.324" y="254.423"/>
      <point x="460.842" y="249.685" type="curve" smooth="yes"/>
      <point x="486.431" y="245.575"/>
      <point x="515.29" y="236.688"/>
      <point x="540.144" y="230.55" type="curve" smooth="yes"/>
      <point x="564.014" y="224.657"/>
      <point x="583.048" y="214.007"/>
      <point x="609.035" y="191.187" type="curve" smooth="yes"/>
      <point x="615.902" y="184.931"/>
      <point x="619.604" y="180.383"/>
      <point x="621.724" y="172.47" type="curve" smooth="yes"/>
      <point x="624.669" y="161.472"/>
      <point x="625.209" y="142.476"/>
      <point x="625.209" y="103.425" type="curve" smooth="yes"/>
      <point x="625.209" y="87.1582"/>
      <point x="625.209" y="70.8916"/>
      <point x="625.209" y="54.625" type="curve"/>
      <point x="486.88" y="54.625" type="line" smooth="yes"/>
      <point x="389.684" y="54.625"/>
      <point x="334.959" y="55.3818"/>
      <point x="326.397" y="56.457" type="curve" smooth="yes"/>
      <point x="308.065" y="58.7549" type="line"/>
      <point x="289.773" y="46.0918"/>
      <point x="268.014" y="31.0557"/>
      <point x="251.794" y="19.4668" type="curve" smooth="yes"/>
      <point x="249.098" y="17.541"/>
      <point x="247.785" y="16.1553"/>
      <point x="245.34" y="14.6543" type="curve" smooth="yes"/>
      <point x="244.423" y="13.375"/>
      <point x="243.206" y="11.6992"/>
      <point x="243.206" y="9.27637" type="curve" smooth="yes"/>
      <point x="243.206" y="4.80176"/>
      <point x="246.633" y="2.84277"/>
      <point x="248.171" y="2.08008" type="curve" smooth="yes"/>
      <point x="251.946" y="0.207031"/>
      <point x="253.912" y="0.266602"/>
      <point x="258.395" y="-0.223633" type="curve" smooth="yes"/>
      <point x="266.336" y="-1.09277"/>
      <point x="279.116" y="-1.6416"/>
      <point x="299.43" y="-2.03613" type="curve" smooth="yes"/>
      <point x="328.618" y="-2.60059"/>
      <point x="373.123" y="-2.7959"/>
      <point x="439.125" y="-2.7959" type="curve" smooth="yes"/>
      <point x="443.304" y="-2.7959" type="line"/>
      <point x="445.58" y="-6.53125" type="line" smooth="yes"/>
      <point x="449.846" y="-13.5342"/>
      <point x="452.711" y="-14.2725"/>
      <point x="453.109" y="-14.2725" type="curve" smooth="yes"/>
      <point x="453.508" y="-14.2725"/>
      <point x="456.372" y="-13.5342"/>
      <point x="460.639" y="-6.53027" type="curve" smooth="yes"/>
      <point x="462.914" y="-2.79395" type="line"/>
      <point x="467.093" y="-2.79395" type="line" smooth="yes"/>
      <point x="609.233" y="-2.79395"/>
      <point x="612.127" y="-2.53809"/>
      <point x="633.841" y="7.96387" type="curve" smooth="yes"/>
      <point x="648.658" y="14.8594"/>
      <point x="663.615" y="24.4297"/>
      <point x="676.077" y="34.9033" type="curve" smooth="yes"/>
      <point x="685.686" y="42.9805"/>
      <point x="693.199" y="50.709"/>
      <point x="697.325" y="58.3682" type="curve" smooth="yes"/>
      <point x="702.622" y="68.1973" type="line"/>
      <point x="702.85" y="95.4199"/>
      <point x="703.227" y="123.793"/>
      <point x="703.227" y="150.779" type="curve" smooth="yes"/>
      <point x="703.227" y="185.847"/>
      <point x="702.232" y="203.939"/>
      <point x="693.91" y="219.095" type="curve" smooth="yes"/>
      <point x="687.28" y="231.17"/>
      <point x="676.62" y="239.756"/>
      <point x="661.239" y="251.92" type="curve" smooth="yes"/>
      <point x="638.819" y="269.652"/>
      <point x="622.98" y="278.386"/>
      <point x="604.794" y="282.144" type="curve" smooth="yes"/>
      <point x="598.518" y="283.439"/>
      <point x="583.263" y="287.463"/>
      <point x="571.691" y="290.945" type="curve" smooth="yes"/>
      <point x="546.319" y="298.578"/>
      <point x="519.396" y="302.71"/>
      <point x="492.664" y="308.545" type="curve" smooth="yes"/>
      <point x="479.929" y="311.325"/>
      <point x="466.025" y="312.832"/>
      <point x="448.198" y="313.461" type="curve" smooth="yes"/>
      <point x="407.943" y="314.882"/>
      <point x="386.446" y="319.648"/>
      <point x="358.631" y="332.964" type="curve" smooth="yes"/>
      <point x="346.32" y="338.857"/>
      <point x="336.452" y="344.823"/>
      <point x="329.535" y="350.304" type="curve" smooth="yes"/>
      <point x="321.294" y="356.832"/>
      <point x="317.938" y="362.555"/>
      <point x="311.863" y="370.279" type="curve"/>
      <point x="328.133" y="372.051"/>
      <point x="347.04" y="374.326"/>
      <point x="363.138" y="375.871" type="curve" smooth="yes"/>
      <point x="377.69" y="377.269"/>
      <point x="389.973" y="378.451"/>
      <point x="405.095" y="381.562" type="curve" smooth="yes"/>
      <point x="414.209" y="383.436"/>
      <point x="440.058" y="385.586"/>
      <point x="459.278" y="386.437" type="curve" smooth="yes"/>
      <point x="492.855" y="387.924"/>
      <point x="482.913" y="388.766"/>
      <point x="514.172" y="390.859" type="curve" smooth="yes"/>
      <point x="531.517" y="392.021"/>
      <point x="539.135" y="393.431"/>
      <point x="547.924" y="397.665" type="curve" smooth="yes"/>
      <point x="566.366" y="406.557"/>
      <point x="633.93" y="444.614"/>
      <point x="647.451" y="453.002" type="curve" smooth="yes"/>
      <point x="653.547" y="456.783"/>
      <point x="658.19" y="459.712"/>
      <point x="661.229" y="466.797" type="curve" smooth="yes"/>
      <point x="664.589" y="474.632"/>
      <point x="664.995" y="483.811"/>
      <point x="664.995" y="503.143" type="curve" smooth="yes"/>
      <point x="664.995" y="509.292" type="line" smooth="yes"/>
      <point x="664.995" y="519.454"/>
      <point x="664.87" y="534.707"/>
      <point x="664.804" y="546.264" type="curve" smooth="yes"/>
      <point x="664.289" y="635.481"/>
      <point x="662.694" y="648.126"/>
      <point x="645.079" y="670.771" type="curve" smooth="yes"/>
      <point x="638.32" y="679.462"/>
      <point x="622.541" y="692.431"/>
      <point x="601.491" y="708.189" type="curve" smooth="yes"/>
      <point x="574.992" y="727.628"/>
      <point x="540.598" y="750.232"/>
      <point x="509.883" y="768.017" type="curve" smooth="yes"/>
      <point x="492.573" y="778.432"/>
      <point x="475.029" y="784.949"/>
      <point x="453.484" y="789.047" type="curve" smooth="yes"/>
      <point x="446.171" y="790.41"/>
      <point x="435.39" y="792.728"/>
      <point x="429.949" y="794.098" type="curve" smooth="yes"/>
      <point x="420.496" y="796.479"/>
      <point x="409.47" y="796.834"/>
      <point x="371.881" y="796.834" type="curve" smooth="yes"/>
      <point x="342.254" y="796.834"/>
      <point x="291.749" y="795.987"/>
      <point x="285.579" y="795.014" type="curve" smooth="yes"/>
      <point x="269.986" y="792.494"/>
      <point x="240.992" y="791.519"/>
      <point x="229.581" y="787.604" type="curve" smooth="yes"/>
      <point x="219.898" y="784.281"/>
      <point x="209.218" y="777.697"/>
      <point x="191.522" y="766.671" type="curve" smooth="yes"/>
      <point x="165.042" y="749.475"/>
      <point x="158.13" y="742.826"/>
      <point x="144.535" y="715.644" type="curve" smooth="yes"/>
      <point x="132.548" y="691.677"/>
      <point x="120.7" y="660.107"/>
      <point x="91.252" y="575.203" type="curve" smooth="yes"/>
      <point x="76.4199" y="532.439"/>
      <point x="76.1934" y="533.778"/>
      <point x="75.5898" y="413.092" type="curve" smooth="yes"/>
      <point x="75.1797" y="309.755" type="line" smooth="yes"/>
      <point x="75.1797" y="258.02"/>
      <point x="75.8438" y="238.257"/>
      <point x="77.6172" y="216.433" type="curve" smooth="yes"/>
      <point x="79.2852" y="195.922"/>
      <point x="80.0068" y="176.466"/>
    </contour>
  </outline>
</glyph>
<glyph name="C" format="2">
  <advance width="450"/>
  <unicode hex="0043"/>
  <outline>
    <contour>
      <point x="234" y="775" type="curve" smooth="yes"/>
      <point x="233" y="775"/>
      <point x="231" y="775"/>
      <point x="229" y="775" type="curve" smooth="yes"/>
      <point x="229" y="775"/>
      <point x="228" y="775"/>
      <point x="228" y="775" type="curve" smooth="yes"/>
      <point x="228" y="775"/>
      <point x="227" y="775"/>
      <point x="225" y="774" type="curve" smooth="yes"/>
      <point x="221" y="773"/>
      <point x="202" y="764"/>
      <point x="193" y="759" type="curve" smooth="yes"/>
      <point x="135" y="729"/>
      <point x="107" y="702"/>
      <point x="86" y="656" type="curve" smooth="yes"/>
      <point x="75" y="632"/>
      <point x="73" y="626"/>
      <point x="70" y="611" type="curve" smooth="yes"/>
      <point x="69" y="603"/>
      <point x="67" y="594"/>
      <point x="66" y="592" type="curve" smooth="yes"/>
      <point x="60" y="571"/>
      <point x="57" y="544"/>
      <point x="56" y="510" type="curve" smooth="yes"/>
      <point x="55" y="491"/>
      <point x="54" y="469"/>
      <point x="53" y="461" type="curve" smooth="yes"/>
      <point x="52" y="452"/>
      <point x="52" y="421"/>
      <point x="52" y="362" type="curve" smooth="yes"/>
      <point x="52" y="162" type="line"/>
      <point x="57" y="150" type="line" smooth="yes"/>
      <point x="62" y="134"/>
      <point x="84" y="92"/>
      <point x="96" y="75" type="curve" smooth="yes"/>
      <point x="112" y="51"/>
      <point x="134" y="36"/>
      <point x="165" y="27" type="curve" smooth="yes"/>
      <point x="196" y="18"/>
      <point x="206" y="18"/>
      <point x="289" y="18" type="curve" smooth="yes"/>
      <point x="366" y="18" type="line"/>
      <point x="377" y="24"/>
      <point x="382" y="28"/>
      <point x="395" y="35" type="curve" smooth="yes"/>
      <point x="407" y="41"/>
      <point x="420" y="48"/>
      <point x="426" y="53" type="curve" smooth="yes"/>
      <point x="430" y="55"/>
      <point x="431" y="56"/>
      <point x="433" y="59" type="curve" smooth="yes"/>
      <point x="434" y="60"/>
      <point x="434" y="60"/>
      <point x="434" y="63" type="curve" smooth="yes"/>
      <point x="434" y="67"/>
      <point x="431" y="70"/>
      <point x="427" y="70" type="curve" smooth="yes"/>
      <point x="425" y="70"/>
      <point x="425" y="70"/>
      <point x="424" y="70" type="curve" smooth="yes"/>
      <point x="423" y="70" type="line" smooth="yes"/>
      <point x="418" y="70"/>
      <point x="417" y="73"/>
      <point x="413" y="73" type="curve" smooth="yes"/>
      <point x="411" y="73"/>
      <point x="410" y="73"/>
      <point x="407" y="73" type="curve" smooth="yes"/>
      <point x="386" y="73"/>
      <point x="367" y="73"/>
      <point x="341" y="73" type="curve" smooth="yes"/>
      <point x="324" y="73" type="line" smooth="yes"/>
      <point x="254" y="73"/>
      <point x="254" y="73"/>
      <point x="229" y="80" type="curve" smooth="yes"/>
      <point x="200" y="88"/>
      <point x="183" y="98"/>
      <point x="170" y="115" type="curve" smooth="yes"/>
      <point x="159" y="129"/>
      <point x="135" y="172"/>
      <point x="131" y="185" type="curve" smooth="yes"/>
      <point x="128" y="193"/>
      <point x="127" y="195"/>
      <point x="127" y="331" type="curve" smooth="yes"/>
      <point x="127" y="401" type="line" smooth="yes"/>
      <point x="127" y="461"/>
      <point x="127" y="478"/>
      <point x="129" y="493" type="curve" smooth="yes"/>
      <point x="130" y="504"/>
      <point x="131" y="514"/>
      <point x="131" y="519" type="curve" smooth="yes"/>
      <point x="131" y="520"/>
      <point x="131" y="520"/>
      <point x="131" y="521" type="curve" smooth="yes"/>
      <point x="131" y="523"/>
      <point x="130" y="525"/>
      <point x="130" y="529" type="curve" smooth="yes"/>
      <point x="130" y="544"/>
      <point x="134" y="582"/>
      <point x="137" y="596" type="curve" smooth="yes"/>
      <point x="139" y="606"/>
      <point x="142" y="619"/>
      <point x="144" y="627" type="curve" smooth="yes"/>
      <point x="148" y="650"/>
      <point x="150" y="654"/>
      <point x="164" y="680" type="curve" smooth="yes"/>
      <point x="173" y="697"/>
      <point x="187" y="714"/>
      <point x="198" y="724" type="curve"/>
      <point x="201" y="724" type="line"/>
      <point x="222" y="724" type="line" smooth="yes"/>
      <point x="264" y="724"/>
      <point x="282" y="720"/>
      <point x="296" y="709" type="curve" smooth="yes"/>
      <point x="299" y="707"/>
      <point x="303" y="701"/>
      <point x="308" y="692" type="curve" smooth="yes"/>
      <point x="315" y="681"/>
      <point x="324" y="666"/>
      <point x="330" y="654" type="curve" smooth="yes"/>
      <point x="332" y="648"/>
      <point x="334" y="642"/>
      <point x="338" y="640" type="curve" smooth="yes"/>
      <point x="339" y="639"/>
      <point x="339" y="638"/>
      <point x="343" y="638" type="curve" smooth="yes"/>
      <point x="345" y="638"/>
      <point x="346" y="639"/>
      <point x="347" y="640" type="curve" smooth="yes"/>
      <point x="364" y="648"/>
      <point x="387" y="660"/>
      <point x="403" y="669" type="curve" smooth="yes"/>
      <point x="404" y="670"/>
      <point x="409" y="673"/>
      <point x="409" y="674" type="curve" smooth="yes"/>
      <point x="409" y="675"/>
      <point x="408" y="675"/>
      <point x="408" y="675" type="curve" smooth="yes"/>
      <point x="408" y="675"/>
      <point x="408" y="675"/>
      <point x="408" y="676" type="curve" smooth="yes"/>
      <point x="408" y="677"/>
      <point x="408" y="677"/>
      <point x="408" y="678" type="curve" smooth="yes"/>
      <point x="408" y="679"/>
      <point x="408" y="680"/>
      <point x="407" y="682" type="curve" smooth="yes"/>
      <point x="401" y="696"/>
      <point x="395" y="709"/>
      <point x="386" y="726" type="curve" smooth="yes"/>
      <point x="375" y="746"/>
      <point x="367" y="756"/>
      <point x="349" y="765" type="curve" smooth="yes"/>
      <point x="331" y="774"/>
      <point x="315" y="776"/>
      <point x="275" y="776" type="curve" smooth="yes"/>
      <point x="260" y="776"/>
      <point x="245" y="776"/>
    </contour>
  </outline>
</glyph>
<glyph name="D" format="2">
  <advance width="766"/>
  <unicode hex="0044"/>
  <outline>
    <contour>
      <point x="321" y="53" type="line"/>
      <point x="244" y="-1" type="line"/>
      <point x="314" y="-2"/>
      <point x="386" y="-2"/>
      <point x="454" y="-2" type="curve" smooth="yes"/>
      <point x="488" y="-2"/>
      <point x="505" y="-2"/>
      <point x="523" y="-1" type="curve" smooth="yes"/>
      <point x="530" y="-1"/>
      <point x="533" y="-1"/>
      <point x="537" y="0" type="curve" smooth="yes"/>
      <point x="541" y="1"/>
      <point x="551" y="6"/>
      <point x="561" y="11" type="curve" smooth="yes"/>
      <point x="575" y="18"/>
      <point x="592" y="27"/>
      <point x="605" y="35" type="curve" smooth="yes"/>
      <point x="644" y="58"/>
      <point x="671" y="88"/>
      <point x="687" y="126" type="curve" smooth="yes"/>
      <point x="696" y="145"/>
      <point x="712" y="191"/>
      <point x="718" y="211" type="curve" smooth="yes"/>
      <point x="723" y="226"/>
      <point x="735" y="262"/>
      <point x="742" y="283" type="curve"/>
      <point x="743" y="314"/>
      <point x="743" y="350"/>
      <point x="743" y="379" type="curve" smooth="yes"/>
      <point x="743" y="418"/>
      <point x="740" y="432"/>
      <point x="735" y="457" type="curve" smooth="yes"/>
      <point x="733" y="466"/>
      <point x="731" y="474"/>
      <point x="729" y="487" type="curve" smooth="yes"/>
      <point x="724" y="526"/>
      <point x="709" y="573"/>
      <point x="692" y="606" type="curve" smooth="yes"/>
      <point x="685" y="618"/>
      <point x="673" y="630"/>
      <point x="646" y="650" type="curve" smooth="yes"/>
      <point x="619" y="671"/>
      <point x="601" y="682"/>
      <point x="577" y="693" type="curve" smooth="yes"/>
      <point x="541" y="708"/>
      <point x="444" y="736"/>
      <point x="375" y="750" type="curve" smooth="yes"/>
      <point x="350" y="755" type="line"/>
      <point x="320" y="755"/>
      <point x="286" y="756"/>
      <point x="256" y="756" type="curve" smooth="yes"/>
      <point x="227" y="756"/>
      <point x="215" y="755"/>
      <point x="200" y="753" type="curve" smooth="yes"/>
      <point x="183" y="750"/>
      <point x="172" y="748"/>
      <point x="153" y="741" type="curve" smooth="yes"/>
      <point x="117" y="728"/>
      <point x="107" y="722"/>
      <point x="73" y="696" type="curve" smooth="yes"/>
      <point x="47" y="677"/>
      <point x="34" y="660"/>
      <point x="23" y="626" type="curve" smooth="yes"/>
      <point x="18" y="610" type="line"/>
      <point x="18" y="235" type="line"/>
      <point x="22" y="218"/>
      <point x="26" y="201"/>
      <point x="28" y="179" type="curve" smooth="yes"/>
      <point x="32" y="148"/>
      <point x="36" y="123"/>
      <point x="36" y="86" type="curve" smooth="yes"/>
      <point x="36" y="59"/>
      <point x="37" y="23"/>
      <point x="39" y="-3" type="curve" smooth="yes"/>
      <point x="40" y="-6"/>
      <point x="40" y="-8"/>
      <point x="41" y="-11" type="curve" smooth="yes"/>
      <point x="41" y="-11"/>
      <point x="41" y="-11"/>
      <point x="41" y="-11" type="curve" smooth="yes"/>
      <point x="41" y="-11"/>
      <point x="41" y="-11"/>
      <point x="42" y="-13" type="curve" smooth="yes"/>
      <point x="44" y="-15"/>
      <point x="45" y="-15"/>
      <point x="46" y="-15" type="curve" smooth="yes"/>
      <point x="46" y="-15"/>
      <point x="46" y="-15"/>
      <point x="46" y="-15" type="curve" smooth="yes"/>
      <point x="47" y="-15"/>
      <point x="47" y="-15"/>
      <point x="48" y="-15" type="curve" smooth="yes"/>
      <point x="50" y="-15"/>
      <point x="51" y="-14"/>
      <point x="53" y="-13" type="curve" smooth="yes"/>
      <point x="69" y="-7"/>
      <point x="91" y="5"/>
      <point x="107" y="14" type="curve" smooth="yes"/>
      <point x="110" y="16"/>
      <point x="111" y="17"/>
      <point x="114" y="18" type="curve" smooth="yes"/>
      <point x="114" y="18"/>
      <point x="116" y="22"/>
      <point x="116" y="22" type="curve" smooth="yes"/>
      <point x="116" y="22"/>
      <point x="116" y="22"/>
      <point x="116" y="23" type="curve" smooth="yes"/>
      <point x="116" y="24"/>
      <point x="116" y="24"/>
      <point x="116" y="25" type="curve" smooth="yes"/>
      <point x="116" y="28"/>
      <point x="116" y="30"/>
      <point x="115" y="33" type="curve" smooth="yes"/>
      <point x="114" y="36"/>
      <point x="113" y="67"/>
      <point x="112" y="100" type="curve" smooth="yes"/>
      <point x="111" y="134"/>
      <point x="110" y="166"/>
      <point x="109" y="173" type="curve" smooth="yes"/>
      <point x="108" y="179"/>
      <point x="106" y="193"/>
      <point x="105" y="203" type="curve" smooth="yes"/>
      <point x="103" y="222"/>
      <point x="98" y="247"/>
      <point x="95" y="266" type="curve"/>
      <point x="95" y="634" type="line"/>
      <point x="96" y="638"/>
      <point x="97" y="642"/>
      <point x="98" y="646" type="curve" smooth="yes"/>
      <point x="104" y="663"/>
      <point x="111" y="678"/>
      <point x="118" y="686" type="curve" smooth="yes"/>
      <point x="121" y="689"/>
      <point x="123" y="691"/>
      <point x="126" y="692" type="curve" smooth="yes"/>
      <point x="130" y="694"/>
      <point x="137" y="695"/>
      <point x="152" y="697" type="curve" smooth="yes"/>
      <point x="165" y="700"/>
      <point x="210" y="701"/>
      <point x="246" y="701" type="curve" smooth="yes"/>
      <point x="265" y="701"/>
      <point x="283" y="701"/>
      <point x="291" y="700" type="curve" smooth="yes"/>
      <point x="341" y="694"/>
      <point x="448" y="667"/>
      <point x="502" y="646" type="curve" smooth="yes"/>
      <point x="526" y="636"/>
      <point x="549" y="623"/>
      <point x="580" y="600" type="curve" smooth="yes"/>
      <point x="596" y="588"/>
      <point x="605" y="582"/>
      <point x="611" y="574" type="curve" smooth="yes"/>
      <point x="619" y="565"/>
      <point x="624" y="553"/>
      <point x="635" y="527" type="curve" smooth="yes"/>
      <point x="640" y="516"/>
      <point x="651" y="469"/>
      <point x="653" y="455" type="curve" smooth="yes"/>
      <point x="654" y="449"/>
      <point x="655" y="441"/>
      <point x="656" y="436" type="curve" smooth="yes"/>
      <point x="658" y="431"/>
      <point x="661" y="416"/>
      <point x="663" y="403" type="curve" smooth="yes"/>
      <point x="663" y="403" type="line" smooth="yes"/>
      <point x="666" y="385"/>
      <point x="667" y="379"/>
      <point x="667" y="353" type="curve" smooth="yes"/>
      <point x="667" y="326"/>
      <point x="666" y="292"/>
      <point x="666" y="264" type="curve" smooth="yes"/>
      <point x="666" y="262"/>
      <point x="666" y="262"/>
      <point x="666" y="261" type="curve" smooth="yes"/>
      <point x="660" y="244"/>
      <point x="655" y="228"/>
      <point x="648" y="207" type="curve" smooth="yes"/>
      <point x="636" y="168"/>
      <point x="617" y="120"/>
      <point x="608" y="102" type="curve" smooth="yes"/>
      <point x="598" y="83"/>
      <point x="585" y="67"/>
      <point x="571" y="53" type="curve"/>
    </contour>
  </outline>
</glyph>
<glyph name="E" format="2">
  <advance width="412"/>
  <unicode hex="0045"/>
  <outline>
    <contour>
      <point x="250" y="110" type="curve"/>
      <point x="239.871" y="108.977"/>
      <point x="249.935" y="60.5"/>
      <point x="239.5" y="60.5" type="curve" smooth="yes"/>
      <point x="174.833" y="60.5"/>
      <point x="119.667" y="79.5"/>
      <point x="74" y="117.5" type="curve" smooth="yes"/>
      <point x="28.333" y="155.5"/>
      <point x="5.5" y="201.5"/>
      <point x="5.5" y="255.5" type="curve" smooth="yes"/>
      <point x="5.5" y="289.5"/>
      <point x="16.167" y="320.833"/>
      <point x="37.5" y="349.5" type="curve" smooth="yes"/>
      <point x="58.833" y="378.167"/>
      <point x="87.167" y="398.833"/>
      <point x="122.5" y="411.5" type="curve"/>
      <point x="87.167" y="424.167"/>
      <point x="58.833" y="444.833"/>
      <point x="37.5" y="473.5" type="curve" smooth="yes"/>
      <point x="16.167" y="502.167"/>
      <point x="5.5" y="533.5"/>
      <point x="5.5" y="567.5" type="curve" smooth="yes"/>
      <point x="5.5" y="614.167"/>
      <point x="23.333" y="654"/>
      <point x="59" y="687" type="curve" smooth="yes"/>
      <point x="94.667" y="720"/>
      <point x="137.5" y="736.5"/>
      <point x="187.5" y="736.5" type="curve" smooth="yes"/>
      <point x="223.5" y="736.5"/>
      <point x="254.167" y="723.833"/>
      <point x="279.5" y="698.5" type="curve" smooth="yes"/>
      <point x="304.833" y="673.167"/>
      <point x="317.5" y="642.5"/>
      <point x="317.5" y="606.5" type="curve" smooth="yes"/>
      <point x="317.5" y="579.833"/>
      <point x="306.333" y="556.5"/>
      <point x="284" y="536.5" type="curve" smooth="yes"/>
      <point x="261.667" y="516.5"/>
      <point x="233.833" y="505.167"/>
      <point x="200.5" y="502.5" type="curve"/>
      <point x="200.5" y="567.5" type="line"/>
      <point x="211.167" y="567.5"/>
      <point x="220.333" y="571.333"/>
      <point x="228" y="579" type="curve" smooth="yes"/>
      <point x="235.667" y="586.667"/>
      <point x="239.5" y="595.833"/>
      <point x="239.5" y="606.5" type="curve" smooth="yes"/>
      <point x="239.5" y="617.167"/>
      <point x="233.167" y="626.333"/>
      <point x="220.5" y="634" type="curve" smooth="yes"/>
      <point x="207.833" y="641.667"/>
      <point x="192.5" y="645.5"/>
      <point x="174.5" y="645.5" type="curve" smooth="yes"/>
      <point x="149.167" y="645.5"/>
      <point x="127.667" y="637.833"/>
      <point x="110" y="622.5" type="curve" smooth="yes"/>
      <point x="92.333" y="607.167"/>
      <point x="83.5" y="588.833"/>
      <point x="83.5" y="567.5" type="curve" smooth="yes"/>
      <point x="83.5" y="535.5"/>
      <point x="98.667" y="508"/>
      <point x="129" y="485" type="curve" smooth="yes"/>
      <point x="159.333" y="462"/>
      <point x="196.167" y="450.5"/>
      <point x="239.5" y="450.5" type="curve"/>
      <point x="239.5" y="372.5" type="line"/>
      <point x="196.167" y="372.5"/>
      <point x="159.333" y="361"/>
      <point x="129" y="338" type="curve" smooth="yes"/>
      <point x="98.667" y="315"/>
      <point x="83.5" y="287.5"/>
      <point x="83.5" y="255.5" type="curve" smooth="yes"/>
      <point x="83.5" y="226.833"/>
      <point x="98.667" y="202.333"/>
      <point x="129" y="182" type="curve" smooth="yes"/>
      <point x="159.333" y="161.667"/>
      <point x="196.167" y="151.5"/>
      <point x="239.5" y="151.5" type="curve" smooth="yes"/>
      <point x="249.137" y="151.5"/>
      <point x="240.693" y="108.863"/>
    </contour>
    <contour>
      <point x="-3" y="815" type="line"/>
      <point x="248" y="815" type="line" smooth="yes"/>
      <point x="266" y="815"/>
      <point x="281.333" y="821.333"/>
      <point x="294" y="834" type="curve" smooth="yes"/>
      <point x="306.667" y="846.667"/>
      <point x="313" y="862"/>
      <point x="313" y="880" type="curve" smooth="yes"/>
      <point x="313" y="895.333"/>
      <point x="308.5" y="910.833"/>
      <point x="299.5" y="926.5" type="curve" smooth="yes"/>
      <point x="290.5" y="942.167"/>
      <point x="277.667" y="957"/>
      <point x="261" y="971" type="curve"/>
      <point x="313" y="1023" type="line"/>
      <point x="337.667" y="1002.33"/>
      <point x="356.833" y="979.5"/>
      <point x="370.5" y="954.5" type="curve" smooth="yes"/>
      <point x="384.167" y="929.5"/>
      <point x="391" y="904.667"/>
      <point x="391" y="880" type="curve" smooth="yes"/>
      <point x="391" y="840.667"/>
      <point x="377" y="807"/>
      <point x="349" y="779" type="curve" smooth="yes"/>
      <point x="321" y="751"/>
      <point x="287.333" y="737"/>
      <point x="248" y="737" type="curve" smooth="yes"/>
      <point x="-3" y="737" type="line"/>
    </contour>
  </outline>
</glyph>
